<svg width="32px" height="32px" viewBox="0 0 304 24" xmlns="http://www.w3.org/2000/svg"
  fill="currentColor" color="#B75692" preserveAspectRatio="none" fill-rule="evenodd"
  clip-rule="evenodd" stroke-linejoin="round" stroke-miterlimit="2">
  <path
    d="M8.049 15.846a31.94 31.94 0 003.957-.504c.006.093.008.19.006.295a21.163 21.163 0 01-3.963.209zm3.592 3.837l-.387.053a64.47 64.47 0 01-.988-.105c.293-.069.586-.133.879-.198.255-.025.511-.05.764-.084-.08.137-.169.249-.268.334zM7.88 13.265a25.153 25.153 0 012.907-.294h.086c.056.132.105.267.148.402-1.04.056-2.09.012-3.141-.108zm2.017-2.168c.076.161.16.319.248.479-.281-.004-.561-.014-.842-.01a84.45 84.45 0 01-1.815-.087 32.256 32.256 0 012.409-.382zm1.315-3.548a2.967 2.967 0 00-.021.177c-1.022.045-2.043.094-3.064.139-.053-.019-.106-.035-.159-.057 1.075-.154 2.158-.218 3.244-.259zM298.157 4.02c-4.485-.279 4.076-.556.008-.829 10.494-.278-.383-.554.007-.826-4.52-.28-5.394-.559.008-.832-.026-.016-.033-.031-.034-.045h-11.744v-.356c-.068.12-.133.252-.199.356h-9.826a4.559 4.559 0 00-.221.11 5.627 5.627 0 00-.954-.001 5.432 5.432 0 00-1.08-.007 5.361 5.361 0 00-1.08-.008 5.385 5.385 0 00-1.075-.008 5.35 5.35 0 00-1.086-.009 5.435 5.435 0 00-1.08-.008 5.367 5.367 0 00-1.081-.007 5.37 5.37 0 00-1.081-.008 5.36 5.36 0 00-1.08-.008 5.36 5.36 0 00-1.08-.008 5.435 5.435 0 00-1.08-.008 5.45 5.45 0 00-1.074-.008 5.347 5.347 0 00-1.086-.008 5.36 5.36 0 00-1.08-.008 5.361 5.361 0 00-1.08-.008 5.435 5.435 0 00-1.08-.008 5.367 5.367 0 00-1.081-.007 5.37 5.37 0 00-1.081-.008 5.455 5.455 0 00-1.074-.009 5.356 5.356 0 00-1.087-.008 5.36 5.36 0 00-1.08-.008 5.445 5.445 0 00-1.081-.008 5.421 5.421 0 00-1.079-.007 5.36 5.36 0 00-1.08-.008 5.36 5.36 0 00-1.08-.008 5.36 5.36 0 00-1.08-.008 5.451 5.451 0 00-1.074-.008 5.357 5.357 0 00-1.087-.008 5.37 5.37 0 00-1.081-.008 5.36 5.36 0 00-1.08-.008 5.37 5.37 0 00-1.081-.008 5.435 5.435 0 00-1.08-.008 5.357 5.357 0 00-1.08-.007 5.36 5.36 0 00-1.08-.008 5.454 5.454 0 00-1.074-.009 5.42 5.42 0 00-1.086-.008 5.435 5.435 0 00-1.08-.008 5.357 5.357 0 00-1.08-.007 5.37 5.37 0 00-1.081-.008 5.37 5.37 0 00-1.081-.008 5.36 5.36 0 00-1.08-.008 5.36 5.36 0 00-1.08-.008 5.45 5.45 0 00-1.074-.008 5.357 5.357 0 00-1.087-.008 5.36 5.36 0 00-1.08-.008 5.36 5.36 0 00-1.08-.008 5.36 5.36 0 00-1.08-.008 5.435 5.435 0 00-1.08-.008 5.357 5.357 0 00-1.08-.007 5.388 5.388 0 00-1.075-.009 5.357 5.357 0 00-1.087-.008 5.36 5.36 0 00-1.08-.008 5.435 5.435 0 00-1.08-.008 5.357 5.357 0 00-1.08-.007 5.36 5.36 0 00-1.08-.008 5.361 5.361 0 00-1.08-.008 5.361 5.361 0 00-1.08-.008 5.461 5.461 0 00-1.075-.008 5.347 5.347 0 00-1.086-.008 5.37 5.37 0 00-1.081-.008 5.37 5.37 0 00-1.081-.008 5.36 5.36 0 00-1.08-.008 5.36 5.36 0 00-1.08-.008 5.435 5.435 0 00-1.08-.008 5.432 5.432 0 00-1.08-.007 5.455 5.455 0 00-1.074-.009 5.347 5.347 0 00-1.086-.008 5.36 5.36 0 00-1.08-.008 5.435 5.435 0 00-1.08-.008 5.357 5.357 0 00-1.08-.007 5.38 5.38 0 00-1.082-.008 5.37 5.37 0 00-1.081-.008 5.44 5.44 0 00-1.073-.008 5.433 5.433 0 00-1.087-.009 5.357 5.357 0 00-1.08-.007 5.36 5.36 0 00-1.08-.008 5.36 5.36 0 00-1.08-.008 5.36 5.36 0 00-1.08-.008 5.435 5.435 0 00-1.08-.008 5.357 5.357 0 00-1.08-.007 5.388 5.388 0 00-1.075-.009A5.357 5.357 0 00187.7.954a5.36 5.36 0 00-1.08-.008 5.36 5.36 0 00-1.08-.008 5.445 5.445 0 00-1.081-.008 5.431 5.431 0 00-1.08-.007 5.36 5.36 0 00-1.08-.008 5.36 5.36 0 00-1.08-.008 5.45 5.45 0 00-1.074-.008 5.424 5.424 0 00-1.086-.009 5.357 5.357 0 00-1.08-.007 5.37 5.37 0 00-1.081-.008 5.37 5.37 0 00-1.081-.008 5.36 5.36 0 00-1.08-.008 5.435 5.435 0 00-1.08-.008 5.357 5.357 0 00-1.08-.007 5.388 5.388 0 00-1.075-.009 5.337 5.337 0 00-1.085-.008 5.37 5.37 0 00-1.081-.008 5.435 5.435 0 00-1.08-.008 5.357 5.357 0 00-1.08-.007 5.37 5.37 0 00-1.081-.008 5.37 5.37 0 00-1.081-.008 5.365 5.365 0 00-1.073-.008 5.36 5.36 0 00-1.087-.009 5.435 5.435 0 00-1.08-.008 5.431 5.431 0 00-1.08-.007 5.36 5.36 0 00-1.08-.008 5.37 5.37 0 00-1.081-.008 5.36 5.36 0 00-1.08-.008 5.435 5.435 0 00-1.08-.008 5.45 5.45 0 00-1.074-.008 5.357 5.357 0 00-1.087-.008 5.36 5.36 0 00-1.08-.008 5.36 5.36 0 00-1.08-.008 5.435 5.435 0 00-1.08-.008 5.357 5.357 0 00-1.08-.007 5.37 5.37 0 00-1.081-.008 5.37 5.37 0 00-1.081-.008 5.365 5.365 0 00-1.073-.008 5.434 5.434 0 00-1.087-.009 5.357 5.357 0 00-1.08-.007 5.36 5.36 0 00-1.08-.008 5.361 5.361 0 00-1.08-.008 5.37 5.37 0 00-1.081-.008 5.36 5.36 0 00-1.08-.008 5.45 5.45 0 00-1.074-.008 5.347 5.347 0 00-1.086-.008 5.37 5.37 0 00-1.081-.008 5.36 5.36 0 00-1.08-.008 5.361 5.361 0 00-1.08-.008 5.435 5.435 0 00-1.08-.008 5.367 5.367 0 00-1.081-.007 5.36 5.36 0 00-1.08-.008 5.375 5.375 0 00-1.074-.008 5.36 5.36 0 00-1.087-.009 5.435 5.435 0 00-1.08-.008 5.357 5.357 0 00-1.08-.007 5.37 5.37 0 00-1.081-.008 5.36 5.36 0 00-1.08-.008 5.36 5.36 0 00-1.08-.008 5.435 5.435 0 00-1.08-.008 5.45 5.45 0 00-1.074-.008 5.347 5.347 0 00-1.086-.008 5.37 5.37 0 00-1.081-.008 5.37 5.37 0 00-1.081-.008 5.36 5.36 0 00-1.08-.008 5.435 5.435 0 00-1.08-.008 5.431 5.431 0 00-1.08-.007 5.36 5.36 0 00-1.08-.008 5.385 5.385 0 00-1.075-.008 5.35 5.35 0 00-1.086-.009 5.435 5.435 0 00-1.08-.008 5.357 5.357 0 00-1.08-.007 5.37 5.37 0 00-1.081-.008 5.36 5.36 0 00-1.08-.008 5.36 5.36 0 00-1.08-.008 5.45 5.45 0 00-1.074-.008 5.347 5.347 0 00-1.086-.008 5.37 5.37 0 00-1.081-.008 5.37 5.37 0 00-1.081-.008 5.36 5.36 0 00-1.08-.008 5.435 5.435 0 00-1.08-.008 5.357 5.357 0 00-1.08-.007 5.36 5.36 0 00-1.08-.008 5.464 5.464 0 00-1.075-.009 5.347 5.347 0 00-1.086-.008 5.37 5.37 0 00-1.081-.008 5.435 5.435 0 00-1.08-.008 5.431 5.431 0 00-1.08-.007 5.36 5.36 0 00-1.08-.008A5.37 5.37 0 0090.476.24a5.36 5.36 0 00-1.08-.008 5.45 5.45 0 00-1.074-.008 5.426 5.426 0 00-1.094-.008 5.361 5.361 0 00-1.073-.007 5.36 5.36 0 00-1.08-.008 5.363 5.363 0 00-1.088-.007 5.43 5.43 0 00-1.072-.008 5.357 5.357 0 00-1.08-.007 5.377 5.377 0 00-1.089-.008 5.437 5.437 0 00-1.073-.007 5.363 5.363 0 00-1.088-.007 5.43 5.43 0 00-1.072-.008 5.435 5.435 0 00-1.08-.008 5.436 5.436 0 00-1.088-.007 5.361 5.361 0 00-1.073-.007 5.367 5.367 0 00-1.088-.008 5.427 5.427 0 00-1.072-.007 5.36 5.36 0 00-1.08-.008 5.437 5.437 0 00-1.088-.007A5.361 5.361 0 0068.871.09a5.367 5.367 0 00-1.088-.008A5.437 5.437 0 0066.71.075a5.36 5.36 0 00-1.08-.008A5.427 5.427 0 0064.543.06 5.361 5.361 0 0063.47.053a5.37 5.37 0 00-1.081-.008 5.44 5.44 0 00-1.088-.008A5.427 5.427 0 0060.229.03a5.363 5.363 0 00-1.088-.007 5.44 5.44 0 00-1.073-.008 5.357 5.357 0 00-1.08-.007A5.44 5.44 0 0055.9 0a5.427 5.427 0 00-1.072-.007 5.361 5.361 0 00-1.08-.008 5.447 5.447 0 00-1.089-.007 5.361 5.361 0 00-1.073-.007 5.454 5.454 0 00-1.199 0 5.562 5.562 0 00-1.266.026 5.604 5.604 0 00-1.079.035 5.571 5.571 0 00-1.084.036 5.654 5.654 0 00-1.076.035 5.686 5.686 0 00-1.079.035 5.658 5.658 0 00-1.085.037 5.562 5.562 0 00-1.075.035 5.598 5.598 0 00-1.079.035 5.625 5.625 0 00-1.081.035A5.563 5.563 0 0039.4.316a5.654 5.654 0 00-1.076.035 5.532 5.532 0 00-1.08.036 5.56 5.56 0 00-1.083.036 5.573 5.573 0 00-1.076.035 5.612 5.612 0 00-1.08.035 5.574 5.574 0 00-1.084.036 5.646 5.646 0 00-1.075.035 5.683 5.683 0 00-1.079.035 5.53 5.53 0 00-1.08.036 5.581 5.581 0 00-1.085.036 5.565 5.565 0 00-1.075.035 5.617 5.617 0 00-1.08.035 5.574 5.574 0 00-1.084.036 5.643 5.643 0 00-1.075.035 5.612 5.612 0 00-1.08.035 5.558 5.558 0 00-1.083.037 5.573 5.573 0 00-1.076.035 5.612 5.612 0 00-1.08.035 5.601 5.601 0 00-1.079.035 5.581 5.581 0 00-1.085.036 5.643 5.643 0 00-1.075.035c-.245-.013-.464.01-.69.023-.081-.092-.185-.166-.306-.164-2.947.027-5.816.331-8.663.997H4.734c-.545 0-.545.81 0 .81h.598c.031.178.17.335.402.332.097-.002.192-.008.288-.01.026.17.148.323.379.326.405.004.809.011 1.213.018-1.387.226-2.79.391-4.213.534-.518.051-.543.793 0 .791a57.158 57.158 0 002.188-.056c.016.006.022.022.039.026.054.013.107.022.161.034-.189.193-.083.592.279.637l.099.012a.307.307 0 00-.136.25h-.963c-.431 0-.523.606-.103.722 1.155.316 2.317.527 3.485.677-.608.069-1.214.156-1.817.284-.292.062-.355.443-.137.619-.476.013-.952.033-1.428.037-.487.004-.488.728 0 .724.096 0 .192-.003.288-.004.717.131 1.434.232 2.152.317-.848.07-1.694.169-2.539.316-.351.063-.356.627 0 .684.488.077.975.139 1.463.189-.073.174-.01.407.209.458.283.067.565.119.847.165-.73.141-1.456.313-2.178.532-.386.116-.281.607.091.64.456.041.913.067 1.37.099.02.095.073.181.21.209.083.016.166.024.25.04-.611.005-1.222.007-1.83.008-.429 0-.429.637 0 .636h.779c-.066.018-.133.028-.199.045-.298.08-.33.547 0 .608.92.166 1.844.287 2.765.35-.988.136-1.978.261-2.973.374-.456.004-.914.006-1.372.006-.336 0-.374.401-.148.537-.311.048-.623.093-.935.143-.324.053-.264.485 0 .572.954.313 1.916.53 2.882.668-.929.049-1.862.079-2.799.086-.395.002-.395.59 0 .586.243-.001.482-.017.724-.02-.044.145.001.311.195.341.027.005.054.007.081.011h.001c1.251.195 2.5.289 3.746.314-.022.083-.015.169.04.233-1.082.229-2.153.504-3.2.887-.317.116-.261.538.08.56 1.052.068 2.082.024 3.1-.087-.087.156.008.399.233.396l.042-.001c.044.157.31.27.666.349.139.048.277.089.415.13-.324.099-.576.22-.57.362a4.192 4.192 0 01-.596.084c-.185.025-.132.302.043.302.69-.002 1.375-.036 2.061-.062a1.982 1.982 0 00-.082.337c-.118.003-.238.002-.358.003-.358-.13-.584-.125-.686.008-.312.002-.623.007-.935.007-.295.001-.295.438 0 .44.371.002.741.008 1.11.013.094.014.188.028.282.04-.141.052-.283.093-.423.148-.1.004-.201.012-.302.014-.311.007-.313.467 0 .464.09-.001.178-.01.268-.012.023.005.037.022.065.02.187-.006.369-.031.555-.041v.008c.088-.005.175-.019.263-.025.389-.02.779-.04 1.164-.073.002.105-.007.22-.034.354.699.337 1.413.342 2.098.234.365.037.727.021 1.082-.035.364.037.723.02 1.077-.035.364.037.725.02 1.08-.035a4.25 4.25 0 001.082-.036c.364.036.724.019 1.077-.036.365.037.725.02 1.08-.036.364.038.725.021 1.079-.035.366.037.728.021 1.083-.035.364.037.724.02 1.077-.035.364.037.725.02 1.08-.035a4.25 4.25 0 001.082-.036c.364.036.723.019 1.077-.036.364.037.725.02 1.08-.036.365.038.727.021 1.082-.035.364.037.724.02 1.077-.035.364.037.726.02 1.08-.035.364.037.725.019 1.08-.035a4.25 4.25 0 001.082-.036c.364.036.723.019 1.077-.036.364.037.725.02 1.08-.036.365.037.728.021 1.083-.035.363.037.723.02 1.076-.035.364.037.725.02 1.08-.035.366.037.728.019 1.083-.036.364.036.723.019 1.076-.036.365.037.726.02 1.08-.036.364.038.725.021 1.08-.035.365.037.727.021 1.082-.035.364.037.724.02 1.077-.035.365.037.725.02 1.08-.035a4.25 4.25 0 001.082-.036c.364.036.724.019 1.078-.036.364.037.725.02 1.079-.036.331.035.66.026.983-.019a3.99 3.99 0 001.03.002c.365.054.728.053 1.084.008.363.052.723.052 1.078.007.363.053.725.053 1.08.007.364.054.727.054 1.083.007.362.053.723.053 1.077.008.364.053.725.054 1.08.008.365.053.728.053 1.084.008.362.052.723.052 1.077.006.365.054.727.054 1.083.007.363.053.723.053 1.077.008.364.053.726.054 1.081.008.364.054.727.053 1.084.008.362.052.722.052 1.076.007.364.053.725.053 1.08.007a3.9 3.9 0 001.084.007c.362.053.723.053 1.077.008.365.054.728.053 1.084.008.362.053.723.053 1.077.007.363.053.725.053 1.08.007.365.054.727.054 1.083.007.363.053.723.053 1.077.008.365.054.728.053 1.084.008.363.053.723.053 1.077.007.363.053.725.053 1.08.008.365.053.728.053 1.084.006.362.053.722.053 1.076.008.365.054.728.053 1.084.008.363.053.723.053 1.077.007a3.91 3.91 0 001.08.008c.365.053.728.053 1.084.007.362.052.723.052 1.077.007.363.053.725.054 1.08.008.365.054.728.053 1.084.008.362.053.721.053 1.073.008.365.053.728.053 1.084.008.363.052.725.053 1.08.007.364.053.726.054 1.081.008.363.053.725.054 1.08.008.363.053.725.054 1.08.008.364.053.725.054 1.08.008.364.052.726.053 1.081.007.362.053.723.054 1.077.008a3.9 3.9 0 001.084.009 3.91 3.91 0 001.08.008 3.91 3.91 0 001.08.008c.363.053.725.053 1.08.007a3.91 3.91 0 001.08.008c.364.054.726.054 1.081.008a3.91 3.91 0 001.08.008c.363.054.724.054 1.077.009.365.053.728.053 1.084.008.363.052.725.053 1.08.007.363.053.725.054 1.08.008.364.053.726.054 1.081.008.363.053.725.054 1.08.008.363.053.725.053 1.08.008.362.052.723.053 1.077.007a3.9 3.9 0 001.084.009 3.91 3.91 0 001.08.008 3.91 3.91 0 001.08.008 3.91 3.91 0 001.08.008c.364.053.725.053 1.08.007.364.054.726.054 1.081.008.364.054.726.054 1.081.008a3.92 3.92 0 001.076.009c.365.054.728.054 1.084.008a3.98 3.98 0 001.079.007c.364.053.726.054 1.08.008.364.053.726.054 1.081.008.364.053.726.054 1.081.008.363.053.725.054 1.08.008a4.03 4.03 0 001.08.008c.362.052.723.053 1.077.007a3.9 3.9 0 001.084.009 3.91 3.91 0 001.08.008 3.91 3.91 0 001.08.008c.364.053.726.053 1.08.008.364.053.726.053 1.081.007a3.91 3.91 0 001.08.008c.364.054.726.054 1.081.008a3.92 3.92 0 001.076.009c.365.054.728.054 1.084.008.363.052.725.053 1.08.007.364.053.726.054 1.08.008.364.053.726.054 1.081.008.363.053.725.054 1.08.008.363.053.725.054 1.08.008.363.052.723.053 1.077.007.365.055.727.055 1.083.009.364.054.726.054 1.081.008.364.054.726.054 1.081.008a3.91 3.91 0 001.08.008c.363.053.725.053 1.08.008.363.053.725.053 1.08.007a3.91 3.91 0 001.08.008c.363.054.723.054 1.077.009.365.054.728.054 1.084.008a4.03 4.03 0 001.08.008c.363.052.725.053 1.08.007.364.053.726.054 1.081.008.363.053.725.054 1.081.008.363.053.724.054 1.08.008.363.053.724.054 1.08.008.362.052.723.053 1.076.007a3.9 3.9 0 001.084.009 3.91 3.91 0 001.08.008c.363.054.726.054 1.081.008a3.91 3.91 0 001.08.008c.364.053.725.053 1.08.007a3.91 3.91 0 001.08.008c.363.054.723.054 1.078.009.364.054.727.054 1.084.008.363.053.724.054 1.08.008.363.052.724.053 1.08.008.363.052.724.053 1.08.007.363.053.724.054 1.08.008.363.053.725.054 1.081.008.363.053.725.054 1.08.008.361.053.723.053 1.076.008.364.054.728.054 1.084.008a3.91 3.91 0 001.08.008 3.91 3.91 0 001.08.008c.364.054.726.054 1.081.008a3.91 3.91 0 001.08.008c.364.053.725.053 1.081.007.363.054.724.054 1.08.008.362.054.722.054 1.077.009.364.054.727.054 1.084.008.363.053.724.054 1.08.008.363.052.724.053 1.08.007.363.053.724.054 1.08.008.363.053.725.054 1.08.008.363.053.726.054 1.081.008.363.053.725.054 1.08.008a4 4 0 001.076.008c.365.054.728.054 1.084.008a3.91 3.91 0 001.08.008c.364.054.726.054 1.081.008.364.054.725.054 1.081.008.363.053.724.053 1.08.008.363.053.724.053 1.08.007a3.92 3.92 0 001.076.009c.365.054.727.054 1.084.008.363.053.725.054 1.081.008.363.053.725.054 1.08.008.363.052.725.053 1.08.007.363.053.725.054 1.08.008.363.053.725.054 1.08.008.363.053.726.054 1.081.008a3.92 3.92 0 001.076.008c.365.054.728.054 1.084.008.364.054.725.054 1.081.008.363.054.724.054 1.08.008.363.054.725.054 1.081.008.363.054.724.054 1.08.008.363.053.724.053 1.08.008.363.053.724.053 1.08.007.362.054.723.054 1.077.009.364.054.728.054 1.084.008.363.053.725.054 1.08.008a4.03 4.03 0 001.08.008c.363.052.725.053 1.08.007.364.053.725.054 1.08.008.364.053.725.054 1.08.008.363.053.724.054 1.078.008a3.9 3.9 0 001.084.009c.363.053.724.053 1.08.007.363.054.724.054 1.08.008.363.054.724.054 1.08.008.363.054.725.054 1.081.008.363.054.724.054 1.08.008.363.053.725.053 1.08.007a3.92 3.92 0 001.076.009c.364.054.728.054 1.084.008.363.053.725.054 1.08.008.363.053.726.054 1.081.008a4.03 4.03 0 001.08.008c.364.052.725.053 1.08.007.364.053.725.054 1.08.008.364.053.725.054 1.081.008.362.053.723.054 1.077.008.364.054.727.054 1.084.009.363.053.724.053 1.08.007.363.054.724.054 1.08.008.363.054.724.054 1.08.008.363.054.725.054 1.081.008a3.91 3.91 0 001.08.008c.362.053.724.053 1.08.007.362.054.722.054 1.075.009.366.054.728.054 1.085.008.363.053.725.054 1.081.008.364.053.725.054 1.08.008.364.052.725.053 1.081.007.363.053.724.054 1.08.008.363.053.724.054 1.08.008.362.053.722.054 1.077.008a3.9 3.9 0 001.084.009c.363.053.724.053 1.08.008.363.053.724.053 1.08.007a3.91 3.91 0 001.08.008 3.91 3.91 0 001.08.008c.363.054.726.054 1.081.008.363.053.725.053 1.08.008a3.96 3.96 0 001.076.008c.365.054.728.054 1.084.008.364.053.725.054 1.08.008.364.053.726.054 1.082.008.336.049.67.049 1 .013.054.03.117.061.187.091h21.831c.097-.048.188-.096.248-.144-13.494-.28 3.091-.555.008-.828 6.898-.279-2.21-.555.009-.826 6.675-.281 2.625-.558.009-.833 5.55-.278 3.543-.555.007-.829-8.339-.278-5.422-.556.008-.829 3.629-.278-3.139-.555.008-.829-9.122-.278-4.332-.556.008-.828 1.271-.278-13.35-.557.008-.829-3.729-.277-5.663-.555.007-.826 9.575-.28 3.881-.558.008-.832-2.07-.279-7.39-.557.008-.829 9.195-.279 4.993-.556.008-.829 11.805-.279 8.951-.557.008-.828-14.139-.279 13.664-.557.007-.83 3.622-.279-11.197-.556.008-.828-2.513-.279-6.704-.556.008-.83.582-.277 1.35-.555.009-.825-10.302-.28-9.196-.559.009-.832-3.621-.279 7.338-.557.007-.829-6.41-.279 2.573-.556.008-.829-5.887-.28-3.676-.557.008-.83 11.136-.278-11.474-.556.008-.829 20.103-.278 10.642-.556.008-.828z"></path>
</svg>