<svg version="1.1" id="fi_258325" xmlns="http://www.w3.org/2000/svg"
  xmlns:xlink="http://www.w3.org/1999/xlink" x="0px" y="0px" viewBox="0 0 512.001 512.001"
  style="enable-background:new 0 0 512.001 512.001;" xml:space="preserve">
  <polygon style="fill:#FF4181;" points="11.584,327.241 11.584,360.834 118.154,388.635 141.321,344.037 118.154,299.44 "></polygon>
  <g>
    <polygon style="fill:#FF80AB;" points="118.154,290.752 118.154,397.322 176.011,397.322 199.178,344.037 176.011,290.752 	"></polygon>
    <polygon style="fill:#FF80AB;" points="500.416,290.752 442.559,290.752 419.392,344.037 442.559,397.322 500.416,397.322 	"></polygon>
  </g>
  <rect x="176.014" y="290.752" style="fill:#FF4181;" width="266.541" height="106.57"></rect>
  <polygon style="fill:#85C250;" points="500.416,184.761 500.416,151.169 393.846,123.368 370.679,167.965 393.846,212.562 "></polygon>
  <g>
    <polygon style="fill:#C9D467;" points="393.846,221.25 393.846,114.68 335.989,114.68 312.822,167.965 335.989,221.25 	"></polygon>
    <polygon style="fill:#C9D467;" points="11.584,221.25 69.441,221.25 92.608,167.965 69.441,114.68 11.584,114.68 	"></polygon>
  </g>
  <rect x="69.441" y="114.68" style="fill:#85C250;" width="266.541" height="106.57"></rect>
  <g>
    <path style="fill:#01121C;" d="M503.37,141.298l-97.575-25.734c-0.396-6.037-5.407-10.817-11.546-10.817H11.584
      C5.187,104.747,0,109.934,0,116.331v105.583c0,6.397,5.187,11.584,11.584,11.584H394.25c6.138,0,11.148-4.778,11.546-10.817
      l97.575-25.734c5.086-1.34,8.63-5.94,8.63-11.2v-33.249C512,147.238,508.455,142.639,503.37,141.298z M325.5,127.915v82.416H80.334
      v-82.416H325.5z M23.167,127.915h33.999v82.416H23.167V127.915z M488.833,176.823l-82.998,21.89v-25.215
      c0-6.397-5.187-11.584-11.584-11.584c-6.397,0-11.584,5.187-11.584,11.584v36.834h-33.999v-82.416h33.999v10.583
      c0,6.397,5.187,11.584,11.584,11.584c6.053,0,11.014-4.644,11.532-10.562l83.051,21.904V176.823z"></path>
    <path style="fill:#01121C;" d="M500.416,278.504H117.75c-6.138,0-11.148,4.778-11.545,10.817L8.63,315.054
      c-5.085,1.341-8.63,5.94-8.63,11.2v33.249c0,5.26,3.545,9.86,8.63,11.2l97.575,25.734c0.396,6.037,5.407,10.817,11.545,10.817
      h382.666c6.397,0,11.584-5.187,11.584-11.584V290.087C512,283.69,506.813,278.504,500.416,278.504z M431.666,301.671v82.416H186.5
      v-82.416H431.666z M117.75,346.861c-6.397,0-11.584,5.187-11.584,11.584v14.023l-82.998-21.89v-15.401l82.998-21.89v10.157
      c0,6.397,5.187,11.584,11.584,11.584s11.584-5.187,11.584-11.584V301.67h33.999v82.416h-33.999v-25.642
      C129.333,352.049,124.147,346.861,117.75,346.861z M488.833,384.087h-33.999v-82.416h33.999V384.087z"></path>
  </g>
  <g>
  </g>
  <g>
  </g>
  <g>
  </g>
  <g>
  </g>
  <g>
  </g>
  <g>
  </g>
  <g>
  </g>
  <g>
  </g>
  <g>
  </g>
  <g>
  </g>
  <g>
  </g>
  <g>
  </g>
  <g>
  </g>
  <g>
  </g>
  <g>
  </g>
  </svg>