<svg version="1.1" id="fi_493466" xmlns="http://www.w3.org/2000/svg"
  xmlns:xlink="http://www.w3.org/1999/xlink" x="0px" y="0px" viewBox="0 0 511.998 511.998"
  style="enable-background:new 0 0 511.998 511.998;" xml:space="preserve">
  <circle style="fill:#FFF0BD;" cx="264.017" cy="87.677" r="40.077"></circle>
  <path style="fill:#FFE795;" d="M280.045,119.74c-22.134,0-40.077-17.944-40.077-40.077c0-12.452,5.679-23.578,14.589-30.929
    c-17.568,4.252-30.62,20.07-30.62,38.944c0,22.134,17.944,40.077,40.077,40.077c9.682,0,18.562-3.434,25.488-9.149
    C286.469,119.341,283.304,119.74,280.045,119.74z"></path>
  <g>
    <path style="fill:#FFE17A;" d="M408.292,111.725c17.707,0,32.062-14.355,32.062-32.062c0,17.707,14.355,32.062,32.062,32.062
      c-17.707,0-32.062,14.355-32.062,32.062C440.353,126.079,425.999,111.725,408.292,111.725z"></path>
    <path style="fill:#FFE17A;" d="M376.23,368.218c17.707,0,32.062-14.355,32.062-32.062c0,17.707,14.355,32.062,32.062,32.062
      c-17.707,0-32.062,14.355-32.062,32.062C408.292,382.573,393.937,368.218,376.23,368.218z"></path>
    <path style="fill:#FFE17A;" d="M71.644,304.095c17.707,0,32.062-14.355,32.062-32.062c0,17.707,14.355,32.062,32.062,32.062
      c-17.707,0-32.062,14.355-32.062,32.062C103.706,318.449,89.351,304.095,71.644,304.095z"></path>
    <path style="fill:#FFE17A;" d="M47.598,55.617c22.134,0,40.077-17.944,40.077-40.077c0,22.134,17.944,40.077,40.077,40.077
      c-22.134,0-40.077,17.944-40.077,40.077C87.675,73.559,69.732,55.617,47.598,55.617z"></path>
  </g>
  <ellipse style="fill:#FF6BB5;" cx="47.601" cy="227.146" rx="24.046" ry="19.237"></ellipse>
  <path style="fill:#FA3EAF;" d="M47.598,231.956c-10.09,0-18.724-4.975-22.292-12.023c-1.128,2.228-1.754,4.662-1.754,7.214
    c0,10.624,10.766,19.237,24.046,19.237s24.046-8.613,24.046-19.237c0-2.552-0.626-4.986-1.754-7.214
    C66.322,226.981,57.688,231.956,47.598,231.956z"></path>
  <ellipse style="fill:#FF6BB5;" cx="119.74" cy="196.687" rx="24.046" ry="19.237"></ellipse>
  <path style="fill:#FA3EAF;" d="M119.737,201.898c-10.186,0-18.885-5.069-22.39-12.224c-1.065,2.174-1.656,4.538-1.656,7.013
    c0,10.624,10.766,19.237,24.046,19.237c13.281,0,24.046-8.613,24.046-19.237c0-2.476-0.591-4.839-1.656-7.013
    C138.623,196.829,129.922,201.898,119.737,201.898z"></path>
  <ellipse style="fill:#FF6BB5;" cx="392.264" cy="268.826" rx="24.046" ry="19.237"></ellipse>
  <path style="fill:#FA3EAF;" d="M392.261,274.037c-10.186,0-18.885-5.069-22.39-12.224c-1.065,2.174-1.656,4.538-1.656,7.014
    c0,10.624,10.766,19.237,24.046,19.237s24.046-8.613,24.046-19.237c0-2.476-0.591-4.839-1.656-7.014
    C411.147,268.968,402.447,274.037,392.261,274.037z"></path>
  <ellipse style="fill:#FF6BB5;" cx="464.403" cy="238.367" rx="24.046" ry="19.237"></ellipse>
  <path style="fill:#FA3EAF;" d="M464.4,244.58c-10.423,0-19.294-5.306-22.631-12.724c-0.915,2.034-1.416,4.226-1.416,6.513
    c0,10.624,10.766,19.237,24.046,19.237c13.281,0,24.046-8.613,24.046-19.237c0-2.286-0.501-4.479-1.416-6.513
    C483.694,239.274,474.823,244.58,464.4,244.58z"></path>
  <path style="fill:#FFF0BD;" d="M387.341,7.906c-8.643-1.921-17.206,3.529-19.127,12.171l-22.652,67.581
    c0,0-49.487,56.128-49.479,56.128h-72.147l-24.046-48.093l22.4-67.069c2.799-8.399-1.739-17.478-10.139-20.277
    c-8.398-2.8-17.479,1.739-20.277,10.139l-23.224,69.193c-1.186,3.558-1.087,7.418,0.28,10.911l38.975,85.274v80.154l-48.093,104.2
    l-31.105,116.342c-2.147,8.59,3.075,17.293,11.664,19.44c1.305,0.326,2.613,0.482,3.9,0.482c7.183,0,13.718-4.863,15.54-10.148
    l40.077-118.103l40.077-88.17h16.031c0,0,5.409,84.612,5.855,88.17l50.253,114.204c1.014,8.112,7.918,14.045,15.886,14.045
    c0.663,0,1.335-0.041,2.009-0.126c8.786-1.098,15.017-9.11,13.919-17.894l-39.829-118.243c0,0-9.873-104.2-8.015-120.231
    c0-8.015,8.015-64.123,8.015-64.123l67.443-76.835c2.156-2.155,3.653-4.881,4.314-7.858l23.665-72.139
    C401.435,18.389,395.984,9.826,387.341,7.906z"></path>
  <circle style="fill:#676779;" cx="296.079" cy="47.6" r="16.031"></circle>
  <path style="fill:#7D7D8C;" d="M264.014,47.601c-22.134,0-40.077,17.944-40.077,40.077h80.154
    C304.091,65.544,286.149,47.601,264.014,47.601z"></path>
  <path style="fill:#676779;" d="M272.03,48.404c-2.59-0.526-5.27-0.804-8.015-0.804c-22.134,0-40.077,17.944-40.077,40.077h16.031
    C239.968,68.289,253.737,52.118,272.03,48.404z"></path>
  <g>
    <polygon style="fill:#9D5CAD;" points="207.906,183.863 312.107,175.848 304.091,247.987 336.153,352.187 159.814,344.172 
      199.891,256.002 	"></polygon>
    <polygon style="fill:#9D5CAD;" points="228.855,182.251 207.906,183.863 199.891,256.002 159.814,344.172 187.121,345.413 
      223.937,256.002 	"></polygon>
  </g>
  <path d="M400.777,111.725c0,4.151,3.363,7.514,7.514,7.514c13.536,0,24.547,11.011,24.547,24.547c0,4.151,3.363,7.514,7.514,7.514
    c4.151,0,7.514-3.363,7.514-7.514c0-13.536,11.011-24.547,24.547-24.547c4.151,0,7.514-3.363,7.514-7.514s-3.363-7.514-7.514-7.514
    c-13.536,0-24.547-11.011-24.547-24.547c0-4.151-3.363-7.514-7.514-7.514c-4.151,0-7.514,3.363-7.514,7.514
    c0,13.536-11.011,24.547-24.547,24.547C404.142,104.21,400.777,107.574,400.777,111.725z M440.353,102.84
    c2.472,3.409,5.476,6.412,8.884,8.884c-3.409,2.472-6.412,5.476-8.884,8.884c-2.472-3.409-5.476-6.412-8.884-8.884
    C434.878,109.253,437.883,106.249,440.353,102.84z"></path>
  <path d="M440.353,360.703c-13.536,0-24.547-11.011-24.547-24.547c0-4.151-3.363-7.514-7.514-7.514c-4.151,0-7.514,3.363-7.514,7.514
    c0,13.536-11.011,24.547-24.547,24.547c-4.151,0-7.514,3.363-7.514,7.514s3.363,7.514,7.514,7.514
    c13.536,0,24.547,11.011,24.547,24.547c0,4.151,3.363,7.514,7.514,7.514c4.151,0,7.514-3.363,7.514-7.514
    c0-13.536,11.011-24.547,24.547-24.547c4.151,0,7.514-3.363,7.514-7.514S444.504,360.703,440.353,360.703z M408.292,377.102
    c-2.472-3.409-5.476-6.412-8.884-8.884c3.409-2.472,6.412-5.476,8.884-8.884c2.472,3.409,5.476,6.412,8.884,8.884
    C413.767,370.69,410.763,373.693,408.292,377.102z"></path>
  <path d="M143.282,304.095c0-4.151-3.364-7.514-7.514-7.514c-13.535,0-24.547-11.011-24.547-24.547c0-4.151-3.364-7.514-7.514-7.514
    c-4.15,0-7.514,3.363-7.514,7.514c0,13.536-11.012,24.547-24.547,24.547c-4.15,0-7.514,3.363-7.514,7.514
    c0,4.151,3.364,7.514,7.514,7.514c13.535,0,24.547,11.011,24.547,24.547c0,4.151,3.364,7.514,7.514,7.514
    c4.15,0,7.514-3.363,7.514-7.514c0-13.536,11.012-24.547,24.547-24.547C139.917,311.609,143.282,308.245,143.282,304.095z
     M103.706,312.979c-2.472-3.409-5.475-6.412-8.884-8.884c3.409-2.472,6.412-5.476,8.884-8.884c2.472,3.409,5.475,6.412,8.884,8.884
    C109.181,306.566,106.178,309.57,103.706,312.979z"></path>
  <path d="M47.598,63.131c17.955,0,32.563,14.607,32.563,32.563c0,4.151,3.364,7.514,7.514,7.514c4.15,0,7.514-3.363,7.514-7.514
    c0-17.956,14.608-32.563,32.563-32.563c4.15,0,7.514-3.363,7.514-7.514s-3.364-7.514-7.514-7.514
    c-17.955,0-32.563-14.607-32.563-32.563c0-4.151-3.364-7.514-7.514-7.514c-4.15,0-7.514,3.363-7.514,7.514
    c0,17.956-14.608,32.563-32.563,32.563c-4.15,0-7.514,3.363-7.514,7.514S43.448,63.131,47.598,63.131z M87.675,41.182
    c3.715,5.784,8.65,10.719,14.435,14.434c-5.785,3.715-10.72,8.65-14.435,14.434c-3.715-5.784-8.65-10.719-14.435-14.434
    C79.026,51.901,83.961,46.967,87.675,41.182z"></path>
  <path d="M79.159,227.147c0-0.902-0.054-1.793-0.158-2.673c0.103-0.496,0.158-1.009,0.158-1.535v-65.721l57.11-19.037v35.731
    c-4.811-2.518-10.474-3.976-16.532-3.976c-17.402,0-31.561,12.001-31.561,26.751s14.158,26.751,31.561,26.751
    s31.561-12.001,31.561-26.751c0-0.38-0.015-0.756-0.034-1.132c0.02-0.221,0.034-0.445,0.034-0.671v-67.129
    c0-2.416-1.161-4.684-3.121-6.096c-1.96-1.413-4.478-1.796-6.77-1.033l-72.139,24.046c-3.069,1.023-5.138,3.894-5.138,7.129v52.569
    c-4.811-2.518-10.474-3.976-16.532-3.976c-17.402,0-31.561,12.001-31.561,26.751s14.158,26.751,31.561,26.751
    S79.159,241.898,79.159,227.147z M119.737,208.411c-8.961,0-16.532-5.368-16.532-11.723s7.571-11.723,16.532-11.723
    s16.532,5.368,16.532,11.723S128.698,208.411,119.737,208.411z M47.598,238.869c-8.961,0-16.532-5.368-16.532-11.723
    s7.571-11.723,16.532-11.723s16.532,5.368,16.532,11.723S56.559,238.869,47.598,238.869z"></path>
  <path d="M495.96,169.435c0-2.416-1.161-4.684-3.12-6.096c-1.96-1.412-4.478-1.796-6.771-1.033l-72.139,24.046
    c-3.069,1.023-5.138,3.894-5.138,7.129v52.569c-4.811-2.518-10.474-3.976-16.532-3.976c-17.402,0-31.561,12.001-31.561,26.751
    s14.158,26.751,31.561,26.751s31.561-12.001,31.561-26.751c0-0.253-0.014-0.503-0.022-0.754c0.009-0.149,0.022-0.297,0.022-0.448
    v-68.727l57.11-19.037v35.732c-4.811-2.518-10.474-3.976-16.532-3.976c-17.402,0-31.561,12.001-31.561,26.751
    c0,14.75,14.158,26.75,31.561,26.75s31.561-12.001,31.561-26.75c0-0.599-0.032-1.192-0.078-1.782
    c0.046-0.336,0.078-0.676,0.078-1.024V169.435z M392.261,280.549c-8.961,0-16.532-5.368-16.532-11.723
    c0-6.354,7.571-11.723,16.532-11.723s16.532,5.368,16.532,11.723C408.793,275.181,401.223,280.549,392.261,280.549z M464.4,250.09
    c-8.961,0-16.532-5.367-16.532-11.722s7.571-11.723,16.532-11.723c8.961,0,16.532,5.368,16.532,11.723S473.362,250.09,464.4,250.09z
    "></path>
  <path d="M351.042,484.062l-39.55-117.416c-0.125-1.335-0.39-4.162-0.748-8.092l25.068,1.139c5.103,0.218,9.03-4.818,7.523-9.717
    l-8.472-27.784c-1.221-3.966-5.422-6.196-9.392-4.972c-3.967,1.22-6.193,5.425-4.972,9.392l5.333,17.584l-154.581-7.028
    l19.256-42.363l115.68-14.46l5.074,15.739c1.221,3.966,5.421,6.196,9.392,4.972c3.967-1.22,6.193-5.425,4.972-9.392l-13.892-44.398
    l7.724-69.516l57.58-65.598c2.977-3.044,5.064-6.819,6.058-10.958l23.56-71.821c0.077-0.233,0.142-0.472,0.195-0.712
    c2.817-12.673-5.203-25.276-17.877-28.092c-12.531-2.783-24.996,5.028-27.995,17.458l-22.055,65.802l-46.233,52.443h-64.107
    L208.004,95.12l21.415-64.118c1.989-5.966,1.535-12.35-1.277-17.976c-2.812-5.625-7.648-9.819-13.613-11.807
    c-5.964-1.986-12.349-1.535-17.976,1.277c-5.626,2.812-9.819,7.648-11.803,13.598l-23.228,69.206
    c-1.739,5.215-1.593,10.907,0.41,16.026c0.051,0.13,0.105,0.26,0.163,0.386l38.111,83.385l-7.654,68.885l-39.581,87.08
    c-1.032,2.271-0.871,4.905,0.432,7.034c1.251,2.045,3.403,3.351,5.781,3.552l-6.195,13.422c-0.18,0.39-0.326,0.794-0.437,1.207
    l-31.105,116.343c-0.01,0.04-0.021,0.079-0.03,0.119c-3.149,12.594,4.537,25.403,17.135,28.553c1.877,0.469,3.801,0.706,5.72,0.706
    c9.92,0,19.656-6.54,22.656-15.247l39.957-117.749l11.209-24.659l34.787,1.581c1.306,19.56,1.447,20.691,1.515,21.242
    c0.09,0.722,0.285,1.428,0.578,2.094l49.853,113.296c1.171,6.623,5.237,12.534,10.982,16.026c6.183,3.757,13.915,4.437,20.672,1.847
    c3.986-1.527,7.497-4.156,10.116-7.523c3.861-4.965,5.558-11.135,4.778-17.376C351.314,485.03,351.202,484.538,351.042,484.062z
     M197.807,278.747l8.925-19.636c0.329-0.722,0.54-1.491,0.627-2.279l2.733-24.599l88.063,22.016l3.542,11.512L197.807,278.747z
     M237.82,151.301h42.726v19.438l-48.519,3.732L237.82,151.301z M303.636,184.037l-6.064,54.574l-85.805-21.451l2.921-26.281
    L303.636,184.037z M301.77,148.699c1.048-1.194,32.722-37.121,49.43-56.071c0.663-0.752,1.169-1.63,1.488-2.581l22.652-67.581
    c0.083-0.249,0.153-0.502,0.21-0.758c0.493-2.221,1.822-4.116,3.741-5.337c1.919-1.222,4.199-1.623,6.419-1.129
    c2.221,0.493,4.116,1.823,5.337,3.741c1.165,1.831,1.584,3.99,1.191,6.114l-23.53,71.733c-0.077,0.233-0.142,0.472-0.195,0.712
    c-0.353,1.584-1.144,3.027-2.29,4.173c-0.115,0.115-0.228,0.234-0.336,0.358l-58.458,66.599l-11.854,0.912V151.3h0.509
    C298.283,151.301,300.354,150.338,301.77,148.699z M175.776,90.069l23.229-69.208c0.719-2.157,2.235-3.906,4.27-4.923
    c2.034-1.017,4.341-1.184,6.502-0.462c2.158,0.719,3.907,2.235,4.924,4.27c1.017,2.035,1.181,4.344,0.463,6.497l-22.4,67.069
    c-0.631,1.893-0.486,3.957,0.407,5.741l24.046,48.093c1.034,2.068,2.951,3.5,5.158,3.971l-5.727,22.907
    c-0.137,0.551-0.205,1.102-0.218,1.646l-3.868,0.298l-36.694-80.283C175.202,93.877,175.17,91.885,175.776,90.069z M193.051,373.123
    c-0.103,0.227-0.195,0.459-0.275,0.694L152.71,491.887c-0.731,2.122-4.294,5.082-8.435,5.082c-0.692,0-1.393-0.087-2.077-0.258
    c-4.54-1.135-7.316-5.739-6.209-10.279l30.919-115.651l8.483-18.379l26.531,1.206L193.051,373.123z M334.736,493.677
    c-1.398,1.795-3.409,2.94-5.676,3.223c-0.353,0.044-0.711,0.066-1.067,0.066c-4.274,0-7.898-3.208-8.429-7.461
    c-0.091-0.723-0.286-1.429-0.578-2.095L269.227,374.33c-0.14-1.748-0.468-6.256-1.235-17.719l27.599,1.254
    c0.621,6.85,1.021,11.062,1.021,11.062c0.055,0.575,0.175,1.142,0.36,1.69l39.55,117.414
    C336.623,490.067,336.001,492.051,334.736,493.677z"></path>
  <path d="M216.423,87.678c0,26.241,21.35,47.592,47.592,47.592s47.592-21.35,47.592-47.592c0-6.934-1.503-13.521-4.181-19.468
    c7.366-4.083,12.196-11.955,12.196-20.609c0-12.983-10.562-23.545-23.545-23.545c-10.704,0-19.755,7.182-22.606,16.978
    c-3.057-0.618-6.219-0.947-9.455-0.947C237.773,40.087,216.423,61.436,216.423,87.678z M264.014,55.116
    c15.369,0,28.275,10.706,31.678,25.048h-63.356C235.739,65.82,248.646,55.116,264.014,55.116z M264.014,120.241
    c-15.369,0-28.275-10.706-31.678-25.048h63.356C292.29,109.535,279.383,120.241,264.014,120.241z M296.076,39.085
    c4.696,0,8.516,3.82,8.516,8.516c0,3.539-2.226,6.721-5.49,7.963c-3.31-3.613-7.174-6.707-11.448-9.165
    C288.242,42.272,291.79,39.085,296.076,39.085z"></path>
  <g>
  </g>
  <g>
  </g>
  <g>
  </g>
  <g>
  </g>
  <g>
  </g>
  <g>
  </g>
  <g>
  </g>
  <g>
  </g>
  <g>
  </g>
  <g>
  </g>
  <g>
  </g>
  <g>
  </g>
  <g>
  </g>
  <g>
  </g>
  <g>
  </g>
  </svg>