<svg id="fi_3199899" enable-background="new 0 0 512.006 512.006" height="512"
  viewBox="0 0 512.006 512.006" width="512" xmlns="http://www.w3.org/2000/svg">
  <g>
    <g>
      <path
        d="m423.357 155.581c-14.748-12.879-31.479-23.892-49.733-32.624l-11.897 8.62 28.5 113.75 11.202 2.973c41.365-10.922 54.826-63.992 21.928-92.719z"
        fill="#dbedff"></path>
      <path
        d="m384.661 356.454c-7.125-8.113-16.225-15.004-27.341-19.995-21.941-9.852-35.438-22.922-35.438-37.397 0-15.566 15.577-29.462 40.404-39.504l11.338-11.258-41.319-136.056-20.827-15.334-14.57 4.609c-130.449-13.408-243.264 79.421-243.264 197.542 0 139.689 154.49 235.775 297.285 185.494 28.977-10.203 46.286-33.487 51.467-59.07l8.415-7.241-10.667-58.333z"
        fill="#dbedff"></path>
      <path
        d="m114.311 299.061c0-105.569 90.116-190.925 202.393-198.304l-5.226-3.847-14.57 4.609c-130.449-13.408-243.264 79.421-243.264 197.542 0 123.957 121.653 213.563 248.833 197.043-102.615-13.314-188.166-93.096-188.166-197.043z"
        fill="#b5dcff"></path>
      <circle cx="166.913" cy="208.051" fill="#f87c68" r="32.658"></circle>
      <circle cx="255.329" cy="166.996" fill="#ffd064" r="31.682"></circle>
      <circle cx="183.034" cy="399.299" fill="#5291d9" r="31.682"></circle>
      <circle cx="275.303" cy="428.906" fill="#95d6a4" r="31.682"></circle>
      <circle cx="130.68" cy="306.925" fill="#ff94d5" r="38.225"></circle>
      <path
        d="m166.763 208.051c0-12.117 6.604-22.684 16.404-28.321-4.788-2.754-10.334-4.337-16.254-4.337-18.036 0-32.658 14.621-32.658 32.658s14.621 32.658 32.658 32.658c5.92 0 11.466-1.583 16.254-4.337-9.8-5.637-16.404-16.205-16.404-28.321z"
        fill="#ec625e"></path>
      <path
        d="m256.155 166.996c0-11.555 6.188-21.661 15.428-27.195-4.752-2.847-10.311-4.487-16.254-4.487-17.498 0-31.682 14.185-31.682 31.682s14.184 31.682 31.682 31.682c5.943 0 11.501-1.64 16.254-4.487-9.24-5.534-15.428-15.641-15.428-27.195z"
        fill="#ffc250"></path>
      <path
        d="m183.86 399.299c0-11.555 6.188-21.661 15.428-27.196-4.753-2.847-10.311-4.486-16.254-4.486-17.497 0-31.682 14.184-31.682 31.682s14.185 31.682 31.682 31.682c5.943 0 11.501-1.64 16.254-4.486-9.24-5.535-15.428-15.642-15.428-27.196z"
        fill="#2e82d4"></path>
      <path
        d="m276.128 428.906c0-11.555 6.188-21.661 15.428-27.196-4.752-2.847-10.311-4.487-16.254-4.487-17.498 0-31.682 14.185-31.682 31.682s14.184 31.682 31.682 31.682c5.943 0 11.501-1.64 16.254-4.486-9.24-5.534-15.428-15.64-15.428-27.195z"
        fill="#78c2a4"></path>
      <path
        d="m124.963 306.925c0-15.298 8.99-28.49 21.971-34.6-4.933-2.322-10.44-3.625-16.254-3.625-21.111 0-38.225 17.114-38.225 38.225s17.114 38.225 38.225 38.225c5.813 0 11.321-1.304 16.254-3.626-12.982-6.109-21.971-19.301-21.971-34.599z"
        fill="#ff72c7"></path>
      <path
        d="m377.121 59.229c-7.364-27.086-32.414-26.75-55.334-49.56-3.985-3.966-10.356-2.234-11.784 3.204-8.215 31.275-29.987 43.669-22.622 70.755 5.927 21.799 25.348 31.502 36.206 35.317l6.141 5.007 32-7.5 2.054-8.435c7.432-8.789 19.266-26.99 13.339-48.788z"
        fill="#e39b74"></path>
      <path
        d="m353.009 115.278c-10.858-3.815-30.279-13.519-36.206-35.317-6.375-23.446 9.076-35.892 18.674-59.095-4.545-3.091-9.158-6.688-13.69-11.198-3.985-3.966-10.356-2.234-11.784 3.204-8.215 31.275-29.987 43.669-22.622 70.755 5.927 21.799 25.348 31.502 36.206 35.317l6.141 5.007 26.346-6.175z"
        fill="#dd8858"></path>
      <path
        d="m371.516 115.203c-1.45-5.333-6.949-8.482-12.283-7.031l-31.646 8.604c-5.333 1.45-8.482 6.949-7.031 12.283l16.12 59.292 5.802 4.227 43.333-10.333 1.826-7.749z"
        fill="#477b9e"></path>
      <path
        d="m363.886 182.825-17.198-63.255c-.796-2.927-.286-5.895 1.163-8.304l-20.264 5.509c-5.333 1.45-8.482 6.949-7.031 12.283l16.12 59.292 5.802 4.227 26.214-6.251z"
        fill="#3f6d8e"></path>
      <path
        d="m458.223 479.003c-.346-33.642-5.579-67.054-15.534-99.191l-54.589-174.002-7.122-4.983-27.058 6.125-1.787 8.637 41.031 177.688c7.687 32.753 20.093 64.216 36.829 93.401l6.91 12.051c2.602 4.537 7.938 6.745 12.985 5.373s8.531-5.979 8.477-11.209z"
        fill="#ffd064"></path>
      <path
        d="m453.518 476.678c-16.736-29.186-29.142-60.648-36.829-93.401l-41.031-177.688.772-3.732-22.51 5.095-1.787 8.637 41.031 177.688c7.687 32.753 20.093 64.216 36.829 93.401l6.91 12.051c2.602 4.537 7.938 6.745 12.985 5.373s8.531-5.979 8.477-11.209l-.081-7.903z"
        fill="#ffc250"></path>
      <path
        d="m386.141 174.754-48.043 13.062c-4.534 1.233-7.21 5.907-5.977 10.44l3.534 12.997c1.233 4.534 5.907 7.209 10.441 5.977l48.043-13.062c4.534-1.233 7.209-5.907 5.977-10.44l-3.534-12.997c-1.233-4.533-5.908-7.209-10.441-5.977z"
        fill="#5895b7"></path>
      <path
        d="m365.821 203.25-3.773-13.877c-.868-3.194.088-6.447 2.225-8.673l-26.175 7.117c-4.534 1.233-7.21 5.907-5.977 10.44l3.534 12.997c1.233 4.533 5.907 7.209 10.44 5.977l27.153-7.383c-3.455-.517-6.451-3.01-7.427-6.598z"
        fill="#477b9e"></path>
    </g>
    <g>
      <path
        d="m166.911 248.208c22.143 0 40.157-18.015 40.157-40.158s-18.015-40.158-40.157-40.158c-22.144 0-40.158 18.015-40.158 40.158s18.014 40.158 40.158 40.158zm0-65.316c13.872 0 25.157 11.286 25.157 25.158s-11.285 25.158-25.157 25.158-25.158-11.286-25.158-25.158 11.286-25.158 25.158-25.158z"></path>
      <path
        d="m255.327 206.177c21.604 0 39.182-17.577 39.182-39.182s-17.577-39.182-39.182-39.182-39.183 17.577-39.183 39.182 17.578 39.182 39.183 39.182zm0-63.364c13.334 0 24.182 10.848 24.182 24.182s-10.848 24.182-24.182 24.182-24.183-10.848-24.183-24.182 10.849-24.182 24.183-24.182z"></path>
      <path
        d="m183.032 438.48c21.604 0 39.182-17.577 39.182-39.182s-17.577-39.182-39.182-39.182-39.183 17.577-39.183 39.182 17.578 39.182 39.183 39.182zm0-63.363c13.334 0 24.182 10.848 24.182 24.182s-10.848 24.182-24.182 24.182-24.183-10.848-24.183-24.182 10.849-24.182 24.183-24.182z"></path>
      <path
        d="m275.301 468.088c21.604 0 39.182-17.577 39.182-39.182s-17.577-39.182-39.182-39.182-39.183 17.577-39.183 39.182 17.577 39.182 39.183 39.182zm0-63.364c13.334 0 24.182 10.848 24.182 24.182s-10.848 24.182-24.182 24.182-24.183-10.848-24.183-24.182 10.849-24.182 24.183-24.182z"></path>
      <path
        d="m84.953 306.925c0 25.213 20.512 45.725 45.725 45.725s45.725-20.512 45.725-45.725-20.512-45.725-45.725-45.725-45.725 20.512-45.725 45.725zm45.725-30.725c16.941 0 30.725 13.783 30.725 30.725s-13.783 30.725-30.725 30.725-30.725-13.783-30.725-30.725 13.783-30.725 30.725-30.725z"></path>
      <path
        d="m46.142 299.061c0 113.139 97.467 199.138 211.203 206.066.155.009.31.014.463.014 3.934 0 7.237-3.065 7.479-7.044.252-4.134-2.896-7.69-7.03-7.942-110.532-6.733-197.115-90.671-197.115-191.094 0-113.779 108.333-201.572 232.132-190.358 5.632 5.869 12.562 10.573 19.814 14.016-.595 2.741-.491 5.665.229 8.308l14.844 54.597c-3.456 4.039-4.657 9.538-3.278 14.601l3.533 12.998c2.149 7.917 10.06 12.981 18.146 11.579l7.006 30.339c-25.334 11.541-39.187 26.996-39.187 43.921 0 16.985 14.158 32.697 39.866 44.239 9.142 4.104 17.053 9.729 23.542 16.732 8.25 36.216 10.787 47.707 16.834 65.913-5.598 24.418-22.336 43.136-46.187 51.535-18.198 6.408-37.138 10.513-56.293 12.201-4.126.364-7.177 4.003-6.813 8.129.363 4.127 4.016 7.172 8.129 6.813 20.404-1.798 40.578-6.17 59.959-12.995 22.063-7.769 39.483-23.509 49.307-43.805 10.03 24.608 19.172 39.815 27.671 54.636 4.296 7.495 13.12 11.147 21.459 8.88 8.337-2.267 14.097-9.883 14.009-18.523-.258-25.124.404-62.891-17.248-119.162-1.24-3.952-5.447-6.151-9.401-4.911-3.952 1.24-6.15 5.449-4.911 9.401 16.57 52.816 16.284 87.857 16.561 114.826.02 1.816-1.191 3.417-2.944 3.894-1.75.477-3.608-.291-4.512-1.867-31.556-55.031-35.532-71.354-51.44-140.232 0 0-30.904-133.833-30.904-133.834l22.039-5.992 11.17 35.604v.001l29.55 94.192c1.24 3.952 5.446 6.151 9.401 4.911 3.952-1.24 6.151-5.449 4.911-9.401l-27.351-87.183c41.323-16.743 52.882-72.241 17.505-103.134-14.497-12.659-30.748-23.457-48.312-32.184l-1.227-4.512c-.749-2.758-2.134-5.231-4.019-7.272 7.571-11.179 15.125-28.469 9.624-48.703-5.281-19.421-18.264-26.914-32.008-34.846-8.336-4.811-16.956-9.786-25.272-18.063-8.081-8.039-21.429-4.428-24.33 6.614-2.98 11.349-7.896 20.004-12.648 28.374-7.923 13.953-17.572 30.191-7.352 53.648-127.314-5.481-236.604 86.862-236.604 206.075zm326.105 36.976c-3.739-2.397-7.688-4.549-11.856-6.42-19.708-8.849-31.011-19.986-31.011-30.556 0-10.062 9.958-20.399 27.638-28.975zm46.175-174.807c26.551 23.185 17.988 64.539-12.139 77.489-7.747-24.692-5.646-17.997-8.717-27.786 7.845-3.003 11.893-11.41 9.784-19.172l-3.533-12.998c-1.385-5.089-5.228-9.21-10.221-10.931l-8.212-30.203c11.824 6.837 22.889 14.738 33.038 23.601zm-30.315 20.761.003-.001c.482-.13 1.076.134 1.231.708l3.533 12.997c.146.536-.172 1.09-.707 1.235-10.036 2.729-38.893 10.574-48.043 13.062-.524.146-1.086-.162-1.235-.707l-3.533-12.998c-.155-.573.238-1.108.707-1.235zm-9.715-12.903-36.485 9.919-14.115-51.917c-.365-1.335.472-2.726 1.762-3.078l31.646-8.604c1.229-.337 2.689.334 3.077 1.762 4.642 17.075 1.386 5.099 14.115 51.918zm-75.25-122.341c4.882-8.596 10.4-18.315 13.913-31.21 9.524 9.325 19.222 14.921 27.796 19.87 12.408 7.161 21.373 12.334 25.031 25.79 4.471 16.442-3.226 30.778-9.602 39.195-.966.087-2.097.293-3.017.543l-31.646 8.604c-.965.262-2.071.679-2.873 1.058-13.267-5.445-24.335-14.98-28.129-28.936-3.658-13.456 1.453-22.457 8.527-34.914z"></path>
    </g>
  </g>
</svg>