<svg id="fi_2708780" enable-background="new 0 0 512 512" height="512" viewBox="0 0 512 512"
  width="512" xmlns="http://www.w3.org/2000/svg">
  <g>
    <g>
      <path
        d="m493.21 96.15c-11.71-11.72-30.71-11.72-42.42 0-15.231 15.238-24.601 22.708-25.743 23.851.004-.004-.005.005-.032.032-.01.01-.019.02-.011.011l-415.004.956v300h173.57c27.17 0 53.22 10.79 72.43 30 19.21-19.21 45.26-30 72.43-30h173.57v-303.64c0-7.68-2.93-15.36-8.79-21.21z"
        fill="#ff7b79"></path>
      <path
        d="m315.18 81.14c-34.15 5.69-59.18 35.24-59.18 69.86 0-34.62-25.03-64.17-59.18-69.86l-126.82-20.14v300l126.82 20.14c34.15 5.69 59.18 35.24 59.18 69.86 0-34.62 25.03-64.17 59.18-69.86l126.82-20.14v-300z"
        fill="#fff5f5"></path>
      <path d="m472 159.79c-.291.291-85.457 85.447-85.61 85.6l-42.42-42.42 85.61-85.6z"
        fill="#91def5"></path>
      <path d="m386.39 245.39-77.88 35.46 35.46-77.88z" fill="#ffda8f"></path>
    </g>
    <g>
      <path
        d="m452 82.714v-21.714c0-2.926-1.281-5.705-3.507-7.605s-5.171-2.73-8.062-2.271l-126.895 20.152c-25.215 4.202-45.96 19.626-57.538 40.673-11.584-21.048-32.346-36.476-57.61-40.685l-126.82-20.14c-2.891-.46-5.836.37-8.062 2.271-2.224 1.9-3.506 4.679-3.506 7.605v50h-50c-5.523 0-10 4.478-10 10v300c0 5.522 4.477 10 10 10h173.57c24.69 0 47.902 9.614 65.359 27.071 1.794 1.792 4.361 2.929 7.071 2.929 2.507 0 5.15-1.01 7.071-2.929 17.457-17.457 40.668-27.071 65.359-27.071h39.141c5.522 0 10-4.478 10-10s-4.478-10-10-10h-39.141c-20.541 0-40.231 5.489-57.425 15.741 7.975-18.437 24.827-32.239 45.743-35.725l126.82-20.14c4.856-.771 8.432-4.959 8.432-9.876v-167.078c15.453-15.452 24.552-24.55 40-39.999v257.077h-39.57c-5.522 0-10 4.478-10 10s4.478 10 10 10h49.57c5.522 0 10-4.478 10-10v-303.64c0-10.694-4.164-20.74-11.716-28.277-13.309-13.321-33.268-15.075-48.284-6.369zm-65.61 148.533-28.277-28.277 71.467-71.458 28.274 28.274zm-39.295-11.009 22.026 22.026-40.439 18.413zm-267.095-147.525 115.176 18.291c29.449 4.907 50.824 30.139 50.824 59.996v246.663c-11.94-13.608-28.491-23.214-47.612-26.399l-118.388-18.801zm-60 338.287v-280h40v230c0 4.917 3.575 9.105 8.432 9.876l126.745 20.128c20.97 3.494 37.837 17.299 45.817 35.736-17.195-10.251-36.884-15.74-57.424-15.74zm412-58.537-118.464 18.813c-19.085 3.181-35.605 12.797-47.536 26.405v-246.681c0-29.857 21.374-55.089 50.748-59.984l115.252-18.303v28.085l-95.091 95.091c-.003.003-.007.006-.01.009-.772.772-1.54 1.853-2.029 2.928l-35.46 77.88c-1.729 3.796-.92 8.266 2.029 11.215 2.923 2.922 7.387 3.773 11.215 2.029l77.88-35.46c1.093-.497 2.161-1.263 2.928-2.029.003-.003.006-.007.009-.01l38.529-38.529zm54.138-220.962-14.142 14.142-28.273-28.273c19.38-19.394 12.696-12.705 14.142-14.152 7.753-7.759 20.404-7.874 28.281.01 7.806 7.792 7.82 20.457-.008 28.273z"></path>
      <circle cx="410" cy="406" r="10"></circle>
    </g>
  </g>
</svg>