<svg height="511pt" viewBox="0 0 511.99963 511" width="511pt" xmlns="http://www.w3.org/2000/svg"
  id="fi_1323431">
  <path
    d="m188.507812 254.109375-110.449218 109.882813 70.582031 70.578124.140625.140626 107.636719-107.082032zm0 0"
    fill="#6accb8"></path>
  <path
    d="m253.609375 189.011719c-47.257813-39.351563-80.558594-57-100.699219-57.800781l-22.199218 22.199218c.800781 20.140625 18.449218 53.441406 57.796874 100.699219 6.042969 7.261719 12.59375 14.839844 19.671876 22.761719l68.191406-68.191406c-7.921875-7.078126-15.5-13.628907-22.761719-19.667969zm0 0"
    fill="#d3dbe6"></path>
  <path
    d="m433.148438 37.652344-47.679688 18.800781-.257812.257813c13.617187 31.769531 38.9375 57.089843 70.707031 70.710937l.261719-.261719 18.738281-47.71875zm0 0"
    fill="#fee3c6"></path>
  <path d="m385.210938 56.710938-131.601563 132.300781 73.519531 67.910156 128.789063-129.5zm0 0"
    fill="#6accb8"></path>
  <path
    d="m502 10.5-27.082031 68.941406c-19.480469-6.96875-34.820313-22.308594-41.769531-41.789062zm0 0"
    fill="#516187"></path>
  <path
    d="m327.128906 256.921875c109.339844 109.339844 191.398438 223.046875 171.871094 242.578125-19.53125 19.53125-133.242188-62.53125-242.582031-171.871094-18.226563-18.226562-34.269531-35.136718-48.238281-50.757812l68.191406-68.191406c15.617187 13.972656 32.527344 30.011718 50.757812 48.242187zm0 0"
    fill="#f25a78"></path>
  <path
    d="m143.28125 143.78125c-33.003906 33-88.664062 16.992188-100.382812-26.851562l-32.898438-106.429688 106.429688 32.902344c43.984374 11.753906 59.769531 67.460937 26.851562 100.378906zm0 0"
    fill="#516187"></path>
  <path
    d="m148.78125 434.710938-42.542969 42.320312-.027343-.03125-70.691407-70.6875 42.539063-42.320312 70.582031 70.578124zm0 0"
    fill="#d3dbe6"></path>
  <path
    d="m106.238281 477.03125-10.878906 10.828125c-19.53125 19.519531-51.1875 19.519531-70.71875 0-19.519531-19.527344-19.519531-51.1875 0-70.71875l10.878906-10.828125 70.691407 70.6875zm0 0"
    fill="#516187"></path>
  <path
    d="m291.769531 292.269531c-3.898437 3.910157-3.898437 10.242188 0 14.140625 3.910157 3.910156 10.238281 3.910156 14.140625 0 3.910156-3.898437 3.910156-10.230468 0-14.140625-3.902344-3.898437-10.230468-3.898437-14.140625 0zm0 0"></path>
  <path
    d="m320.058594 334.703125 79.949218 79.949219c3.90625 3.902344 10.238282 3.902344 14.144532 0 3.902344-3.90625 3.902344-10.238282 0-14.144532l-79.949219-79.949218c-3.90625-3.902344-10.238281-3.902344-14.144531 0-3.90625 3.90625-3.90625 10.238281 0 14.144531zm0 0"></path>
  <path
    d="m465.488281 130.816406c.464844-1.1875 45.351563-115.472656 45.820313-116.660156 1.453125-3.703125.574218-7.917969-2.242188-10.730469-2.816406-2.8125-7.03125-3.6875-10.734375-2.226562l-116.53125 45.949219c-2.332031.917968-3.546875 2.410156-3.746093 2.578124-.027344.027344-.050782.050782-.078126.074219l-125.046874 125.714844c-35.203126-28.550781-63.917969-45.953125-85.6875-51.957031 12.710937-38.058594-9.269532-79.285156-48.035157-89.765625l-106.253906-32.84375c-3.542969-1.101563-7.402344-.140625-10.023437 2.480469-2.621094 2.621093-3.578126 6.480468-2.484376 10.023437l32.84375 106.253906c10.480469 38.753907 51.699219 60.765625 89.773438 48.046875 6.003906 21.769532 23.410156 50.480469 51.953125 85.679688-9.253906 9.203125-148.273437 147.507812-157.449219 156.636718-23.382812 23.394532-23.382812 61.464844.003906 84.863282 23.378907 23.367187 61.445313 23.398437 84.84375.015625l154.011719-153.21875c51.003907 50.359375 104.96875 96.8125 149.15625 128.304687 46.480469 33.125 71.222657 42.351563 85.28125 42.351563 7.628907 0 12.113281-2.722657 15.207031-5.8125 8.789063-8.792969 14.570313-28.777344-36.539062-100.488281-31.492188-44.1875-77.945312-98.152344-128.304688-149.15625l121.753907-122.429688c.15625-.183594 1.59375-1.359375 2.507812-3.683594zm-197.144531 57.558594 114.0625-114.667969c13.175781 23.871094 32.707031 43.390625 56.582031 56.554688l-111.902343 112.519531c-23.496094-23.195312-42.507813-40.503906-58.742188-54.40625zm-119.542969 232.214844-56.578125-56.582032 95.652344-95.160156c13.910156 16.242188 31.230469 35.265625 54.40625 58.738282zm-42.539062 42.320312-56.578125-56.578125 28.359375-28.214843 56.578125 56.578124zm102.371093-200.636718c-20.90625-23.925782-61.1875-72.667969-67.257812-103.832032 3.183594-2.265625 6.191406-4.804687 8.976562-7.589844 2.785157-2.785156 5.324219-5.792968 7.589844-8.976562 31.164063 6.070312 79.910156 46.359375 103.832032 67.257812zm190.15625-200.324219 29.0625-11.460938c7.542969 14.757813 19.480469 26.699219 34.246094 34.25l-11.429687 29.097657c-22.179688-11.710938-40.171875-29.703126-51.878907-51.886719zm70.660157 4.066406c-9.640625-5.347656-17.554688-13.261719-22.894531-22.902344l37.734374-14.878906zm-416.996094 47.960937-27.300781-88.324218c92.464844 28.578125 88.371094 27.324218 88.695312 27.410156 36.8125 9.835938 49.65625 56.359375 22.359375 83.648438-25.421875 25.425781-71.226562 17.738281-83.753906-22.734376zm-20.738281 366.816407c-15.59375-15.601563-15.59375-40.984375-.019532-56.566407l3.808594-3.789062 56.578125 56.578125-3.792969 3.773437c-15.597656 15.589844-40.980468 15.589844-56.574218.003907zm460.105468 11.527343c-4.898437 1.226563-27.085937-4.007812-79.695312-42.21875-44.984375-32.671874-97.769531-78.679687-148.632812-129.542968-15.117188-15.113282-29.039063-29.652344-41.515626-43.339844l54.738282-54.742188c13.6875 12.476563 28.226562 26.398438 43.34375 41.515626 50.863281 50.863281 96.871094 103.648437 129.539062 148.632812 38.214844 52.609375 43.453125 74.796875 42.222656 79.695312zm0 0"></path>
</svg>