<svg id="fi_8350047" enable-background="new 0 0 512 512" height="512" viewBox="0 0 512 512" width="512" xmlns="http://www.w3.org/2000/svg"><g><path d="m242.4 78.523 196.3-69.72c11.8-4.18 24.67 2 28.84 13.73 4.18 11.76-1.97 24.67-13.72 28.85-14.78 5.24-277.91 98.69-288.17 102.34-12.68-15.02-11.7-31.38 2.77-48.93l40.99-14.56z" fill="#efb899"></path><path d="m93.717 131.322c-18.274 6.476-29.77 23.515-30.061 41.838 14.872 15.422 30.758 13.028 47.25 0l54.74-19.44c-.08-16.69.871-33.039 2.775-48.931z" fill="#e4996d"></path><path d="m225.879 451.781-11.506 40.262c-2.098 7.37-8.836 12.45-16.506 12.45-9.478 0-17.169-7.691-17.169-17.169v-35.543c13.867-19.894 29.092-17.144 45.181 0z" fill="#3b5a9b"></path><path d="m338.833 451.781v35.543c0 9.478-7.691 17.169-17.169 17.169-7.671 0-14.408-5.08-16.506-12.45l-11.506-40.262c13.248-14.719 28.06-16.741 45.181 0z" fill="#3b5a9b"></path><path d="m361.424 433.458c0-23.153-18.766-41.919-41.919-41.919h-78.064c-48.064 0-53.465 18.765-53.465 41.919 0 10.121 9.036 18.324 29.87 18.324h125.254c10.116-.001 18.324-8.184 18.324-18.324z" fill="#f8ea69"></path><path d="m199.523 433.458c0-23.152 18.765-41.919 41.919-41.919h-48.947c-23.152 0-41.919 18.765-41.919 41.919 0 10.121 8.203 18.324 18.324 18.324h48.947c-10.121-.001-18.324-8.204-18.324-18.324z" fill="#f6ca56"></path><path d="m37.621 475.527c0 15.994 12.972 28.967 28.967 28.967 13.806 0 25.693-9.749 28.404-23.284l19.439-97.201c-27.098-10.458-52.901-11.854-76.81 0z" fill="#e4996d"></path><path d="m37.621 353.887v30.121h76.81l6.024-30.121c-28.881-15.284-56.622-16.844-82.834 0z" fill="#d97c41"></path><path d="m417.008 481.21c2.711 13.534 14.599 23.284 28.404 23.284 15.994 0 28.967-12.972 28.967-28.967v-91.518c-25.603-11.379-51.206-11.379-76.81 0z" fill="#e4996d"></path><path d="m391.546 353.887 6.024 30.121h76.81v-30.121c-27.612-15.73-55.223-15.73-82.834 0z" fill="#d97c41"></path><path d="m444.258 263.524c-86.736-23.736-174.672-23.119-263.715 0-7.021 18.427-2.534 33.621 14.703 45.182 82.536 22.213 165.546 21.965 249.012 0 17.626-15.061 17.626-30.122 0-45.182z" fill="#efedff"></path><path d="m67.742 263.524c-14.637 13.749-16.154 28.584 0 44.881v.301c39.165 16.05 82.124 13.849 127.503 0-5.62-14.52-10.548-29.601-14.703-45.182-38.186-17.346-75.805-17.907-112.8 0z" fill="#d4d4ff"></path><path d="m448.444 173.16c-15.879 0-266.217 0-282.235 0-16.284 29.365-15.444 59.528 14.333 90.364h263.715c41.942-31.456 26.643-19.983 30.121-22.591v-41.838c.001-14.318-11.616-25.935-25.934-25.935z" fill="#e4996d"></path><path d="m166.209 173.16c-10.283 0-92.525 0-102.653 0-14.318 0-25.934 11.617-25.934 25.934v41.838l30.121 22.591h112.8c-8.224-30.834-12.818-61-14.334-90.363z" fill="#d97c41"></path><path d="m474.379 353.887c16.637 0 30.121-13.484 30.121-30.121v-60.825c0-12.159-9.85-22.008-22.009-22.008-5.675 0-10.551 0-16.225 0-12.159 0-22.009 9.85-22.009 22.008v45.764c-29.374 0-222.234 0-249.012 0-5.292 19.009.374 34.459 20.62 45.182z" fill="#efb899"></path><path d="m67.742 308.706c0-5.292 0-39.926 0-45.764 0-12.159-9.85-22.008-22.009-22.008-5.675 0-10.551 0-16.225 0-12.159 0-22.009 9.85-22.009 22.008v60.825c0 16.637 13.484 30.121 30.121 30.121h178.244c-7.624-14.333-14.523-29.43-20.62-45.182-29.394 0-99.85 0-127.502 0z" fill="#e4996d"></path><path d="m482.491 233.433h-.612v-34.339c0-18.436-14.999-33.434-33.435-33.434h-.092l-54.632-84.979c36.507-12.964 61.783-21.939 62.566-22.215.016-.006.032-.011.048-.017 15.631-5.561 23.828-22.799 18.272-38.428-5.55-15.618-22.785-23.822-38.416-18.285l-196.3 69.721c-3.903 1.387-5.944 5.674-4.558 9.577 1.386 3.904 5.679 5.944 9.577 4.558l196.294-69.719c7.844-2.774 16.486 1.338 19.269 9.173 2.786 7.838-1.326 16.482-9.166 19.271l.001.003c-9.558 3.375-319.472 113.449-341.683 121.341h-37.548c2.808-12.437 11.85-22.915 24.153-27.27l115.69-41.09c3.903-1.387 5.944-5.674 4.558-9.577-1.388-3.904-5.68-5.945-9.577-4.558l-115.682 41.087c-18.499 6.547-31.731 23.001-34.512 42.116-15.161 3.169-26.585 16.637-26.585 32.725v34.339h-.612c-16.272 0-29.509 13.237-29.509 29.509v60.824c0 18.176 12.958 33.382 30.121 36.868v114.892c0 20.107 16.359 36.467 36.467 36.467 17.318 0 32.356-12.327 35.759-29.314l24.257-121.297h159.606c4.143 0 7.5-3.357 7.5-7.5 0-4.142-3.357-7.5-7.5-7.5-12.466 0-233.092.004-248.589.004-12.474.001-22.621-10.146-22.621-22.62v-60.824c0-8 6.509-14.509 14.509-14.509h16.225c8 0 14.509 6.509 14.509 14.509v45.764c0 4.143 3.357 7.5 7.5 7.5h376.516c4.143 0 7.5-3.357 7.5-7.5 0-5.292 0-39.926 0-45.764 0-8 6.509-14.509 14.509-14.509h16.225c8 0 14.509 6.509 14.509 14.509v60.824c0 12.474-10.147 22.621-22.621 22.621-155.999-.007-65.333-.002-153.169-.004-4.143 0-7.5 3.358-7.5 7.5 0 4.143 3.357 7.5 7.5 7.5h64.187l24.258 121.299c3.401 16.984 18.44 29.312 35.758 29.312 20.107 0 36.467-16.359 36.467-36.467v-114.893c17.16-3.486 30.118-18.692 30.118-36.868v-60.824c0-16.272-13.237-29.509-29.509-29.509zm-394.852 246.304c-2.003 9.999-10.856 17.257-21.051 17.257-11.837 0-21.467-9.63-21.467-21.467v-114.14h66.185zm291.564-393.901 51.318 79.824h-276.084c55.431-19.688 155.16-55.106 224.766-79.824zm57.555 215.369h-32.069v-30.182h32.069zm-47.069 0h-32.06v-30.182h32.06zm-47.06 0h-32.06v-30.182h32.06zm-47.06 0h-32.069v-30.182h32.069zm-47.069 0h-32.069v-30.182h32.069zm-47.069 0h-32.06v-30.182h32.06zm-47.06 0h-32.06v-30.182h32.06zm-47.059 0h-32.07v-30.182h32.069v30.182zm330.273-45.181c-49.063 0-330.938 0-363.169 0-3.122-12.944-14.793-22.591-28.682-22.591h-.612v-34.339c0-10.156 8.256-18.419 18.41-18.432.004 0 .007.001.011.001.148.004 385.06-.002 384.902-.002 10.165 0 18.435 8.27 18.435 18.434v34.339h-.612c-13.89-.001-25.561 9.646-28.683 22.59zm29.294 219.503c0 11.837-9.63 21.467-21.467 21.467-10.194 0-19.048-7.258-21.05-17.255l-23.668-118.352h66.185z"></path><path d="m319.506 384.039h-127.012c-27.249 0-49.418 22.169-49.418 49.418 0 14.239 11.584 25.824 25.823 25.824h4.298v28.043c0 13.603 11.066 24.669 24.669 24.669 10.967 0 20.721-7.359 23.717-17.89l9.952-34.822h56.46l9.949 34.814c2.999 10.538 12.753 17.898 23.72 17.898 13.603 0 24.669-11.066 24.669-24.669v-28.253c12.718-1.596 22.591-12.471 22.591-25.615 0-27.248-22.169-49.417-49.418-49.417zm-112.348 105.952c-1.173 4.123-4.994 7.003-9.292 7.003-5.331 0-9.669-4.338-9.669-9.669v-28.043h27.738zm124.175-2.666c0 5.331-4.338 9.669-9.669 9.669-4.298 0-8.119-2.88-9.295-7.011l-8.774-30.701h27.738zm11.768-43.043c-31.949 0-142.284 0-174.201 0-5.968 0-10.823-4.855-10.823-10.824 0-18.979 15.439-34.418 34.418-34.418h127.012c18.979 0 34.418 15.439 34.418 34.418-.001 5.968-4.857 10.824-10.824 10.824z"></path><path d="m193.298 199.155c-4.143 0-7.5 3.357-7.5 7.5v12.049c0 4.143 3.357 7.5 7.5 7.5s7.5-3.357 7.5-7.5v-12.049c0-4.143-3.358-7.5-7.5-7.5z"></path><path d="m318.702 199.155c-4.142 0-7.5 3.357-7.5 7.5v12.049c0 4.143 3.358 7.5 7.5 7.5 4.143 0 7.5-3.357 7.5-7.5v-12.049c0-4.143-3.357-7.5-7.5-7.5z"></path><path d="m277.454 212.688c-3.125-2.721-7.861-2.396-10.582.727-5.726 6.57-15.933 6.669-21.744 0-2.723-3.122-7.46-3.447-10.582-.727s-3.448 7.459-.727 10.582c11.74 13.471 32.636 13.455 44.361 0 2.722-3.123 2.396-7.861-.726-10.582z"></path></g></svg>