<svg id="fi_2983094" enable-background="new 0 0 512.001 512.001" height="512"
  viewBox="0 0 512.001 512.001" width="512" xmlns="http://www.w3.org/2000/svg">
  <g id="XMLID_1853_">
    <g id="XMLID_1249_">
      <path id="XMLID_248_" d="m10 351.749h492v44h-492z" fill="#ccf5fc"></path>
    </g>
    <g id="XMLID_670_">
      <path id="XMLID_90_" d="m29.667 395.749h44v64h-44z" fill="#99ebfa"></path>
    </g>
    <g id="XMLID_668_">
      <path id="XMLID_88_" d="m436 395.749h44v64h-44z" fill="#99ebfa"
        transform="matrix(-1 0 0 -1 916 855.499)"></path>
    </g>
    <g id="XMLID_2324_">
      <g id="XMLID_2323_">
        <path
          d="m443.066 148.72 4.909-10.955c9.489-21.176.015-46.036-21.161-55.525-.03-.013-.06-.024-.09-.038 1.469-11.302-4.516-22.7-15.452-27.6-13.361-5.987-29.046-.01-35.034 13.352-3.764 8.4-2.796 17.716 1.759 24.966-2.679 3.066-4.957 6.572-6.709 10.481l-4.909 10.955c-9.489 21.176-.015 46.036 21.161 55.525 21.178 9.489 46.037.015 55.526-21.161z"
          fill="#ffdcd5"></path>
      </g>
      <g id="XMLID_2320_">
        <path id="XMLID_247_"
          d="m441.096 131.914 9.669-2.764c3.957-18.913-5.595-38.685-23.951-46.91-.03-.013-.06-.024-.09-.037 1.469-11.302-4.516-22.7-15.452-27.6-13.361-5.987-29.046-.01-35.034 13.352-3.764 8.4-2.797 17.716 1.759 24.966-2.679 3.066-4.957 6.573-6.709 10.481l-4.909 10.955c-.328.733-.629 1.471-.912 2.212l.013.024 28.444 12.746c9.161-7.296 21.628-8.87 32.315-4.081z"
          fill="#a2bec1"></path>
      </g>
    </g>
    <g id="XMLID_2216_">
      <path id="XMLID_246_"
        d="m374.77 224.079c-2.491 2.481-9.126 13.952-11.697 16.004-11.971 9.556-90.841 32.247-90.841 32.247l-21.235-55.871 29.305-23.139c26.702-21.083 59.646-32.709 93.666-33.053z"
        fill="#ff7d95"></path>
    </g>
    <g id="XMLID_2215_">
      <path
        d="m10 351.749h8.749c18.088 0 32.752-14.664 32.752-32.752v-36.463h-22.477c-10.507 0-19.024 8.517-19.024 19.024z"
        fill="#ffdcd5"></path>
    </g>
    <g id="XMLID_1162_">
      <path id="XMLID_92_"
        d="m250.997 216.459c-6.644-1.77-13.798-2.098-20.989-.608-15.971 3.311-28.247 14.595-33.537 28.833l-143.628 37.85v41.491l110.894-15.364c20.757-2.876 41.063-8.392 60.422-16.413l48.073-19.919z"
        fill="#c193dc"></path>
    </g>
    <g id="XMLID_1913_">
      <g id="XMLID_1914_">
        <path
          d="m477.15 247.283-87.67-75.531c-7.161-6.17-17.139-7.893-25.954-4.482-18.926 7.322-22.222 32.698-5.796 44.612l93.674 67.942c8.659 6.28 20.672 4.955 27.754-3.061 7.66-8.671 6.756-21.929-2.008-29.48z"
          fill="#ffdcd5"></path>
      </g>
    </g>
    <g id="XMLID_140_">
      <path id="XMLID_251_"
        d="m510.198 346.028-32.416-46.431 32.651-51.223c2.969-4.657 1.6-10.839-3.058-13.808-4.659-2.969-10.841-1.6-13.808 3.058l-4.852 7.611c-1.432-2.015-3.116-3.873-5.039-5.529l-66.864-57.606c2.43-.568 4.837-1.31 7.204-2.235 12.936-5.057 23.13-14.849 28.701-27.571v-.001l4.814-10.993c10.59-24.186 1.244-52.153-20.81-65.41-1.077-13.169-9.343-25.146-21.735-30.573-18.437-8.071-40.004.358-48.077 18.794-3.927 8.967-4.059 18.987-.565 27.917-1.561 2.396-2.925 4.922-4.079 7.557l-4.814 10.992c-5.571 12.724-5.854 26.855-.798 39.792.125.321.267.633.399.951-30.119 3.459-59.075 15.305-82.947 34.153l-25.628 20.235c-6.809-1.16-13.681-1.059-20.498.352-17.11 3.547-31.268 14.672-38.774 30.198l-137.665 36.278c-.013 0-.026-.002-.039-.002h-22.477c-3.15 0-6.182.511-9.024 1.444v-10.372c0-5.522-4.477-10-10-10s-10 4.477-10 10v132.144c0 5.522 4.477 10 10 10h9.667v54c0 5.522 4.478 10 10 10h44c5.522 0 10-4.478 10-10v-54h342.333v54c0 5.522 4.478 10 10 10h44c5.522 0 10-4.478 10-10v-54h12c5.522 0 10-4.478 10-10v-44c0-2.129-.669-4.101-1.802-5.722zm-27.376-4.279h-31.909l15.228-23.89zm-8.486-79.466c.197 2.895-.752 5.686-2.672 7.859-3.691 4.178-9.877 4.857-14.389 1.587l-93.674-67.941c-4.702-3.411-7.062-8.887-6.314-14.646.749-5.76 4.43-10.449 9.847-12.545 1.833-.709 3.743-1.056 5.639-1.056 3.675 0 7.295 1.302 10.18 3.787l87.67 75.531c2.196 1.893 3.516 4.53 3.713 7.424zm-57.602-101.045c-7.96 3.111-16.655 2.939-24.487-.491-7.829-3.429-13.855-9.7-16.968-17.661-1.535-3.927-2.266-8.032-2.206-12.124l17.187 7.525c3.424 1.5 7.401.964 10.307-1.391 6.216-5.039 14.63-6.173 21.958-2.965l13.687 5.994-1.815 4.145v-.001c-3.429 7.831-9.702 13.856-17.663 16.969zm-30.272-73.57c-2.988-4.667-3.449-10.476-1.233-15.536 2.71-6.188 8.78-9.882 15.139-9.882 2.206 0 4.448.445 6.596 1.386 6.617 2.898 10.633 9.926 9.764 17.092-.539 4.44 1.936 8.696 6.06 10.426.015.006.03.013.048.021 7.78 3.438 13.768 9.689 16.866 17.616 1.519 3.885 2.249 7.945 2.206 11.995l-11.36-4.975c-12.243-5.362-26.05-4.467-37.345 2.131l-14.386-6.299 1.768-4.037c1.28-2.923 2.976-5.625 5.042-8.029 2.876-3.35 3.216-8.19.835-11.909zm-99.963 113.5c16.134-12.739 34.915-21.83 54.771-26.726-1.935 3.691-3.25 7.768-3.815 12.122-1.707 13.142 3.678 25.632 14.405 33.413l8.931 6.478c-1.404 2.104-3.342 4.984-4.235 6.024-6.799 4.949-43.346 17.342-78.258 27.663l-15.347-40.38zm-87.48 53.186c3.146-.829 5.692-3.137 6.826-6.187 4.31-11.598 14.102-20.019 26.192-22.524 3.844-.797 7.724-.938 11.582-.45l15.816 41.614-39.105 16.203c-18.561 7.69-38.064 12.988-57.966 15.746l-100.863 13.975v-22.137zm-169.995 38.181h12.477v26.463c0 12.126-9.535 22.066-21.501 22.718v-40.156c0-4.978 4.048-9.025 9.024-9.025zm34.643 157.214h-24v-44h24zm406.333 0h-24v-44h24zm22-64h-472v-24h191.127c5.522 0 10-4.478 10-10s-4.478-10-10-10h-156.21c1.672-2.649 3.063-5.49 4.127-8.487l106.063-14.695c21.589-2.991 42.743-8.737 62.878-17.08l47.553-19.703c19.571-5.64 81.334-23.957 93.771-33.885 2.293-1.829 4.412-4.807 7.682-9.694l68.542 49.713c3.861 2.8 8.151 4.566 12.549 5.376l-30.887 48.456h-126.068c-5.523 0-10 4.478-10 10s4.477 10 10 10h190.873z"></path>
      <path id="XMLID_386_"
        d="m256 341.746c-2.63 0-5.21 1.069-7.07 2.93-1.86 1.86-2.93 4.44-2.93 7.07 0 2.64 1.069 5.21 2.93 7.069 1.86 1.86 4.44 2.931 7.07 2.931s5.21-1.07 7.069-2.931c1.86-1.859 2.931-4.439 2.931-7.069s-1.07-5.2-2.931-7.07c-1.859-1.86-4.439-2.93-7.069-2.93z"></path>
    </g>
  </g>
</svg>