<svg id="fi_2702154" enable-background="new 0 0 512 512" height="512" viewBox="0 0 512 512"
  width="512" xmlns="http://www.w3.org/2000/svg">
  <g>
    <g>
      <g>
        <g>
          <path
            d="m494.5 170.935h-477c-5.523 0-10 4.477-10 10v313.509c0 5.523 4.477 10 10 10h219.378c4.383-5.771 11.316-9.5 19.122-9.5s14.739 3.729 19.122 9.5h219.378c5.523 0 10-4.477 10-10v-313.509c0-5.523-4.477-10-10-10z"
            fill="#6e9eff"></path>
        </g>
        <g>
          <path
            d="m494.5 170.935h-40c5.523 0 10 4.477 10 10v313.509c0 5.523-4.477 10-10 10h40c5.523 0 10-4.477 10-10v-313.509c0-5.523-4.477-10-10-10z"
            fill="#5990ff"></path>
        </g>
        <g>
          <path d="m40.148 217.944h431.704v255.418h-431.704z" fill="#c5d7e6"></path>
          <path d="m256 161.643v308.469s-81.351-67.317-215.852-20v-288.469s108.468-50.99 215.852 0z"
            fill="#e4ecf2"></path>
          <path
            d="m256 166.559s-46.85-105.069-165.852-130v303.552c119.002 24.931 165.852 130 165.852 130z"
            fill="#f0f5fa"></path>
          <path
            d="m256.008 166.559s3.142-134.184-115.86-159.116v303.552c119.002 24.931 115.86 159.116 115.86 159.116z"
            fill="#e4ecf2"></path>
          <path d="m256 161.643v308.469s81.351-67.317 215.852-20v-288.469s-108.468-50.99-215.852 0z"
            fill="#e4ecf2"></path>
          <path d="m256.016 166.559s65.325-70 185.852-70v303.552c-120.528 0-185.852 70-185.852 70z"
            fill="#f0f5fa"></path>
        </g>
      </g>
    </g>
    <path
      d="m494.5 163.435h-15.148c.32-3.371-1.116-6.231-4.31-8.58-.432-.203-9.814-4.58-25.674-9.513v-48.783c0-4.142-3.358-7.5-7.5-7.5-63.872 0-112.353 19.549-141.775 35.949-16.567 9.234-29.049 18.448-37.35 25.306-1.264-13.741-4.554-34.578-13.038-56.654-19.394-50.464-56.746-82.815-108.019-93.558-5.343-.422-8.355 2.025-9.038 7.341v34.272c-13.182-5.349-26.909-9.553-40.962-12.498-5.342-.421-8.355 2.025-9.038 7.341v103.296c-27.614 6.582-44.919 14.637-45.69 14.999-3.193 2.349-4.63 5.209-4.31 8.58h-15.148c-9.649 0-17.5 7.851-17.5 17.5v229.344c0 9.697 15 9.697 15 0v-229.342c0-1.378 1.122-2.5 2.5-2.5h15.148v294.927c0 4.142 3.358 7.5 7.5 7.5h431.704c4.142 0 7.5-3.358 7.5-7.5v-294.927h15.148c1.378 0 2.5 1.122 2.5 2.5v313.509c0 1.378-1.122 2.5-2.5 2.5h-215.952c-12.158-12.521-32.937-12.521-45.096 0h-215.952c-1.378 0-2.5-1.122-2.5-2.5v-38.5c0-9.697-15-9.697-15 0v38.5c0 9.649 7.851 17.5 17.5 17.5h219.378c2.345 0 4.555-1.097 5.973-2.964 6.524-8.59 19.774-8.59 26.298 0 1.418 1.867 3.628 2.964 5.973 2.964h219.378c9.649 0 17.5-7.851 17.5-17.5v-313.509c0-9.65-7.851-17.5-17.5-17.5zm-60.132-59.282v76.791c0 4.142 3.358 7.5 7.5 7.5s7.5-3.358 7.5-7.5v-19.849c6.583 2.173 11.686 4.139 14.984 5.487v51.362 221.755c-55.426-17.545-101.396-15.805-134.467-9.097 28.806-12.618 66.355-22.99 111.983-22.99 4.142 0 7.5-3.358 7.5-7.5v-173.168c0-4.142-3.358-7.5-7.5-7.5s-7.5 3.358-7.5 7.5v165.758c-60.176 1.449-106.015 20.106-134.275 35.858-16.052 8.947-28.281 17.882-36.577 24.667v-283.554c11.417-10.947 70.88-63.009 170.852-65.52zm-286.72-87.196c41.747 11.379 71.288 38.806 87.884 81.642 13.519 34.891 12.985 67.455 12.978 67.792-.001.057-.002.113-.002.169v227.619c-18.923-46.777-53.664-77.469-100.86-89.161zm-15 41.022v253.017c0 3.549 2.488 6.613 5.962 7.341 46.543 9.75 79.152 37.95 96.922 83.814 4.815 12.427 7.846 24.557 9.754 35.042-5.786-8.361-13.078-17.876-22.025-27.764-24.214-26.76-65.416-61.113-125.613-75.329v-188.338c0-.009 0-.017 0-.026v-99.748c12.026 3.038 23.748 7.057 35 11.991zm-85 108.601c6.1-2.495 18.401-7.104 35-11.276v184.808c0 3.549 2.488 6.613 5.962 7.341 59.276 12.418 99.694 45.811 123.164 71.638 9.57 10.531 17.188 20.703 22.985 29.328-9.12-4.5-20.536-9.252-34.132-13.247-33.308-9.786-86.312-16.576-152.978 4.527v-221.755-51.364zm0 288.902c64.845-21.61 116.117-15.374 148-6.137 17.137 4.965 30.626 11.286 40.028 16.517h-188.028zm228.625 10.38c9.235-5.14 22.457-11.341 39.329-16.298 32.02-9.407 83.534-15.816 148.75 5.918v10.38z"
      fill="#060606"></path>
  </g>
</svg>