<svg id="fi_5333156" enable-background="new 0 0 512 512" height="512" viewBox="0 0 512 512"
  width="512" xmlns="http://www.w3.org/2000/svg">
  <g>
    <g>
      <g>
        <g fill="#8ac9fe">
          <path
            d="m7.5 248.328v179.12c0 8.467 6.864 15.332 15.332 15.332 8.467 0 15.332-6.864 15.332-15.332v-150.692z"></path>
          <path
            d="m240.668 311.93v152.893c0 8.467 6.864 15.332 15.332 15.332 8.467 0 15.332-6.864 15.332-15.332v-152.893z"></path>
          <path
            d="m473.837 274.555v152.893c0 8.467 6.864 15.332 15.332 15.332 8.467 0 15.332-6.864 15.332-15.332v-179.12z"></path>
        </g>
        <g>
          <path
            d="m504.5 278.555c0 38.066-111.257 68.925-248.5 68.925s-248.5-30.859-248.5-68.925c0-9.517 0-35.55 0-35.55s145.568-28.973 248.5-28.973c100.981 0 248.5 28.973 248.5 28.973s0 25.492 0 35.55z"
            fill="#fea95c"></path>
          <ellipse cx="256" cy="243.005" fill="#fee45a" rx="248.5" ry="68.925"></ellipse>
          <path
            d="m256 174.08c-8.438 0-16.778.117-25 .345 125.503 3.477 223.5 32.855 223.5 68.58 0 35.726-97.997 65.103-223.5 68.58 8.222.228 16.562.345 25 .345 137.243 0 248.5-30.859 248.5-68.925s-111.257-68.925-248.5-68.925z"
            fill="#fedf30"></path>
          <ellipse cx="256" cy="242.005" fill="#8ac9fe" rx="188.179" ry="32.47"></ellipse>
        </g>
      </g>
    </g>
    <g>
      <path
        d="m256 166.581c-49.379 0-97.19 3.983-138.266 11.519-9.063 1.911-7.28 15.8 2.707 14.754 89.333-17.174 227.896-14.763 309.27 8.643 89.022 25.529 89.157 57.451 0 83.018-90.629 26.352-256.794 26.352-347.423 0-93.527-26.829-86.068-59.671 4.834-84.324 8.895-2.587 6.069-16.304-3.809-14.508-68.859 18.074-83.313 41.149-83.313 57.322v184.442c0 12.59 10.242 22.832 22.832 22.832s22.832-10.242 22.832-22.832v-103.98c44.554 18.681 115.899 29.335 187.505 31.211v110.144c0 12.59 10.242 22.832 22.832 22.832s22.832-10.242 22.832-22.832v-110.14c42.197-1.058 82.56-5.033 117.865-11.674 9.053-1.953 7.211-15.829-2.773-14.742-40.733 7.664-88.426 11.714-137.925 11.714-67.22 1.654-232.816-15.362-241-61.425v-8.299c78.522 65.273 403.481 65.271 482 0v8.299c0 8.685-9.664 16.539-17.771 21.599-12.821 8.003-32.083 15.461-55.705 21.567-8.559 2.471-6.621 16.387 3.755 14.523 15.626-4.04 28.49-8.337 39.057-12.756v103.96c0 12.59 10.242 22.832 22.832 22.832 12.589 0 22.832-10.242 22.832-22.832v-184.443c0-49.639-131.897-76.424-256-76.424zm7.832 188.359v109.883c0 4.318-3.513 7.832-7.832 7.832s-7.832-3.514-7.832-7.832v-109.883c4.167.038 9.215.061 15.664 0zm-233.168-38.631v111.138c-.33 10.353-15.337 10.346-15.664 0v-121.641c4.378 3.703 9.639 7.204 15.664 10.503zm458.504 118.971c-4.319 0-7.832-3.514-7.832-7.832v-111.107c6.391-3.499 11.544-7.028 15.664-10.525v121.632c0 4.318-3.513 7.832-7.832 7.832z"></path>
      <path
        d="m60.32 242.005c0 8.344 6.963 19.201 61.261 29.183 75.138 14.273 193.7 14.273 268.838 0 17.297-3.179 31.722-6.935 41.715-10.86 8.391-3.296 19.546-8.781 19.546-18.322-2.011-33.883-150.559-39.975-195.679-39.972-64.698.96-123.38 4.003-176.135 21.65-8.39 3.295-19.546 8.78-19.546 18.321zm70.263-15.54c77.216-13.272 237.657-15.978 304.879 15.54-4.585 3.243-19.242 9.652-54.046 15.539-71.736 12.479-179.096 12.478-250.832 0-34.804-5.887-49.461-12.296-54.046-15.539 4.585-3.244 19.241-9.653 54.045-15.54z"></path>
      <path
        d="m213 112.28c4.142 0 7.5-3.357 7.5-7.5v-73c-.307-9.916-14.696-9.909-15 0v73c0 4.142 3.358 7.5 7.5 7.5z"></path>
      <path
        d="m256 146.28c4.142 0 7.5-3.357 7.5-7.5v-60.5c-.307-9.916-14.696-9.909-15 0v60.5c0 4.142 3.358 7.5 7.5 7.5z"></path>
      <path
        d="m299 99.78c4.142 0 7.5-3.357 7.5-7.5v-60.5c-.307-9.916-14.696-9.909-15 0v60.5c0 4.142 3.358 7.5 7.5 7.5z"></path>
    </g>
  </g>
</svg>