<svg id="fi_4357645" enable-background="new 0 0 511.994 511.994" height="512"
  viewBox="0 0 511.994 511.994" width="512" xmlns="http://www.w3.org/2000/svg">
  <g>
    <g>
      <g>
        <g fill="#f6e266">
          <path
            d="m145.382 91.036-2.303.849c-8.122 2.994-17.175-.812-20.718-8.71l-10.898-24.295c-3.903-8.702.38-18.889 9.328-22.188l5.722-2.109c8.949-3.299 18.819 1.672 21.498 10.825l7.478 25.555c2.432 8.307-1.985 17.079-10.107 20.073z"></path>
          <path
            d="m94.841 127.308-1.57 1.887c-5.537 6.654-15.281 7.884-22.298 2.816l-21.585-15.591c-7.731-5.584-9.116-16.549-3.016-23.88l3.901-4.688c6.1-7.331 17.134-7.962 24.03-1.374l19.254 18.392c6.26 5.979 6.821 15.784 1.284 22.438z"></path>
          <path
            d="m67.094 183.025-.416 2.419c-1.468 8.531-9.291 14.468-17.903 13.587l-26.488-2.71c-9.488-.971-16.169-9.774-14.551-19.173l1.034-6.01c1.618-9.399 10.857-15.462 20.124-13.205l25.87 6.301c8.41 2.049 13.798 10.26 12.33 18.791z"></path>
        </g>
      </g>
      <g>
        <path
          d="m413.492 412.461v.01l-12.64 36.33-8.11.83-18.29 1.87-85.2-85.21 4.85-15.31 3.25-10.29 30.93-13.42v-.01z"
          fill="#ffddce"></path>
        <path d="m392.742 449.631-18.29 1.87-85.2-85.21 4.85-15.31z" fill="#ffcbbe"></path>
        <path
          d="m233.882 348.549-40.659 40.648c-5.387 5.387-12.453 8.081-19.518 8.081s-14.12-2.694-19.507-8.081l-58.322-58.323c-10.775-10.775-10.775-28.251 0-39.025 5.387-5.387 12.453-8.092 19.518-8.092 7.054 0 14.12 2.705 19.518 8.092l38.793 38.793 21.141-21.13 32.112 10.702z"
          fill="#ffddce"></path>
        <path d="m175.938 317.341h29.89v18.688h-29.89z" fill="#ffcbbe"
          transform="matrix(.707 -.707 .707 .707 -175.068 230.565)"></path>
        <path
          d="m337.756 195.823 69.57 69.57 50.054-50.054c10.778-10.778 28.253-10.778 39.031 0 10.778 10.778 10.778 28.253 0 39.031l-69.569 69.569c-10.778 10.778-28.253 10.778-39.031 0l-46.297-46.297"
          fill="#ffddce"></path>
        <path
          d="m442.843 307.931-16.007 16.007c-10.775 10.774-28.251 10.774-39.025 0l-64.582-64.582 14.528-63.533 11.393 11.393-6.624 39.445 61.281 61.27c10.774 10.786 28.25 10.786 39.036 0z"
          fill="#ffcbbe"></path>
        <path
          d="m313.982 141.515-9.205 33.87-29.82 5.166-22.72-22.719-50.054 50.054c-10.775 10.775-28.25 10.775-39.036 0-5.387-5.387-8.081-12.453-8.081-19.518 0-7.054 2.694-14.12 8.081-19.518l69.572-69.572c10.786-10.775 28.25-10.775 39.036 0z"
          fill="#ffddce"></path>
        <path
          d="m285.619 113.156c-10.797-10.697-28.195-10.664-38.948.077l-69.572 69.572c-5.387 5.398-8.081 12.464-8.081 19.518 0 3.831.795 7.673 2.396 11.239-3.003-1.325-5.807-3.223-8.269-5.675-5.387-5.387-8.081-12.452-8.081-19.518 0-7.054 2.694-14.12 8.081-19.518l69.572-69.572c10.786-10.775 28.25-10.775 39.036 0z"
          fill="#ffcbbe"></path>
        <path d="m360.834 188.363-39.036 39.037-46.852-46.864 39.036-39.025z" fill="#e7a561"></path>
        <path
          d="m351.495 286.539-54.142 54.153-22.269-12.719-22.398-76.305 85.726-85.726 13.082 13.093c29.697 29.686 29.697 77.818.001 107.504z"
          fill="#e7a561"></path>
        <path d="m311.564 217.166-46.697 46.697-12.972-11.403 47.482-47.482z" fill="#e4936b"></path>
        <path d="m202.679 273.206h79.83v55.194h-79.83z" fill="#9dc6fb"
          transform="matrix(.707 -.707 .707 .707 -141.646 259.643)"></path>
        <path
          d="m207.321 375.099-14.098 14.098c-5.387 5.398-12.453 8.092-19.507 8.092-7.065 0-14.131-2.694-19.518-8.092l-58.323-58.311c-10.775-10.775-10.775-28.25 0-39.036 2.528-2.528 5.431-4.46 8.523-5.796-4.383 10.09-2.451 22.267 5.796 30.513l58.323 58.323c5.387 5.387 12.453 8.081 19.518 8.081 6.955-.001 13.932-2.617 19.286-7.872z"
          fill="#ffcbbe"></path>
        <path d="m189.482 277.855h81.795v18.688h-81.795z" fill="#80b4fb"
          transform="matrix(.707 -.707 .707 .707 -135.61 247.082)"></path>
        <path d="m328.283 327.267-39.036 39.025-35.78-35.78c-21.56-21.56-21.56-56.512 0-78.061z"
          fill="#9dc6fb"></path>
        <path
          d="m299.326 356.213-10.079 10.079-35.78-35.78c-21.549-21.549-21.549-56.501 0-78.061l11.404 11.404c-12.232 21.119-9.306 48.597 8.765 66.657z"
          fill="#80b4fb"></path>
        <path
          d="m443.979 74.912v13.286h-110.871v-13.286h-9.803c-30.613 0-55.441-24.817-55.441-55.441h120.674c30.624 0 55.441 24.828 55.441 55.441z"
          fill="#26457d"></path>
        <path
          d="m383.04 74.912v13.281h-49.932v-13.281h-9.803c-30.613 0-55.441-24.817-55.441-55.441h49.932c0 30.624 24.828 55.441 55.441 55.441z"
          fill="#21386b"></path>
        <path
          d="m443.979 104.719v52.67c0 15.301-6.204 29.167-16.239 39.191-10.024 10.035-23.89 16.24-39.202 16.24-30.613 0-55.43-24.817-55.43-55.43v-52.67l49.932-16.526z"
          fill="#ffddce"></path>
        <path
          d="m406.212 209.938c-5.553 1.866-11.492 2.881-17.674 2.881-30.613 0-55.43-24.817-55.43-55.43v-52.67l49.932-16.526 19.419 5.266-34.013 11.26v52.67c0 24.442 15.819 45.185 37.766 52.549z"
          fill="#ffcbbe"></path>
        <path
          d="m330.844 104.718h115.393c8.231 0 14.903-6.672 14.903-14.903 0-8.231-6.672-14.903-14.903-14.903h-115.393c-8.231 0-14.903 6.672-14.903 14.903 0 8.231 6.672 14.903 14.903 14.903z"
          fill="#dd636e"></path>
        <path
          d="m364.471 100.358c2.694 2.694 6.414 4.361 10.532 4.361h-44.159c-4.118 0-7.838-1.667-10.532-4.361-2.705-2.694-4.372-6.425-4.372-10.543 0-8.236 6.679-14.904 14.904-14.904h44.159c-8.224 0-14.904 6.668-14.904 14.904 0 4.118 1.667 7.85 4.372 10.543z"
          fill="#da4a54"></path>
        <g>
          <path
            d="m477.867 430.951-57.489 57.489c-6.119 6.119-16.278 5.24-21.254-1.841l-24.669-35.1 46.247-46.247c13.762-13.762 36.075-13.762 49.837 0l7.328 7.328c5.072 5.074 5.072 13.299 0 18.371z"
            fill="#f9f6f6"></path>
          <path
            d="m436.997 471.821-16.619 16.619c-6.12 6.12-16.276 5.238-21.249-1.842l-24.668-35.097 16.612-16.612 24.668 35.097c4.972 7.08 15.136 7.955 21.256 1.835z"
            fill="#dddaec"></path>
          <path
            d="m381.826 386.628c5.592-5.592 14.658-5.592 20.25 0l32.794 32.794-20.25 20.25-32.794-32.794c-5.592-5.592-5.592-14.658 0-20.25z"
            fill="#f9f6f6"></path>
          <path
            d="m387.064 383.295c-1.842 5.059-.734 10.944 3.333 15.011l32.794 32.794-8.571 8.571-32.794-32.794c-5.597-5.597-5.589-14.66 0-20.249 1.538-1.537 3.326-2.654 5.238-3.333z"
            fill="#dddaec"></path>
        </g>
        <g>
          <path
            d="m31.5 312.397 57.489-57.489c6.119-6.119 16.278-5.24 21.254 1.841l24.669 35.1-46.247 46.247c-13.762 13.762-36.075 13.762-49.837 0l-7.328-7.328c-5.073-5.074-5.073-13.298 0-18.371z"
            fill="#f9f6f6"></path>
          <path
            d="m72.369 271.528 16.619-16.619c6.12-6.12 16.276-5.238 21.249 1.842l24.668 35.097-16.612 16.612-24.668-35.097c-4.972-7.081-15.136-7.955-21.256-1.835z"
            fill="#dddaec"></path>
          <path
            d="m127.54 356.721c-5.592 5.592-14.658 5.592-20.25 0l-32.794-32.794 20.25-20.25 32.794 32.794c5.592 5.592 5.592 14.658 0 20.25z"
            fill="#f9f6f6"></path>
          <path
            d="m122.302 360.053c1.842-5.059.734-10.944-3.333-15.011l-32.794-32.794 8.571-8.571 32.794 32.794c5.597 5.597 5.589 14.66 0 20.249-1.538 1.538-3.325 2.654-5.238 3.333z"
            fill="#dddaec"></path>
        </g>
      </g>
    </g>
    <g>
      <path
        d="m115.518 86.244c3.956 8.819 12.724 14.149 21.924 14.149 2.743 0 5.526-.474 8.23-1.471l2.304-.849c11.774-4.34 18.236-17.174 14.712-29.217l-7.479-25.554c-1.857-6.35-6.312-11.699-12.222-14.674-5.909-2.976-12.861-3.37-19.067-1.082l-5.724 2.109c-6.207 2.289-11.238 7.099-13.803 13.199-2.564 6.099-2.481 13.06.227 19.096zm2.704-37.578c.974-2.315 2.807-4.069 5.163-4.938l5.724-2.109c2.348-.867 4.885-.727 7.133.404 2.242 1.13 3.866 3.079 4.571 5.49l7.479 25.555c1.319 4.505-1.099 9.306-5.503 10.93l-2.305.849c-4.403 1.624-9.358-.459-11.28-4.743l-10.897-24.293c-1.028-2.292-1.059-4.829-.085-7.145z"></path>
      <path
        d="m44.997 122.5 21.585 15.591c4.21 3.04 9.117 4.514 13.994 4.514 6.908 0 13.756-2.959 18.461-8.614l1.569-1.887c8.025-9.646 7.205-23.99-1.868-32.657l-19.253-18.392c-4.785-4.57-11.308-6.975-17.923-6.597-6.605.378-12.821 3.511-17.053 8.597l-3.902 4.688c-4.231 5.086-6.184 11.769-5.354 18.333.829 6.564 4.38 12.55 9.744 16.424zm7.14-25.162 3.901-4.688c1.712-2.068 4.228-3.236 6.91-3.231 2.312 0 4.487.871 6.175 2.483l19.253 18.392c3.395 3.243 3.701 8.609.699 12.217-.001 0-.001.001-.001.001l-1.568 1.885c-3.004 3.608-8.337 4.282-12.142 1.533l-21.584-15.59c-2.036-1.47-3.33-3.652-3.646-6.144-.314-2.491.398-4.927 2.003-6.858z"></path>
      <path
        d="m48.011 206.492c.817.083 1.63.125 2.436.125 11.507 0 21.634-8.343 23.621-19.898l.417-2.418c0-.001.001-.002.001-.003 2.128-12.367-5.756-24.38-17.947-27.349l-25.871-6.301c-6.426-1.566-13.287-.381-18.819 3.249-5.531 3.63-9.348 9.452-10.47 15.972l-1.034 6.01c-1.122 6.52.528 13.282 4.527 18.553 4 5.271 10.069 8.68 16.651 9.353zm-31.19-21.131c-1.519-2-2.12-4.465-1.693-6.94l1.034-6.011c.426-2.475 1.816-4.597 3.916-5.975 2.106-1.385 4.626-1.807 7.041-1.215l25.87 6.301c4.561 1.111 7.51 5.605 6.714 10.232l-.417 2.418c-.795 4.625-5.083 7.878-9.747 7.398l-26.489-2.709c-2.499-.256-4.711-1.498-6.229-3.499z"></path>
      <path
        d="m350.954 297.687 31.558 31.558c6.628 6.628 15.44 10.278 24.815 10.278s18.188-3.65 24.816-10.278l69.572-69.572c6.627-6.628 10.277-15.443 10.277-24.821 0-9.371-3.649-18.182-10.278-24.811-6.633-6.633-15.448-10.286-24.821-10.286s-18.188 3.653-24.82 10.286l-44.75 44.741-26.145-26.145c-.151-2.959-.46-5.923-.932-8.88 2.715.359 5.479.563 8.291.563 16.824 0 32.631-6.548 44.503-18.433 11.89-11.877 18.438-27.68 18.438-44.497v-45.796c9.832-2.367 17.161-11.23 17.161-21.778 0-10.688-7.526-19.646-17.555-21.869-3.478-31.439-30.196-55.976-62.547-55.976h-120.673c-4.143 0-7.5 3.358-7.5 7.5 0 30.224 21.417 55.533 49.87 61.567-1.153 2.697-1.793 5.664-1.793 8.777 0 10.55 7.332 19.415 17.167 21.779v30.939l-48.562-48.561c-13.685-13.685-35.952-13.683-49.637 0l-35.649 35.65c-2.929 2.929-2.929 7.678 0 10.606 2.93 2.929 7.678 2.929 10.607 0l35.648-35.65c7.837-7.835 20.589-7.836 28.424 0l36.932 36.933-28.428 28.421-17.406-17.409c-1.406-1.407-3.314-2.197-5.304-2.197s-3.897.791-5.304 2.197l-50.045 50.055c-7.846 7.831-20.604 7.832-28.434.009-3.797-3.803-5.888-8.854-5.888-14.221 0-5.36 2.093-10.413 5.884-14.217l12.71-12.71c2.929-2.929 2.929-7.678 0-10.606-2.93-2.929-7.678-2.929-10.607 0l-12.719 12.719c-6.621 6.645-10.268 15.457-10.268 24.814 0 9.369 3.648 18.183 10.279 24.826 13.68 13.668 35.947 13.669 49.645-.003l44.746-44.755 36.537 36.542-115.056 115.063-33.03-33.021-24.305-34.582c-3.648-5.191-9.366-8.482-15.688-9.03-6.312-.546-12.518 1.71-17.006 6.198l-57.489 57.489c-7.987 7.989-7.987 20.987 0 28.976l7.329 7.329c8.332 8.332 19.276 12.498 30.222 12.498 8.568 0 17.129-2.565 24.443-7.67l13.797 13.797c4.254 4.254 9.842 6.38 15.429 6.38 1.622 0 3.239-.201 4.828-.559l26.648 26.658c6.628 6.628 15.443 10.278 24.822 10.278 9.378 0 18.193-3.65 24.82-10.277l54.163-54.153 73.772 73.768c1.465 1.465 3.384 2.197 5.304 2.197 1.919 0 3.839-.732 5.303-2.196 2.93-2.928 2.93-7.677.001-10.606l-37.217-37.225 28.429-28.421 46.053 46.045c-6.224 8.528-5.513 20.574 2.181 28.268l13.32 13.32-15.389 15.389-16.176-16.177c-2.929-2.929-7.677-2.929-10.607 0-2.929 2.929-2.929 7.678 0 10.606l21.018 21.019 24.299 34.574c3.986 5.704 10.595 9.126 17.551 9.11 5.662 0 11.098-2.235 15.143-6.279l57.489-57.489c7.987-7.989 7.987-20.987 0-28.976l-7.329-7.328c-14.854-14.854-38.005-16.455-54.665-4.828l-13.797-13.797c-5.484-5.483-13.179-7.411-20.238-5.825l-57.006-56.987zm61.671-26.996 50.055-50.043c3.8-3.8 8.848-5.893 14.214-5.893 5.367 0 10.415 2.093 14.215 5.892 3.795 3.796 5.885 8.84 5.885 14.205 0 5.372-2.09 10.42-5.885 14.215l-69.572 69.572c-3.794 3.794-8.84 5.884-14.209 5.884-5.368 0-10.415-2.09-14.209-5.884l-31.755-31.755c9.521-11.167 15.778-24.412 18.449-38.399l22.206 22.206c2.929 2.929 7.678 2.929 10.606 0zm23.854-113.302c0 12.808-4.986 24.841-14.046 33.891-9.043 9.054-21.081 14.04-33.896 14.04-26.429 0-47.93-21.501-47.93-47.93v-45.17h95.871v45.169zm-160.529-130.418h112.588c23.883 0 43.74 17.557 47.351 40.441h-112.584c-23.885 0-43.745-17.556-47.355-40.441zm54.893 55.442h115.394c4.082 0 7.403 3.321 7.403 7.403s-3.321 7.403-7.403 7.403h-115.394c-4.082 0-7.402-3.321-7.402-7.403s3.32-7.403 7.402-7.403zm-14.353 150.286c1.465 1.465 3.384 2.197 5.304 2.197 1.919 0 3.839-.732 5.303-2.196 2.93-2.929 2.93-7.677.001-10.606l-41.548-41.554 28.429-28.421 11.992 11.992c2.463 23.086 17.456 42.482 38.032 51.226 6.215 23.573-.446 48.54-17.814 65.899l-26.66 26.669-56.237-56.237 36.085-36.085zm-86.335 52.113c-.231 2.2-.357 4.423-.357 6.666 0 13.85 4.472 27.008 12.714 37.847l-8.619 8.617-28.434-28.433zm-186.024 47.98-7.328-7.329c-2.141-2.14-2.141-5.623 0-7.763l57.489-57.489c1.844-1.844 3.995-1.954 5.104-1.861 1.115.097 3.21.577 4.71 2.711l21.043 29.942-21.535 21.536c-.001.001-.002.001-.003.002l-1.577 1.577-2.831-9.78c-1.151-3.979-5.311-6.27-9.289-5.119-3.979 1.151-6.271 5.311-5.119 9.29l5.129 17.72-4.871 4.871-2.831-9.781c-1.151-3.979-5.312-6.271-9.289-5.119-3.979 1.151-6.271 5.311-5.119 9.289l4.106 14.186c-9.508 2.916-20.281.625-27.789-6.883zm68.463 18.625-13.322-13.322 9.644-9.644 13.321 13.322c2.659 2.659 2.659 6.984 0 9.643-2.658 2.66-6.985 2.66-9.643.001zm75.334 32.479c-3.794 3.794-8.842 5.884-14.214 5.884s-10.421-2.09-14.214-5.883l-24.466-24.475c6.213-8.527 5.5-20.565-2.19-28.255l-13.322-13.322 15.388-15.388 33.502 33.492c1.465 1.464 3.384 2.196 5.303 2.196s3.839-.732 5.304-2.197l15.833-15.833 28.432 28.433zm56.869-92.418c0-10.205 3.184-19.919 9.081-28.009l63.797 63.798-28.427 28.42-30.477-30.477c-9.011-9.011-13.974-20.991-13.974-33.732zm220.438 119.079 7.328 7.328c2.141 2.14 2.141 5.623 0 7.763l-57.489 57.489c-1.843 1.844-3.991 1.96-5.104 1.861-1.115-.097-3.21-.577-4.71-2.71l-21.043-29.942 21.531-21.532c.003-.003.005-.005.008-.007l1.577-1.577 2.831 9.78c.95 3.283 3.946 5.417 7.2 5.417.69 0 1.393-.096 2.089-.298 3.979-1.151 6.271-5.311 5.119-9.289l-5.129-17.72 4.872-4.872 2.831 9.781c.95 3.282 3.946 5.417 7.2 5.417.69 0 1.393-.096 2.09-.298 3.979-1.152 6.271-5.311 5.118-9.29l-4.106-14.184c9.506-2.915 20.28-.625 27.787 6.883zm-73.283-20.62c1.745 0 3.491.665 4.82 1.994l13.322 13.322-1.863 1.863c-.013.013-.028.024-.041.037l-7.741 7.741-13.319-13.319c-2.659-2.659-2.659-6.985 0-9.644 1.329-1.329 3.075-1.994 4.822-1.994z"></path>
    </g>
  </g>
</svg>  