<svg id="fi_4598444" enable-background="new 0 0 512 512" height="512" viewBox="0 0 512 512"
  width="512" xmlns="http://www.w3.org/2000/svg">
  <g>
    <g>
      <path
        d="m70.097 150.677 174.477 190.875c45.465 49.738 109.747 78.07 177.134 78.07h80.292c0 23.973-19.466 43.39-43.439 43.33l-103.569-.262c-40.911-.103-80.331-15.37-110.641-42.848l-196.004-177.694c-31.334-28.406-19.017-80.209 21.75-91.471z"
        fill="#fff"></path>
      <path
        d="m502 419.621c0-35.736-23.279-67.305-57.418-77.866l-21.689-6.71c-21.202-6.559-38.234-22.464-46.226-43.169l-59.572-154.325c-6.889-17.847-26.256-27.492-44.65-22.236-36.321 10.378-74.127-10.892-84.114-47.323l-5.193-18.943c-59.526 0-108.721 44.235-116.506 101.627l3.466.001 174.477 190.875c45.465 49.738 109.747 78.07 177.134 78.07z"
        fill="#ff7d97"></path>
      <path
        d="m245.789 187.937 91.037 157.145 54.276-30.093c-6.149-6.648-11.092-14.452-14.434-23.112l-59.572-154.325c-6.889-17.847-26.256-27.492-44.65-22.236-29.633 10.553-42.425 45.403-26.657 72.621z"
        fill="#fff"></path>
      <g fill="#e2e9ee">
        <path
          d="m421.708 419.621h80.292c0-35.736-23.279-67.304-57.418-77.866l-21.689-6.709c-12.343-3.819-23.256-10.822-31.811-20.079l-.013.016c-32.894 24.839-69.354 45.204-108.476 60.193 40.294 28.667 88.838 44.445 139.115 44.445z"></path>
        <path
          d="m153.595 151.966c0-32.884-19.281-61.264-47.155-74.452-20.682 17.816-35.094 42.705-39.478 70.915.69.75 1.379 1.498 2.069 2.247h1.066l56.719 62.05c16.457-15.051 26.779-36.7 26.779-60.76z"></path>
      </g>
    </g>
    <g>
      <path
        d="m494.142 365.312c-11.683-15.843-27.799-27.293-46.604-33.11l-21.689-6.71c-18.393-5.69-32.918-19.255-39.852-37.216l-59.573-154.326c-8.76-22.695-33.119-34.769-56.521-28.304-.034.008.103-.029 0 0-14.979 4.28-30.91 2.484-44.487-5.155-13.577-7.638-23.323-20.119-27.441-35.143l-5.193-18.943c-1.191-4.344-5.14-7.356-9.644-7.356-31.053 0-60.979 11.288-84.264 31.785-21.886 19.265-36.474 45.344-41.425 73.848-17.603 8.094-30.376 23.569-34.994 42.988-5.451 22.925 1.717 46.06 19.175 61.887l94.691 85.845h-98.877c-5.523 0-10 4.477-10 10s4.477 10 10 10h120.939l79.252 71.848c11.115 10.076 23.359 18.596 36.415 25.439h-122.381c-5.523 0-10 4.477-10 10s4.477 10 10 10l306.866.262h.139c14.219 0 27.588-5.527 37.659-15.572 10.103-10.079 15.667-23.488 15.667-37.758 0-19.685-6.175-38.465-17.858-54.309zm-52.516-14.003c26.894 8.32 45.897 31.089 49.672 58.312h-69.59c-41.719 0-82.363-11.451-117.638-32.427 30.357-13.149 59.223-29.602 86.097-49.108 8.527 7.403 18.606 13.059 29.77 16.513zm-133.86-210.157 5.908 15.305-13.664 6.209c-5.028 2.285-7.252 8.213-4.967 13.241 1.675 3.687 5.308 5.865 9.11 5.865 1.383 0 2.79-.289 4.131-.898l12.604-5.728 12.015 31.127-14.617 6.642c-5.028 2.285-7.252 8.213-4.967 13.241 1.675 3.687 5.308 5.866 9.11 5.866 1.383 0 2.79-.289 4.131-.898l13.558-6.161 12.406 32.138-9.609 4.367c-5.028 2.285-7.252 8.213-4.967 13.241 1.675 3.687 5.308 5.865 9.11 5.865 1.383 0 2.79-.289 4.131-.898l8.549-3.885 7.599 19.687c2.441 6.324 5.602 12.23 9.376 17.641-11.012 7.912-22.367 15.293-34.032 22.121l-88.24-152.316c-6.021-10.395-7.101-22.824-2.962-34.102 4.103-11.179 12.854-19.898 24.031-23.975 13.411-3.661 27.236 3.3 32.256 16.305zm-199.688-51.439c21.768 12.921 35.516 36.673 35.516 62.253 0 16.886-5.981 33.207-16.633 46.098l-49.076-53.688c4.484-21.286 15.264-40.13 30.193-54.663zm374.13 353.505c-6.294 6.279-14.648 9.732-23.536 9.732-.028 0-.058 0-.086 0l-103.569-.262c-38.505-.097-75.422-14.394-103.95-40.256l-196.004-177.693c-11.973-10.854-16.889-26.721-13.15-42.443 3.274-13.767 12.523-24.646 25.232-30.028l99.155 108.474.008-.007c1.826 1.967 4.427 3.206 7.323 3.206 5.523 0 10-4.477 10-10 0-2.574-.98-4.912-2.578-6.684l.009-.008-40.49-44.295c14.731-16.764 23.024-38.49 23.024-60.986 0-30.138-14.946-58.291-39.094-75.416 14.975-9.773 32.451-15.92 51.082-17.235l3.104 11.321c5.542 20.215 18.655 37.008 36.923 47.286 7.958 4.477 16.466 7.474 25.2 8.957-3.359 4.555-6.105 9.605-8.105 15.052-6.192 16.872-4.578 35.467 4.432 51.018l88.053 151.994c-13.36 7.013-27.081 13.324-41.114 18.904-11.523-8.595-22.296-18.296-32.121-29.044l-10.174-11.13c-3.727-4.077-10.051-4.36-14.128-.634-4.076 3.726-4.36 10.051-.634 14.128l10.174 11.13c47.242 51.682 114.495 81.323 184.515 81.323h68.774c-1.591 5.078-4.398 9.73-8.275 13.596z"></path>
      <path
        d="m100.655 452.689h-70.056c-5.523 0-10 4.477-10 10s4.477 10 10 10h70.056c5.523 0 10-4.477 10-10s-4.477-10-10-10z"></path>
      <path
        d="m47.444 404.045c0-5.523-4.477-10-10-10h-27.444c-5.523 0-10 4.477-10 10s4.477 10 10 10h27.444c5.523 0 10-4.477 10-10z"></path>
      <path
        d="m148.656 414.045c5.523 0 10-4.477 10-10s-4.477-10-10-10h-63.884c-5.523 0-10 4.477-10 10s4.477 10 10 10z"></path>
      <circle cx="204.05" cy="297.201" r="10"></circle>
    </g>
  </g>
</svg>