<svg id="fi_3271154" enable-background="new 0 0 511.5 511.5" height="512" viewBox="0 0 511.5 511.5"
  width="512" xmlns="http://www.w3.org/2000/svg">
  <g>
    <g>
      <path
        d="m47.5 503.75h360c-22.091 0-40-17.909-40-40v-90-366h-360v456c0 22.091 17.909 40 40 40z"
        fill="#e3edf6"></path>
      <path d="m407.5 503.75c22.091 0 40-17.909 40-40v-60h-80v60c0 22.091 17.909 40 40 40z"
        fill="#c5d9ec"></path>
      <path d="m196.642 339.323-14.142 42.427 42.427-14.142 191.579-191.579-28.284-28.285z"
        fill="#f88fa4"></path>
      <path
        d="m434.183 137.138-7.071-7.071c-5.858-5.858-15.355-5.858-21.213 0l-17.678 17.677 28.284 28.284 17.678-17.678c5.858-5.857 5.858-15.354 0-21.212z"
        fill="#e3edf6"></path>
      <g fill="#ffe4c2">
        <path
          d="m300.04 235.92-51.25 8.54-8 40-1.53 21.07c-1.35 18.55-16.8 32.81-35.26 32.81-.4 0-.81-.01-1.21-.02l-7-57.86 10-71 55-26 89.04 2.67z"></path>
        <path
          d="m511.5 217.46h-101.71l-23.76-10.96-57.6 57.6 16.36 16.36-22 28-25 9-39.43 1.25c-6.57.21-12.46 3.01-16.71 7.4s-6.86 10.37-6.86 16.94c0 13.85 11.55 24.92 25.39 24.32l44.61-1.91 50-14 50-28h106.71z"></path>
      </g>
    </g>
    <g fill="#fff">
      <path d="m293.5 456.25h15v15h-15z"></path>
      <path d="m323.5 456.25h15v15h-15z"></path>
      <path d="m133.5 380.25h15v15h-15z"></path>
    </g>
    <g>
      <path
        d="m375 372.75h-15v91c0 12.564 4.912 23.996 12.906 32.5h-295.406v15h330c26.191 0 47.5-21.309 47.5-47.5v-67.5h-80zm65 38.5v52.5c0 17.921-14.58 32.5-32.5 32.5s-32.5-14.579-32.5-32.5v-52.5z"></path>
      <path d="m15 15.25h133.643v-15h-148.643v196.357h15z"></path>
      <path
        d="m15.883 471.25h261.617v-15h-262.5v-244.643h-15v252.143c0 26.191 21.309 47.5 47.5 47.5h15v-15h-15c-15.339 0-28.221-10.685-31.617-25z"></path>
      <path d="m360 131.75h15v-131.5h-211.357v15h196.357z"></path>
      <path d="m52.5 80.25h50v15h-50z"></path>
      <path d="m222.5 80.25h50v15h-50z"></path>
      <path d="m117.5 80.25h90v15h-90z"></path>
      <path d="m287.5 80.25h35v15h-35z"></path>
      <path d="m52.5 130.25h35v15h-35z"></path>
      <path d="m102.5 130.25h50v15h-50z"></path>
      <path d="m272.5 130.25h50v15h-50z"></path>
      <path d="m167.5 130.25h90v15h-90z"></path>
      <path d="m127.5 180.25h35v15h-35z"></path>
      <path d="m52.5 180.25h60v15h-60z"></path>
      <path d="m102.5 230.25h60v15h-60z"></path>
      <path d="m52.5 230.25h35v15h-35z"></path>
      <path d="m127.5 280.25h35v15h-35z"></path>
      <path d="m52.5 280.25h60v15h-60z"></path>
      <path d="m52.5 330.25h35v15h-35z"></path>
      <path d="m102.5 330.25h60v15h-60z"></path>
      <path d="m52.5 380.25h66v15h-66z"></path>
      <path d="m454.367 315.96h57.133v15h-57.133z"></path>
      <path
        d="m411.437 209.96-12.493-5.763 40.543-40.543c4.25-4.25 6.59-9.9 6.59-15.91s-2.341-11.66-6.59-15.91l-7.071-7.071c-8.772-8.771-23.047-8.771-31.819 0l-53.773 53.773-87.609-2.627-60.286 28.499-10.701 75.978 6.124 50.622-4.264 4.264-19.445 58.337 58.336-19.445 8.136-8.135c5.719 5.485 13.467 8.866 21.994 8.866.464 0 .93-.01 1.394-.03l45.476-1.947 51.697-14.475 49.073-27.481h32.62v-15h-36.534l-50.927 28.519-48.303 13.525-43.749 1.873c-9.611.41-17.564-7.29-17.564-16.827 0-4.396 1.686-8.56 4.749-11.723 3.061-3.162 7.166-4.98 11.559-5.121l40.616-1.287 28.143-10.132 27.441-34.926-15.759-15.759 48.6-48.601 20.504 9.458h103.355v-15h-100.063zm-.234-74.59c2.925-2.923 7.683-2.924 10.606 0l7.071 7.071c1.417 1.416 2.197 3.3 2.197 5.303s-.78 3.887-2.197 5.303l-12.375 12.375-17.677-17.677zm-190.328 225.682-26.517 8.84 8.026-24.079.222.005c.46.011.933.021 1.393.021 8.667 0 16.791-2.637 23.592-7.156-.197 1.437-.302 2.894-.302 4.366 0 3.485.57 6.838 1.609 9.979zm12.469-77.603-1.563 21.537c-.922 12.665-10.352 22.934-22.404 25.326l-6.022-49.778 9.299-66.022 49.714-23.501 69.886 2.096-35.809 35.809-53.992 8.998zm44.851-36.285-27.872 27.872 4.806-24.029zm40.028 54.969-21.857 7.868-3.331.106 35.398-35.398 6.349 6.35zm-47.097 8.668-13.006.413c-4.511.144-8.857 1.23-12.817 3.142.739-2.665 1.23-5.434 1.437-8.283l.489-6.73 140.992-140.992 17.677 17.677z"></path>
    </g>
  </g>
</svg>