<svg id="fi_2785394" enable-background="new 0 0 512 512" height="512" viewBox="0 0 512 512"
  width="512" xmlns="http://www.w3.org/2000/svg">
  <g>
    <path
      d="m402.168 385.247 6.056-302.741-325.731-.009v421.999h209.997c46.572.01 86.052-30.305 99.804-72.28 3.374-10.3 9.879-35.55 9.874-46.969z"
      fill="#f795ca"></path>
    <path
      d="m504.5 82.5c-.001-21.615-15.254-39.681-35.588-44.007l-82.238 314.518c6.922 14.011 10.82 29.8 10.824 46.49.005 11.419-1.829 22.414-5.201 32.706l109.976-335.683c1.445-4.41 2.23-9.119 2.227-14.024z"
      fill="#b95289"></path>
    <path
      d="m473.764 87.184-87.09 265.827c-17.157-34.675-52.881-58.512-94.175-58.508l127.494-233.565c7.638-13.966 22.474-23.438 39.509-23.434 3.219.002 6.371.34 9.41.989 7.391 4.358 10.912 17.665 8.172 35.025-.738 4.662-1.875 9.256-3.32 13.666z"
      fill="#d762a1"></path>
    <path d="m82.5 7.5v422h75s0-305.579 0-347-33.579-75-75-75z" fill="#f472b8"></path>
    <path d="m82.5 7.5c-41.421 0-75 33.579-75 75s0 347 0 347h120s0-305.579 0-347-20.147-75-45-75z"
      fill="#f795ca"></path>
    <circle cx="82.5" cy="429.5" fill="#d762a1" r="75"></circle>
    <circle cx="82.5" cy="429.5" fill="#b95289" r="45"></circle>
    <circle cx="82.5" cy="429.5" fill="#d762a1" r="15"></circle>
    <path
      d="m82.5 377c-28.949 0-52.5 23.552-52.5 52.5s23.551 52.5 52.5 52.5 52.5-23.552 52.5-52.5-23.551-52.5-52.5-52.5zm0 90c-20.678 0-37.5-16.822-37.5-37.5s16.822-37.5 37.5-37.5 37.5 16.822 37.5 37.5-16.822 37.5-37.5 37.5z"></path>
    <path
      d="m82.5 407c-12.407 0-22.5 10.094-22.5 22.5s10.093 22.5 22.5 22.5 22.5-10.094 22.5-22.5-10.093-22.5-22.5-22.5zm0 30c-4.136 0-7.5-3.364-7.5-7.5s3.364-7.5 7.5-7.5 7.5 3.364 7.5 7.5-3.364 7.5-7.5 7.5z"></path>
    <path
      d="m459.5 30c-19.206 0-36.866 10.476-46.091 27.345l-9.637 17.655h-216.272c-4.142 0-7.5 3.357-7.5 7.5s3.358 7.5 7.5 7.5h208.084l-109.667 200.906c-1.269 2.324-1.218 5.145.133 7.421 1.351 2.277 3.802 3.673 6.45 3.673 53.762 0 97.5 43.738 97.5 97.5s-43.738 97.5-97.5 97.5h-162.653c21.237-14.941 35.153-39.619 35.153-67.5v-347c0-45.49-37.009-82.5-82.5-82.5s-82.5 37.01-82.5 82.5v347c0 45.49 37.009 82.5 82.5 82.5h210c49.803 0 92.151-32.527 106.913-77.456.018.006 109.987-335.689 109.987-335.689 1.725-5.267 2.6-10.769 2.6-16.355 0-28.948-23.551-52.5-52.5-52.5zm-444.5 52.5c0-37.22 30.28-67.5 67.5-67.5s67.5 30.28 67.5 67.5v299.653c-14.941-21.236-39.619-35.153-67.5-35.153s-52.559 13.917-67.5 35.153zm0 347c0-37.22 30.28-67.5 67.5-67.5s67.5 30.28 67.5 67.5-30.28 67.5-67.5 67.5-67.5-30.28-67.5-67.5zm480.146-335.314-92.499 282.363c-9.814-47.154-49.235-83.584-97.872-88.884l121.797-223.128c6.591-12.051 19.208-19.537 32.928-19.537 20.678 0 37.5 16.822 37.5 37.5 0 3.998-.624 7.93-1.854 11.686z"></path>
  </g>
</svg>