<?xml version="1.0" standalone="no"?>
<!DOCTYPE svg PUBLIC "-//W3C//DTD SVG 1.1//EN" "http://www.w3.org/Graphics/SVG/1.1/DTD/svg11.dtd">
<svg xmlns="http://www.w3.org/2000/svg">
<defs >
<font id="Barlow" horiz-adv-x="511" ><font-face
    font-family="Barlow"
    units-per-em="1000"
    panose-1="0 0 8 0 0 0 0 0 0 0"
    ascent="1000"
    descent="-200"
    alphabetic="0" />
<glyph unicode=" " glyph-name="space" horiz-adv-x="194" />
<glyph unicode="!" glyph-name="exclam" horiz-adv-x="333" d="M129 240T126 243T124 252L165 688Q166 693 169 696T178 700H292Q297 700 300 697T302 688L234 252Q233 247 230 244T221 240H134Q129 240 126 243ZM113 1T94 20T75 68Q75 108 100 133T162 159Q193
159 211 141T229 93Q229 55 204 28T143 1Q113 1 94 20Z" />
<glyph unicode="&quot;" glyph-name="quotedbl" horiz-adv-x="348" d="M73 471T70 474T67 483L79 686Q81 698 92 698H200Q212 698 209 686L172 483Q171 471 158 471H78Q73 471 70 474ZM265 471T262 474T259 483L271 686Q273 698 284 698H391Q403 698 400 686L363
483Q362 471 349 471H270Q265 471 262 474Z" />
<glyph unicode="#" glyph-name="numbersign" horiz-adv-x="666" d="M651 411T647 408T638 404H566Q561 404 559 399L533 300Q531 295 536 295H590Q595 295 598 292T600 283L588 187Q588 182 584 179T575 175H504Q499 175 497 170L462 38Q459 27 448 27H334Q322
27 325 40L360 170Q362 175 357 175H260Q254 175 254 170L218 38Q215 27 204 27H91Q78 27 82 40L117 170Q117 175 114 175H59Q54 175 51 178T49 187L61 283Q62 288 65 291T74 295H146Q152 295 152 300L179 399Q179 404 176 404H123Q118 404 115 407T113 416L125
513Q126 518 129 521T138 525H209Q215 525 215 530L251 662Q254 673 265 673H378Q391 673 388 660L352 530Q352 525 355 525H451Q453 525 455 526T458 530L494 662Q495 673 507 673H621Q633 673 630 660L595 530Q593 525 598 525H654Q659 525 662 522T664 513L652
416Q651 411 647 408ZM394 295T396 300L422 399Q424 404 419 404H322Q316 404 316 399L289 300Q289 295 292 295H389Q394 295 396 300Z" />
<glyph unicode="$" glyph-name="dollar" horiz-adv-x="554" d="M512 115T458 63T320 -3Q315 -5 314 -9L307 -74Q306 -79 303 -82T294 -86H197Q192 -86 189 -83T187 -74L196 -8Q196 -3 192 -2Q119 13 79 58T38 172Q38 181 40 201L43 223Q44 228 47 231T56 235H161Q166
235 169 232T171 223L169 208Q164 168 195 141T285 113Q337 113 364 138T392 200Q392 221 378 236T341 262T268 295Q212 317 175 338T111 396T85 484Q85 492 87 510Q97 587 148 637T277 703Q283 705 283 709L290 782Q291 787 294 790T303 794H400Q405 794 408 791T410
782L400 707Q400 702 404 701Q475 686 515 639T556 522Q556 513 554 493L552 478Q552 473 548 470T539 466H434Q423 466 423 478L424 486Q425 490 425 499Q425 536 397 561T317 587Q270 587 243 565T215 502Q215 480 228 465T267 437T346 403Q404 379 437 361T497
309T524 221Q524 213 522 195Q512 115 458 63Z" />
<glyph unicode="%" glyph-name="percent" horiz-adv-x="800" d="M183 393T145 432T106 532Q106 578 130 619T196 684T282 709Q340 709 378 670T417 571Q417 523 393 483T329 418T243 393Q183 393 145 432ZM148 0T148 6Q148 10 151 14L600 692Q606 700 616 700H687Q696
700 696 694Q696 691 693 686L245 8Q240 0 230 0H157Q148 0 148 6ZM286 475T310 501T335 562Q335 590 317 608T272 626Q239 626 214 601T188 541Q188 513 206 494T253 475Q286 475 310 501ZM513 -9T475 31T436 131Q436 177 460 218T525 283T611 307Q669 307 708
268T747 170Q747 122 723 81T659 16T572 -9Q513 -9 475 31ZM616 74T640 100T665 161Q665 189 647 207T601 225Q568 225 543 200T518 140Q518 111 536 93T582 74Q616 74 640 100Z" />
<glyph unicode="&amp;" glyph-name="ampersand" horiz-adv-x="684" d="M620 12T620 8Q620 0 608 0H481Q473 0 467 7L435 49Q433 52 428 50Q331 -8 227 -8Q143 -8 89 30T34 143Q34 150 36 168Q44 235 84 281T190 364Q196 368 192 371Q157 422 144 453T131 513Q131
566 159 610T238 681T352 708Q435 708 485 665T536 549Q536 479 496 429T388 336Q382 333 385 329L416 287L460 228Q463 224 467 228Q507 266 537 308Q545 319 553 312L632 263Q637 260 637 255Q637 252 634 247Q587 183 535 132Q533 130 536 123L617 15Q620 12
620 8ZM308 580T288 563T268 517Q268 504 276 487T309 434Q311 430 316 432Q356 457 377 479T398 530Q398 553 382 566T339 580Q308 580 288 563ZM292 110T355 144Q361 148 357 151L328 190L312 211Q308 216 269 267Q268 270 263 268Q226 246 205 226T177 180Q175
168 175 163Q175 138 194 124T246 110Q292 110 355 144Z" />
<glyph unicode="&apos;" glyph-name="quotesingle" horiz-adv-x="163" d="M73 473T70 476T67 485L80 687Q80 699 92 699H207Q219 699 216 687L179 485Q178 473 165 473H78Q73 473 70 476Z" />
<glyph unicode="(" glyph-name="parenleft" horiz-adv-x="337" d="M99 -91T95 -84Q14 45 14 229Q14 278 20 332Q36 463 84 569T198 752Q205 759 213 759H323Q330 759 332 755T330 745Q201 559 174 333Q167 278 167 224Q167 60 229 -77Q230 -79 230 -82Q230 -86
227 -88T219 -91H108Q99 -91 95 -84Z" />
<glyph unicode=")" glyph-name="parenright" horiz-adv-x="337" d="M281 759T285 752Q323 693 344 615T366 441Q366 387 359 335Q343 204 296 98T182 -84Q175 -91 166 -91H57Q50 -91 48 -87T50 -77Q179 110 206 335Q213 388 213 443Q213 602 151 745Q150 747 150
750Q150 754 153 756T161 759H272Q281 759 285 752Z" />
<glyph unicode="*" glyph-name="asterisk" horiz-adv-x="387" d="M190 393T187 396T185 405L197 495Q197 498 195 499T191 498L104 449Q100 447 97 447Q91 447 88 454L67 506Q66 508 66 511Q66 520 74 523L161 568Q165 571 162 574L85 617Q80 620 80 625Q80 630
83 634L116 686Q120 691 124 692T133 691L209 643Q211 642 213 643T215 647L225 735Q226 740 229 743T238 747H293Q298 747 301 744T304 735L292 647Q291 644 293 643T297 643L385 691Q389 693 391 693Q397 693 400 686L421 634Q422 632 422 628Q422 621 414 618L327
574Q321 571 326 568L403 523Q408 521 408 514Q408 509 406 506L372 454Q368 449 364 448T355 449L279 498Q277 500 276 499T273 495L263 405Q262 400 259 397T250 393H195Q190 393 187 396Z" />
<glyph unicode="+" glyph-name="plus" horiz-adv-x="471" d="M462 361T465 358T467 349L455 252Q454 247 451 244T442 240H309Q305 240 303 235L287 100Q286 95 283 92T274 88H181Q170 88 170 100L187 235Q187 240 183 240H50Q45 240 42 243T40 252L52 349Q52
354 56 357T65 361H198Q200 361 201 362T203 366L220 504Q221 509 224 512T233 516H326Q331 516 334 513T336 504L319 366Q319 361 324 361H457Q462 361 465 358Z" />
<glyph unicode="," glyph-name="comma" horiz-adv-x="257" d="M7 -98T10 -85L70 147Q73 158 84 158H183Q195 158 191 145L103 -88Q99 -98 88 -98H19Q7 -98 10 -85Z" />
<glyph unicode="-" glyph-name="hyphen" horiz-adv-x="397" d="M44 235T41 238T39 247L51 344Q52 349 55 352T64 356H381Q386 356 389 353T391 344L380 247Q379 242 375 239T366 235H49Q44 235 41 238Z" />
<glyph unicode="." glyph-name="period" horiz-adv-x="262" d="M76 -4T57 15T38 65Q38 103 63 128T126 154Q157 154 175 136T194 86Q194 48 168 22T106 -4Q76 -4 57 15Z" />
<glyph unicode="/" glyph-name="slash" horiz-adv-x="458" d="M0 0T6 14L338 691Q343 700 353 700H465Q479 700 473 686L141 9Q137 0 126 0H14Q0 0 6 14Z" />
<glyph unicode="0" glyph-name="zero" horiz-adv-x="553" d="M158 -11T104 40T50 181Q50 205 52 218L84 482Q97 586 166 647T343 708Q440 708 494 658T549 519Q549 495 547 482L515 218Q502 112 432 51T255 -11Q158 -11 104 40ZM313 110T342 137T377 211L411 486Q412
492 412 502Q412 542 390 564T328 587Q285 587 256 560T222 486L188 211Q187 205 187 193Q187 154 209 132T270 110Q313 110 342 137Z" />
<glyph unicode="1" glyph-name="one" horiz-adv-x="343" d="M217 700T227 700H344Q349 700 352 697T354 688L271 12Q270 7 267 4T258 0H145Q134 0 134 12L202 560Q202 562 200 564T196 565L97 538L93 537Q84 537 86 548L93 634Q95 643 104 648L212 697Q217 700 227 700Z" />
<glyph unicode="2" glyph-name="two" horiz-adv-x="543" d="M220 125T220 123T224 121H487Q492 121 495 118T497 109L486 12Q485 7 481 4T472 0H36Q31 0 28 3T26 12L37 104Q39 114 45 119Q117 185 222 291Q288 357 288 357Q388 457 395 507L396 518Q396 549 375
568T317 587Q278 587 252 565T220 505L217 480Q216 475 213 472T204 468H89Q84 468 81 471T79 480L85 527Q100 609 169 658T332 708Q395 708 441 686T511 624T535 534Q535 486 509 436T430 329Q397 292 347 244T246 149L222 127Q220 125 220 123Z" />
<glyph unicode="3" glyph-name="three" horiz-adv-x="523" d="M493 304T493 266Q493 241 491 228Q484 175 461 128Q429 64 371 28T237 -8Q163 -8 112 30T44 133Q38 162 38 192Q38 209 39 217Q40 223 43 226T52 229H167Q179 229 177 217Q177 186 182 168Q187 142
205 128T251 113Q305 113 331 162Q348 192 353 232Q355 254 355 264Q355 291 348 309Q331 356 279 356Q263 356 226 331Q222 328 218 328Q213 328 210 334L163 417Q161 421 161 423Q161 430 167 434L338 573Q340 575 340 577T337 579H109Q104 579 101 582T99 591L111
688Q112 693 115 696T124 700H528Q533 700 536 697T538 688L525 578Q524 569 516 563L374 443Q372 441 372 439T376 437Q458 420 484 334Q493 304 493 266Z" />
<glyph unicode="4" glyph-name="four" horiz-adv-x="587" d="M553 305T556 302T558 293L545 192Q545 187 541 184T532 180H491Q487 180 485 175L465 12Q464 7 461 4T452 0H339Q328 0 328 12L348 175Q350 180 344 180H46Q41 180 38 183T36 192L46 272Q48 280 51
287L275 691Q280 700 290 700H411Q418 700 420 697T418 686L210 311Q208 305 212 305H359Q365 305 365 310L380 434Q381 439 384 442T393 446H507Q512 446 515 443T517 434L502 310Q500 305 506 305H548Q553 305 556 302Z" />
<glyph unicode="5" glyph-name="five" horiz-adv-x="522" d="M501 294T501 261Q501 236 499 224Q493 174 472 132Q443 69 382 31T245 -7Q171 -7 120 29T53 129Q47 151 45 184Q45 197 58 197H176Q185 197 187 186Q189 176 191 169Q197 143 215 129T259 115Q286
115 308 130T343 172Q355 191 359 224Q360 231 360 245Q360 260 357 276Q353 302 335 316T289 330Q261 330 236 317T202 283Q197 273 188 273H68Q63 273 60 276T58 285L108 688Q109 693 112 696T121 700H521Q526 700 529 697T532 688L520 591Q519 586 516 583T507
579H236Q231 579 231 574L211 426Q211 419 217 423Q263 452 321 452Q388 452 435 417T496 319Q501 294 501 261Z" />
<glyph unicode="6" glyph-name="six" horiz-adv-x="521" d="M500 308T500 266Q500 247 497 224Q490 166 466 120Q433 61 376 27T246 -7Q171 -7 121 28T54 127Q47 152 47 187Q47 199 49 225L86 526Q92 580 125 621T210 685T327 708Q415 708 467 666T519 552Q519
537 518 529L515 501Q514 496 510 493T501 489H388Q383 489 380 492T378 501L379 510Q383 543 364 565T312 587Q276 587 250 565T220 507L209 413Q208 410 210 410T214 411Q259 446 324 446Q382 446 425 419T488 339Q500 308 500 266ZM361 195T361 242Q361 271
353 288Q333 328 287 328Q235 328 209 287Q192 262 186 220Q185 213 185 199Q185 177 191 159Q207 115 260 115Q310 115 338 159Q361 195 361 242Z" />
<glyph unicode="7" glyph-name="seven" horiz-adv-x="481" d="M87 0T93 14L372 573Q374 579 369 579H187Q185 579 184 578T182 574L176 528Q176 523 172 520T163 516H75Q70 516 67 519T65 528L85 688Q86 693 90 696T99 700H522Q533 700 533 688L520 587Q520 582
515 572L237 9Q233 0 222 0H101Q87 0 93 14Z" />
<glyph unicode="8" glyph-name="eight" horiz-adv-x="525" d="M496 275T496 234Q496 225 494 205Q485 143 457 102Q425 51 370 22T242 -8Q174 -8 123 20T52 103Q40 136 40 175Q40 186 42 206Q49 262 77 309Q96 343 132 366Q137 369 133 373Q113 392 99 421Q86
452 86 486Q86 527 100 564T141 631Q174 670 223 691T331 713Q390 713 433 691T499 631Q525 590 525 538Q525 472 487 418Q467 391 442 374Q437 370 441 367Q471 345 484 308Q496 275 496 234ZM226 530T223 506Q222 500 222 490Q222 472 229 454Q247 418 294 418Q341
418 369 454Q385 476 388 507Q389 511 389 520Q389 532 384 549Q376 569 359 580T314 592Q291 592 271 581T238 548Q226 530 223 506ZM359 185T359 238Q359 259 352 280Q335 322 282 322Q232 322 205 281Q181 247 181 196Q181 171 191 151Q209 113 257 113Q304
113 331 148Q359 185 359 238Z" />
<glyph unicode="9" glyph-name="nine" horiz-adv-x="515" d="M515 549T515 517Q515 496 512 475L475 174Q469 120 437 79T352 15T236 -8Q148 -8 95 34T42 148Q42 163 43 171L47 199Q48 204 51 207T60 211H173Q184 211 184 199L182 190Q178 157 197 135T251 113Q286
113 311 135T341 193L352 286Q353 289 351 290T347 289Q303 254 238 254Q180 254 137 281T74 361Q62 394 62 437Q62 463 64 476Q71 535 96 580Q128 639 186 673T317 707Q391 707 441 672T508 573Q515 549 515 517ZM326 372T353 413Q370 438 376 480Q377 487 377
501Q377 523 371 541Q355 585 303 585Q252 585 224 541Q200 505 200 461Q200 432 210 412Q228 372 276 372Q326 372 353 413Z" />
<glyph unicode=":" glyph-name="colon" horiz-adv-x="353" d="M165 332T146 351T127 401Q127 439 152 464T215 490Q246 490 264 472T283 422Q283 384 257 358T195 332Q165 332 146 351ZM124 5T105 24T86 74Q86 112 111 137T174 163Q205 163 223 145T242 95Q242
57 216 31T154 5Q124 5 105 24Z" />
<glyph unicode=";" glyph-name="semicolon" horiz-adv-x="306" d="M138 313T117 334T95 389Q95 415 110 437T148 472T195 486Q227 486 250 464T274 410Q274 370 245 342T173 313Q138 313 117 334ZM47 -97T45 -94T43 -84L94 145Q97 156 107 156H206Q219 156 215
143L135 -87Q131 -97 121 -97H53Q47 -97 45 -94Z" />
<glyph unicode="&lt;" glyph-name="less" horiz-adv-x="471" d="M428 32T424 30T414 30L43 209Q35 214 36 223L49 325Q49 334 59 339L474 518Q478 520 480 520Q483 520 485 517T486 509L473 400Q471 390 463 386L190 277Q184 274 189 271L435 163Q444 159 442
149L429 39Q428 32 424 30Z" />
<glyph unicode="=" glyph-name="equal" horiz-adv-x="471" d="M56 333T53 336T51 345L63 442Q63 447 67 450T76 454H468Q473 454 476 451T478 442L466 345Q465 340 462 337T453 333H61Q56 333 53 336ZM289 397T286 400T284 409L296 506Q296 511 300 514T309 518H701Q706
518 709 515T711 506L699 409Q698 404 695 401T686 397H294Q289 397 286 400Z" />
<glyph unicode="&gt;" glyph-name="greater" horiz-adv-x="471" d="M22 28T20 28Q12 28 14 39L27 149Q29 159 37 163L310 271Q316 274 310 277L65 386Q56 390 58 400L71 509Q72 516 76 518T86 518L457 339Q465 334 464 325L451 223Q451 214 441 209L26 30Q22 28 20 28Z" />
<glyph unicode="?" glyph-name="question" horiz-adv-x="506" d="M182 222T179 225T177 234L181 266Q187 316 215 346T295 411Q337 439 358 459T382 510Q386 542 365 561T306 581Q265 581 238 560T207 506L205 490Q204 479 192 479L79 484Q74 484 71 487T69 496L70
506Q77 566 112 612T202 684T325 710Q417 710 470 665T523 542Q523 533 521 515Q516 471 497 440T455 388T394 344Q356 318 338 301T316 257L313 234Q312 229 309 226T300 222H187Q182 222 179 225ZM181 -2T163 17T144 67Q144 105 169 130T231 155Q262 155 280
137T299 88Q299 50 274 24T212 -2Q181 -2 163 17Z" />
<glyph unicode="@" glyph-name="at" horiz-adv-x="795" d="M593 659T655 627T751 536T784 399Q784 350 771 299Q747 201 694 147T562 92Q528 92 503 102T463 133Q460 137 456 133Q434 113 405 103T347 93Q293 93 263 123T233 201Q233 234 245 277Q255 323 274
360Q297 409 337 435T422 462Q470 462 492 432Q494 429 496 429T498 433L502 449Q505 460 516 460H584Q596 460 593 447L546 261Q541 241 541 227Q541 205 551 192T580 179Q609 179 632 208T669 293Q682 344 682 388Q682 475 631 521T489 567Q410 567 340 532T221
431T151 274Q141 233 141 192Q141 103 193 54T337 5Q383 5 423 16T490 44Q493 46 498 46Q504 46 506 41L538 -13Q540 -17 540 -19Q540 -25 534 -29Q495 -57 435 -73T315 -90Q234 -90 173 -58T77 36T43 181Q43 229 55 283Q80 394 148 479T310 612T507 659Q593 659
655 627ZM410 173T434 215Q448 238 457 278Q464 313 466 339Q466 358 454 369T422 381Q402 381 385 370T357 339Q347 323 333 273Q323 235 325 215Q327 195 338 184T371 173Q410 173 434 215Z" />
<glyph unicode="A" glyph-name="A" horiz-adv-x="651" d="M462 0T460 10L443 108Q443 109 442 110T439 112H200Q197 112 195 108L154 10Q151 0 141 0H17Q11 0 9 4T9 14L302 690Q307 700 316 700H468Q477 700 480 690L606 14V11Q606 6 603 3T595 0H471Q462 0 460
10ZM243 221T247 221H418Q423 221 423 227L372 524Q371 528 369 528T366 524L244 227Q243 221 247 221Z" />
<glyph unicode="B" glyph-name="B" horiz-adv-x="601" d="M481 362T486 359Q561 318 561 227Q561 218 559 196Q547 99 477 50T303 0H51Q46 0 43 3T41 12L124 688Q125 693 128 696T137 700H381Q589 700 589 543Q589 520 587 508Q576 409 487 365Q481 362 486 359ZM250
579T249 578T247 574L228 418Q226 413 232 413H346Q391 413 419 434T452 495L453 507Q453 541 431 560T366 579H252Q250 579 249 578ZM367 122T395 149T424 225Q424 260 402 279T338 298H218Q213 298 213 293L192 127Q192 122 196 122H318Q367 122 395 149Z" />
<glyph unicode="C" glyph-name="C" horiz-adv-x="590" d="M173 -8T113 48T53 198Q53 222 55 235L83 466Q92 538 130 593T229 678T365 708Q469 708 529 654T590 510Q590 499 588 477Q586 467 575 466L461 459H459Q449 459 451 470Q452 476 452 487Q452 533 425
560T350 587Q298 587 263 555T221 470L191 229Q190 223 190 212Q190 167 217 140T292 113Q344 113 379 145T421 229Q423 240 434 240L547 235Q552 235 555 233T557 225Q549 156 511 103T413 21T277 -8Q173 -8 113 48Z" />
<glyph unicode="D" glyph-name="D" horiz-adv-x="599" d="M46 0T43 3T41 12L124 688Q125 693 128 696T137 700H380Q480 700 539 651T598 518Q598 508 596 488L562 212Q555 149 519 101T425 27T294 0H51Q46 0 43 3ZM192 121T196 121H314Q359 121 390 152T428 235L457
465Q458 472 458 484Q458 528 435 553T369 579H252Q250 579 249 578T247 574L192 126Q192 121 196 121Z" />
<glyph unicode="E" glyph-name="E" horiz-adv-x="567" d="M583 586T580 583T571 579H252Q250 579 249 578T247 574L228 419Q228 414 232 414H441Q446 414 449 411T451 402L439 305Q438 300 435 297T426 293H217Q212 293 212 288L192 126Q192 121 196 121H514Q525
121 525 109L513 12Q512 7 509 4T500 0H51Q46 0 43 3T41 12L124 688Q125 693 128 696T137 700H585Q590 700 593 697T596 688L584 591Q583 586 580 583Z" />
<glyph unicode="F" glyph-name="F" horiz-adv-x="543" d="M582 586T579 583T570 579H252Q250 579 249 578T247 574L228 419Q228 414 232 414H441Q446 414 449 411T451 402L439 305Q438 300 435 297T426 293H217Q212 293 212 288L178 12Q177 7 174 4T165 0H51Q46
0 43 3T41 12L124 688Q125 693 128 696T137 700H585Q590 700 593 697T595 688L583 591Q582 586 579 583Z" />
<glyph unicode="G" glyph-name="G" horiz-adv-x="594" d="M174 -8T114 49T53 201Q53 225 55 238L83 462Q92 535 130 591T229 677T365 708Q433 708 484 683T562 612T590 510Q590 500 588 482L587 475Q586 470 583 467T574 463H460Q455 463 452 466T450 475L451
478Q452 483 452 492Q452 534 425 560T350 587Q298 587 263 554T220 466L192 234Q191 228 191 216Q191 170 220 142T297 113Q348 113 381 140T420 217L426 262Q426 267 422 267H313Q308 267 305 270T303 279L314 371Q315 376 318 379T327 383H564Q569 383 572 380T574
371L558 239Q544 124 468 58T277 -8Q174 -8 114 49Z" />
<glyph unicode="H" glyph-name="H" horiz-adv-x="609" d="M486 693T489 696T498 700H612Q617 700 620 697T622 688L539 12Q538 7 535 4T526 0H412Q407 0 404 3T402 12L436 288Q436 293 432 293H217Q212 293 212 288L178 12Q177 7 174 4T165 0H51Q46 0 43 3T41
12L124 688Q125 693 128 696T137 700H251Q256 700 259 697T261 688L228 419Q228 414 232 414H447Q452 414 452 419L485 688Q486 693 489 696Z" />
<glyph unicode="I" glyph-name="I" horiz-adv-x="255" d="M46 0T43 3T41 12L124 688Q125 693 128 696T137 700H251Q256 700 259 697T261 688L178 12Q177 7 174 4T165 0H51Q46 0 43 3Z" />
<glyph unicode="J" glyph-name="J" horiz-adv-x="566" d="M141 -8T83 44T24 186Q24 196 26 220L34 283Q35 288 38 291T47 295H160Q171 295 171 283L163 220Q162 214 162 202Q162 161 187 137T256 113Q304 113 338 142T378 220L436 688Q436 693 440 696T449 700H561Q566
700 569 697T571 688L514 220Q506 152 469 101T372 21T242 -8Q141 -8 83 44Z" />
<glyph unicode="K" glyph-name="K" horiz-adv-x="607" d="M46 0T43 3T41 12L124 688Q125 693 128 696T137 700H251Q256 700 259 697T261 688L227 408Q226 405 228 405T232 406L492 693Q498 700 507 700H635Q645 700 645 693Q645 689 641 685L390 400Q386 396 388
393L570 14Q571 12 571 8Q571 0 561 0H433Q423 0 420 8L283 296Q282 298 280 298T276 296L205 217L202 211L178 12Q177 7 174 4T165 0H51Q46 0 43 3Z" />
<glyph unicode="L" glyph-name="L" horiz-adv-x="555" d="M46 0T43 3T41 12L124 688Q125 693 128 696T137 700H251Q256 700 259 697T261 688L192 126Q192 121 196 121H513Q524 121 524 109L512 12Q511 7 508 4T499 0H51Q46 0 43 3Z" />
<glyph unicode="M" glyph-name="M" horiz-adv-x="693" d="M567 700T576 700H689Q694 700 697 697T699 688L616 12Q616 7 612 4T603 0H490Q485 0 482 3T480 12L534 453Q534 457 532 457T528 454L405 288Q399 280 390 280H333Q324 280 321 288L238 454Q237 457 235
457T232 452L178 12Q177 7 174 4T165 0H51Q46 0 43 3T41 12L124 688Q125 693 128 696T137 700H251Q260 700 263 692L380 459Q383 453 386 459L561 692Q567 700 576 700Z" />
<glyph unicode="N" glyph-name="N" horiz-adv-x="646" d="M515 693T518 696T527 700H641Q646 700 649 697T651 688L568 12Q567 7 564 4T555 0H445Q436 0 433 8L234 436Q233 439 231 439T228 434L178 12Q177 7 174 4T165 0H51Q46 0 43 3T41 12L124 688Q125 693
128 696T137 700H247Q256 700 260 692L458 266Q459 263 461 263T464 268L514 688Q515 693 518 696Z" />
<glyph unicode="O" glyph-name="O" horiz-adv-x="603" d="M176 -11T115 47T53 204Q53 222 56 243L82 457Q91 531 130 588T230 676T368 708Q473 708 534 650T596 496Q596 477 593 457L567 243Q558 168 519 111T418 21T280 -11Q176 -11 115 47ZM349 110T385 145T430
238L457 458Q458 465 458 479Q458 529 430 558T353 587Q300 587 263 552T219 458L192 238Q191 231 191 217Q191 168 219 139T295 110Q349 110 385 145Z" />
<glyph unicode="P" glyph-name="P" horiz-adv-x="579" d="M493 701T544 652T596 518Q596 508 594 484Q586 421 553 373T466 299T348 272H210Q206 272 204 267L173 12Q172 7 169 4T160 0H47Q36 0 36 12L120 689Q120 694 124 697T133 701H406Q493 701 544 652ZM395
385T427 416T459 496Q459 534 435 556T371 579H248Q244 579 242 574L220 390Q218 385 224 385H347Q395 385 427 416Z" />
<glyph unicode="Q" glyph-name="Q" horiz-adv-x="576" d="M456 708T515 651T575 497Q575 478 572 457L545 233Q534 144 480 83T342 1Q337 -1 337 -4L327 -86Q326 -91 323 -94T314 -98H200Q195 -98 192 -95T190 -86L200 -5Q201 -1 197 0Q127 17 87 69T47 197Q47
221 49 233L76 457Q85 532 123 589T222 677T355 708Q456 708 515 651ZM436 464Q437 471 437 485Q437 531 411 559T340 587Q291 587 256 553T214 464L186 236Q185 229 185 216Q185 169 211 141T282 113Q332 113 366 147T408 236L436 464Z" />
<glyph unicode="R" glyph-name="R" horiz-adv-x="595" d="M403 0T400 9L313 286Q311 290 307 290H217Q212 290 212 285L178 12Q177 7 174 4T165 0H51Q46 0 43 3T41 12L124 688Q125 693 128 696T137 700H415Q500 700 549 652T598 523Q598 513 596 489Q588 421 549
373T449 304Q443 302 445 297L542 14Q543 12 543 9Q543 0 532 0H412Q403 0 400 9ZM250 579T249 578T247 574L226 403Q226 398 230 398H357Q402 398 432 426T462 500Q462 536 440 557T380 579H252Q250 579 249 578Z" />
<glyph unicode="S" glyph-name="S" horiz-adv-x="577" d="M163 -8T101 41T38 174Q38 183 40 201L43 223Q44 228 47 231T56 235H167Q172 235 175 232T177 223L175 208Q170 168 202 141T296 113Q352 113 380 138T409 199Q409 221 395 236T356 262T278 295Q220 317
180 338T113 396T86 485Q86 492 88 510Q99 601 171 654T349 708Q417 708 469 685T550 619T579 519Q579 511 577 493L575 478Q574 473 571 470T562 466H450Q445 466 442 469T440 478L441 486Q446 528 417 557T328 587Q279 587 250 565T221 503Q221 481 235 466T276
438T360 403Q422 378 456 361T519 308T547 220Q547 213 545 195Q533 101 460 47T272 -8Q163 -8 101 41Z" />
<glyph unicode="T" glyph-name="T" horiz-adv-x="567" d="M599 700T602 697T604 688L592 590Q592 585 588 582T579 578H406Q402 578 400 573L331 12Q330 7 327 4T318 0H205Q200 0 197 3T195 12L263 573Q265 578 259 578H90Q85 578 82 581T80 590L92 688Q93 693
96 696T105 700H594Q599 700 602 697Z" />
<glyph unicode="U" glyph-name="U" horiz-adv-x="611" d="M182 -8T122 48T61 198Q61 208 63 232L119 688Q120 693 124 696T133 700H246Q251 700 254 697T256 688L200 231Q199 224 199 212Q199 167 226 140T300 113Q351 113 386 145T429 231L485 688Q486 693 489
696T498 700H612Q617 700 620 697T622 688L566 232Q557 161 519 107T421 22T285 -8Q182 -8 122 48Z" />
<glyph unicode="V" glyph-name="V" horiz-adv-x="604" d="M211 0T209 10L92 686V688Q92 693 95 696T103 700H226Q237 700 238 690L307 202Q308 199 310 199T313 202L500 690Q504 700 515 700H634Q640 700 642 696T642 686L356 10Q353 0 342 0H220Q211 0 209 10Z" />
<glyph unicode="W" glyph-name="W" horiz-adv-x="851" d="M179 0T178 10L89 687V689Q89 700 100 700H221Q231 700 232 690L274 283Q275 279 277 279T280 283L419 689Q424 700 433 700H551Q562 700 563 690L610 283Q610 280 612 280T616 283L755 689Q760 700 769
700H883Q896 700 892 687L650 10Q646 0 635 0H520Q510 0 509 10L463 443Q462 447 461 447T457 443L312 11Q309 0 298 0H190Q179 0 178 10Z" />
<glyph unicode="X" glyph-name="X" horiz-adv-x="612" d="M14 0T12 4T13 14L242 347Q245 350 243 353L96 686Q95 688 95 691Q95 700 106 700H230Q234 700 238 698T243 692L341 463Q343 460 344 460T347 463L501 692Q507 700 517 700H639Q649 700 649 694Q649 691
646 686L417 353Q415 349 416 347L563 14Q564 12 564 8Q564 0 553 0H431Q420 0 417 8L319 236Q318 242 313 236L158 8Q156 4 152 2T143 0H20Q14 0 12 4Z" />
<glyph unicode="Y" glyph-name="Y" horiz-adv-x="599" d="M218 1T215 4T213 13L244 266Q244 267 244 268T244 272L95 686Q94 688 94 691Q94 700 105 700H228Q237 700 240 691L329 425Q331 418 334 425L488 691Q493 700 503 700H627Q634 700 636 697T634 686L382
272Q380 270 380 266L349 13Q348 8 345 5T336 1H223Q218 1 215 4Z" />
<glyph unicode="Z" glyph-name="Z" horiz-adv-x="540" d="M18 0T15 3T13 12L26 120Q27 127 33 135L400 573Q402 575 401 577T397 579H94Q89 579 86 582T84 591L96 688Q97 693 100 696T109 700H558Q569 700 569 688L555 580Q555 573 549 565L181 127Q180 125 181
123T185 121H487Q492 121 495 118T497 109L486 12Q485 7 481 4T472 0H23Q18 0 15 3Z" />
<glyph unicode="[" glyph-name="bracketleft" horiz-adv-x="404" d="M3 -147T0 -144T-2 -135L111 788Q112 793 115 796T124 800H354Q359 800 362 797T364 788L353 691Q352 686 348 683T339 679H240Q234 679 234 674L149 -20Q147 -25 153 -25H254Q259 -25 262 -28T264
-37L252 -135Q251 -140 248 -143T239 -147H8Q3 -147 0 -144Z" />
<glyph unicode="\" glyph-name="backslash" horiz-adv-x="458" d="M418 10Q418 0 406 0H294Q284 0 281 9L115 686V690Q115 700 127 700H238Q250 700 251 691L418 14V10Z" />
<glyph unicode="]" glyph-name="bracketright" horiz-adv-x="404" d="M334 -140T330 -143T321 -147H91Q80 -147 80 -135L92 -37Q93 -32 97 -29T106 -25H206Q212 -25 212 -20L297 674Q297 679 293 679H192Q187 679 184 682T182 691L194 788Q195 793 198 796T207
800H438Q443 800 446 797T448 788L335 -135Q334 -140 330 -143Z" />
<glyph unicode="^" glyph-name="asciicircum" horiz-adv-x="459" d="M54 298T52 301T52 312L232 690Q236 700 247 700H342Q353 700 354 690L445 312V308Q445 298 433 298H341Q332 298 330 308L280 551Q280 554 278 554T274 551L166 308Q161 298 152 298H60Q54
298 52 301Z" />
<glyph unicode="_" glyph-name="underscore" horiz-adv-x="507" d="M6 0T3 3T1 12L11 95Q12 100 15 103T24 107H471Q476 107 479 104T481 95L471 12Q470 7 467 4T458 0H11Q6 0 3 3Z" />
<glyph unicode="`" glyph-name="grave" horiz-adv-x="226" d="M254 588T254 585Q254 581 251 579T244 576H162Q153 576 150 584L93 685Q91 689 91 691Q91 695 94 697T103 700H201Q211 700 214 691L253 590Q254 588 254 585Z" />
<glyph unicode="a" glyph-name="a" horiz-adv-x="547" d="M403 507T406 510T415 514H529Q534 514 537 511T539 502L479 12Q478 7 475 4T466 0H352Q347 0 344 3T342 12L347 55Q348 59 346 59T342 57Q294 -8 212 -8Q148 -8 103 32T48 142Q45 163 45 185Q45 215 50
258Q60 336 82 386Q109 446 162 484T283 522Q363 522 392 464Q394 461 395 461T398 465L402 502Q403 507 406 510ZM358 187T363 205T372 256Q376 283 376 303Q376 320 370 344Q365 370 347 385T301 401Q272 401 250 385T215 343Q199 313 193 257Q189 229 189 208Q189
189 194 172Q199 145 218 129T266 113Q295 113 316 129T350 172Q358 187 363 205Z" />
<glyph unicode="b" glyph-name="b" horiz-adv-x="549" d="M526 352T526 314Q526 288 523 259Q513 190 491 138Q461 70 407 31T286 -8Q215 -8 181 47Q180 49 178 49T175 45L171 12Q170 7 167 4T158 0H45Q34 0 34 12L117 688Q118 693 122 696T131 700H244Q249 700
252 697T254 688L228 474Q227 471 229 470T233 472Q278 522 347 522Q418 522 461 485T519 383Q526 352 526 314ZM373 193T381 256Q383 270 383 294Q383 337 370 362Q352 401 306 401Q264 401 237 362Q211 325 202 257Q199 236 199 216Q199 179 209 156Q228 113
272 113Q319 113 348 156Q373 193 381 256Z" />
<glyph unicode="c" glyph-name="c" horiz-adv-x="521" d="M172 -8T120 32T52 142Q46 171 46 203Q46 220 50 260Q58 324 81 376Q113 444 175 483T314 522Q392 522 445 482T511 381Q515 366 515 345Q515 340 512 337T503 332L390 315H388Q378 315 378 325L377 341Q373
367 352 384T299 401Q268 401 245 385T209 341Q194 309 188 259Q185 234 185 213Q185 191 188 177Q193 147 212 130T263 113Q294 113 318 129T355 175Q357 179 357 181Q358 182 358 184Q361 196 373 194L482 176Q493 174 491 163Q487 147 481 135Q452 68 389 30T249
-8Q172 -8 120 32Z" />
<glyph unicode="d" glyph-name="d" horiz-adv-x="549" d="M426 693T429 696T438 700H552Q557 700 560 697T562 688L479 12Q478 7 475 4T466 0H352Q347 0 344 3T342 12L346 45Q346 52 340 47Q293 -8 222 -8Q154 -8 110 31T53 138Q47 168 47 201Q47 219 51 259Q61
331 84 383Q114 447 167 484T290 522Q359 522 393 472Q394 469 396 470T399 474L425 688Q426 693 429 696ZM363 192T371 257Q374 280 374 299Q374 335 363 362Q344 401 302 401Q256 401 229 362Q200 324 191 256Q189 234 189 223Q189 184 200 156Q219 113 266 113Q309
113 339 156Q363 192 371 257Z" />
<glyph unicode="e" glyph-name="e" horiz-adv-x="530" d="M511 279T504 225Q501 213 490 213H190Q185 213 185 208Q186 186 191 168Q211 112 287 112Q348 113 392 164Q400 175 407 166L469 95Q472 91 472 87Q472 82 468 78Q431 37 378 15T264 -8Q181 -8 128 31T58
140Q50 168 50 211Q50 235 53 262Q57 318 80 368Q111 439 172 481T310 523Q407 523 458 465T510 310Q511 279 504 225ZM234 401T208 342Q200 322 197 310Q197 305 201 305H369Q374 305 374 310Q374 322 372 338Q367 368 348 384T296 401Q234 401 208 342Z" />
<glyph unicode="f" glyph-name="f" horiz-adv-x="375" d="M383 515T386 512T389 503L377 408Q376 403 373 400T364 396H270Q266 396 264 391L218 12Q217 7 214 4T205 0H91Q86 0 83 3T81 12L128 391Q128 396 123 396H66Q61 396 58 399T56 408L68 503Q68 508 72
511T81 515H138Q143 515 143 520L146 542Q154 604 176 638T242 687T358 700H394Q405 700 405 688L395 607Q394 602 391 599T382 595H350Q315 594 301 581T282 531L280 520Q280 515 284 515H378Q383 515 386 512Z" />
<glyph unicode="g" glyph-name="g" horiz-adv-x="539" d="M398 507T401 510T410 514H524Q529 514 532 511T534 502L478 46Q461 -85 381 -141T187 -197Q153 -197 111 -192Q101 -190 103 -179L120 -76Q121 -63 134 -65Q169 -71 198 -71Q261 -71 297 -43T341 47Q342
50 340 50T336 49Q293 8 223 8Q160 8 111 39T48 141Q44 162 44 192Q44 218 48 260Q59 340 81 387Q109 448 162 485T279 522Q355 522 388 476Q390 474 392 474T394 478L397 502Q398 507 401 510ZM361 208T368 261Q372 290 372 310Q372 328 369 341Q364 368 346 384T297
401Q268 401 246 385T210 341Q193 312 186 260Q183 235 183 216Q183 195 188 180Q193 153 213 137T263 120Q294 120 316 136T350 179Q361 208 368 261Z" />
<glyph unicode="h" glyph-name="h" horiz-adv-x="530" d="M425 522T466 482T507 371Q507 362 505 340L465 12Q464 7 461 4T452 0H339Q328 0 328 12L365 311Q366 316 366 327Q366 360 347 380T297 401Q261 401 236 377T206 311L169 12Q168 7 165 4T156 0H43Q38
0 35 3T33 12L116 688Q116 693 120 696T129 700H242Q247 700 250 697T252 688L225 467Q225 464 226 463T230 464Q275 522 355 522Q425 522 466 482Z" />
<glyph unicode="i" glyph-name="i" horiz-adv-x="247" d="M145 572T126 591T107 640Q107 679 132 704T194 730Q225 730 243 712T262 663Q262 625 237 599T175 572Q145 572 126 591ZM36 0T36 12L97 503Q98 508 101 511T110 515H223Q228 515 231 512T233 503L173
12Q172 7 169 4T160 0H47Q36 0 36 12Z" />
<glyph unicode="j" glyph-name="j" horiz-adv-x="246" d="M144 572T126 591T107 640Q107 679 132 704T193 730Q224 730 242 712T261 663Q261 625 236 599T174 572Q144 572 126 591ZM-103 -204T-101 -192L-90 -97Q-89 -91 -85 -88T-76 -86Q-19 -88 6 -69T38 -2L98
502Q98 507 102 510T111 514H224Q229 514 232 511T234 502L173 0Q163 -82 136 -126T56 -188T-91 -204Q-103 -204 -101 -192Z" />
<glyph unicode="k" glyph-name="k" horiz-adv-x="517" d="M38 0T35 3T33 12L116 688Q116 693 120 696T129 700H242Q247 700 250 697T252 688L211 351Q210 348 212 348T216 349L368 507Q375 514 383 514H512Q521 514 521 508Q521 503 517 499L374 338Q372 334 372
331L478 14Q479 12 479 9Q479 0 468 0H348Q339 0 336 9L268 243Q268 245 266 245T262 244L190 164Q189 163 188 162T187 158L169 12Q168 7 165 4T156 0H43Q38 0 35 3Z" />
<glyph unicode="l" glyph-name="l" horiz-adv-x="237" d="M38 0T35 3T33 12L116 688Q116 693 120 696T129 700H242Q247 700 250 697T252 688L169 12Q168 7 165 4T156 0H43Q38 0 35 3Z" />
<glyph unicode="m" glyph-name="m" horiz-adv-x="810" d="M715 522T752 484T789 378Q789 355 787 343L746 12Q746 7 742 4T733 0H620Q615 0 612 3T610 12L646 312Q647 318 647 329Q647 362 630 381T583 401Q549 401 525 377T495 313L458 12Q457 7 454 4T445 0H333Q328
0 325 3T323 12L359 312Q360 318 360 328Q360 362 342 381T294 401Q263 401 240 382T208 329L169 12Q168 7 165 4T156 0H43Q38 0 35 3T33 12L93 502Q94 507 97 510T106 514H219Q224 514 227 511T229 502L225 463Q224 460 226 459T230 461Q278 522 361 522Q409 522
443 501T492 441Q494 435 498 441Q525 482 563 502T648 522Q715 522 752 484Z" />
<glyph unicode="n" glyph-name="n" horiz-adv-x="530" d="M425 522T466 482T507 371Q507 362 505 340L465 12Q464 7 461 4T452 0H339Q328 0 328 12L365 311Q366 316 366 327Q366 360 347 380T297 401Q261 401 236 377T206 311L169 12Q168 7 165 4T156 0H43Q38
0 35 3T33 12L93 502Q94 507 97 510T106 514H219Q224 514 227 511T229 502L225 467Q225 464 226 463T230 464Q275 522 355 522Q425 522 466 482Z" />
<glyph unicode="o" glyph-name="o" horiz-adv-x="540" d="M169 -8T116 36T51 156Q47 177 47 208Q47 233 50 258Q58 321 77 364Q109 438 172 480T316 522Q396 522 447 481T512 365Q518 337 518 303Q518 281 515 260Q509 210 489 159Q458 81 395 37T250 -8Q169 -8
116 36ZM297 113T321 133T361 188Q373 221 377 258Q380 282 380 303Q380 349 359 375T299 401Q267 401 243 382T204 329Q193 305 188 258Q185 233 185 209Q185 165 206 139T265 113Q297 113 321 133Z" />
<glyph unicode="p" glyph-name="p" horiz-adv-x="551" d="M529 348T529 313Q529 294 525 256Q517 186 491 131Q461 67 409 30T285 -8Q215 -8 183 42Q181 45 179 44T177 40L150 -174Q149 -179 146 -182T137 -186H24Q19 -186 16 -183T14 -174L97 502Q97 507 101
510T110 514H223Q228 514 231 511T233 502L229 469Q229 466 231 466T235 467Q282 522 354 522Q421 522 465 484T522 376Q529 348 529 313ZM375 191T384 258Q386 271 386 295Q386 334 376 358Q359 401 309 401Q265 401 237 358Q212 322 204 257Q201 235 201 216Q201
179 213 153Q230 113 274 113Q317 113 347 152Q375 191 384 258Z" />
<glyph unicode="q" glyph-name="q" horiz-adv-x="551" d="M403 507T406 510T415 514H529Q534 514 537 511T539 502L456 -174Q455 -179 452 -182T443 -186H329Q324 -186 321 -183T319 -174L345 40Q346 43 344 44T340 42Q295 -8 225 -8Q155 -8 111 29T53 131Q47
161 47 195Q47 228 51 256Q59 323 82 376Q111 445 165 483T287 522Q358 522 392 467Q394 465 396 465T398 469L402 502Q403 507 406 510ZM363 190T371 257Q374 280 374 298Q374 335 364 358Q346 401 301 401Q253 401 224 358Q199 317 192 258Q189 239 189 222Q189
180 203 152Q222 113 267 113Q309 113 337 153Q363 190 371 257Z" />
<glyph unicode="r" glyph-name="r" horiz-adv-x="372" d="M378 521T397 507Q405 503 401 492L367 378Q364 366 352 371Q339 376 318 376Q311 376 297 374Q262 371 235 347T203 285L169 12Q168 7 165 4T156 0H43Q38 0 35 3T33 12L93 502Q94 507 97 510T106 514H219Q224
514 227 511T229 502L225 464Q224 461 226 460T230 461Q275 521 343 521Q378 521 397 507Z" />
<glyph unicode="s" glyph-name="s" horiz-adv-x="487" d="M137 -7T84 29T31 126Q31 136 32 142L33 152Q34 157 37 160T46 164H154Q159 164 162 161T164 152V151Q161 129 183 114T241 98Q275 98 297 112T320 149Q320 165 303 173T251 191Q207 204 182 214Q128 234
96 262T64 341Q64 395 93 436T173 499T288 521Q375 521 425 482T476 378Q476 365 475 359Q474 354 471 351T462 347H358Q353 347 350 350T348 359Q350 381 331 396T275 411Q241 411 219 398T196 362Q196 344 215 335T277 314Q313 305 328 300Q389 281 424 252T459
169Q459 157 458 150Q448 76 386 35T229 -7Q137 -7 84 29Z" />
<glyph unicode="t" glyph-name="t" horiz-adv-x="369" d="M367 408T364 405T355 401H262Q258 401 256 396L230 184Q229 178 229 168Q229 119 277 119H309Q314 119 317 116T320 107L308 12Q306 0 295 -1Q255 -3 236 -3Q162 -3 126 19T89 102Q89 110 91 128L124
396Q126 401 120 401H65Q60 401 57 404T55 413L66 502Q66 507 70 510T79 514H134Q139 514 139 519L154 638Q155 643 158 646T167 650H276Q281 650 284 647T286 638L271 519Q271 514 276 514H369Q374 514 377 511T379 502L368 413Q367 408 364 405Z" />
<glyph unicode="u" glyph-name="u" horiz-adv-x="528" d="M385 507T388 510T397 514H510Q515 514 518 511T520 502L460 12Q459 7 456 4T447 0H334Q329 0 326 3T324 12L328 46Q328 49 326 49T322 47Q276 -7 195 -7Q128 -7 87 31T46 139Q46 148 48 168L89 502Q90
507 93 510T102 514H214Q225 514 225 502L188 203Q187 197 187 186Q187 152 205 133T255 113Q288 113 312 133T345 187L384 502Q385 507 388 510Z" />
<glyph unicode="v" glyph-name="v" horiz-adv-x="504" d="M161 0T158 10L63 501V503Q63 515 75 515H200Q211 515 212 505L255 202Q255 199 257 199T261 202L377 505Q381 515 392 515L517 513Q523 513 525 510T525 499L311 10Q306 0 297 0H170Q161 0 158 10Z" />
<glyph unicode="w" glyph-name="w" horiz-adv-x="760" d="M145 0T143 10L63 501V503Q63 508 66 511T75 515H192Q204 515 205 505L237 203Q238 200 240 200T243 203L353 505Q357 515 368 515H470Q481 515 482 505L521 202Q522 199 524 199T527 202L640 505Q644
515 655 515L771 513Q777 513 779 510T779 500L577 10Q574 0 564 0H446Q436 0 434 10L392 278Q392 281 390 281T386 278L287 10Q284 0 273 0H155Q145 0 143 10Z" />
<glyph unicode="x" glyph-name="x" horiz-adv-x="521" d="M3 0T3 7Q3 11 6 15L191 254Q193 258 192 260L65 499Q64 501 64 504Q64 514 75 514H196Q204 514 209 506L279 369Q282 364 286 369L390 506Q396 514 405 514H535Q542 514 542 508Q542 504 539 499L355
260Q353 256 354 254L480 15Q482 11 482 9Q482 5 479 3T471 0H349Q340 0 337 8L266 145Q265 151 260 145L156 8Q151 0 142 0H12Q3 0 3 7Z" />
<glyph unicode="y" glyph-name="y" horiz-adv-x="489" d="M-2 -199T-2 -187L10 -95Q11 -90 14 -87T23 -83Q83 -82 111 -67T157 -3Q158 -1 158 3L60 501V505Q60 515 71 515H192Q204 515 205 505L246 181Q247 178 249 178T252 181L373 505Q377 515 388 515H507Q513
515 515 511T514 501L282 -19Q249 -92 219 -128T142 -182T10 -199H4Q-2 -199 -2 -187Z" />
<glyph unicode="z" glyph-name="z" horiz-adv-x="446" d="M11 0T8 3T5 12L18 119Q19 125 26 134L275 381Q280 387 274 387H69Q64 387 61 390T59 399L71 502Q72 507 75 510T84 514H447Q452 514 455 511T457 502L444 396Q444 390 437 381L181 134Q177 128 183 128H405Q410
128 413 125T415 116L402 12Q401 7 398 4T389 0H16Q11 0 8 3Z" />
<glyph unicode="{" glyph-name="braceleft" horiz-adv-x="364" d="M137 -147T109 -123T80 -49Q80 -41 82 -23L107 184Q109 202 109 209Q109 239 97 254T60 273Q48 274 50 286L60 373Q62 384 73 386Q104 390 121 411T143 474L168 677Q175 738 211 769T310 800H398Q403
800 406 797T408 788L396 691Q395 686 392 683T383 679H357Q334 679 318 662T297 616L277 455Q271 406 254 377T206 333Q200 330 205 327Q248 303 248 237Q248 215 246 203L226 38Q225 34 225 25Q225 1 237 -12T270 -25H297Q302 -25 305 -28T307 -37L295 -135Q294
-140 291 -143T282 -147H193Q137 -147 109 -123Z" />
<glyph unicode="|" glyph-name="bar" horiz-adv-x="197" d="M7 -80T4 -77T2 -68L103 748Q103 753 107 756T116 760H229Q234 760 237 757T239 748L139 -68Q138 -73 135 -76T126 -80H12Q7 -80 4 -77Z" />
<glyph unicode="}" glyph-name="braceright" horiz-adv-x="364" d="M8 -147Q3 -147 0 -144T-2 -135L10 -37Q11 -32 14 -29T23 -25H49Q73 -25 89 -8T109 38L130 203Q136 252 153 282T200 327Q207 330 201 333Q159 355 159 420Q159 442 161 455L180 616Q181 620
181 628Q181 652 169 665T136 679H110Q99 679 99 691L111 788Q112 793 115 796T124 800H212Q268 800 297 775T327 701Q327 693 325 677L300 474Q298 456 298 449Q298 392 347 386Q359 385 357 373L346 286Q346 281 343 278T334 273Q303 269 286 248T264 184L239
-23Q232 -84 196 -115T95 -147H8Z" />
<glyph unicode="~" glyph-name="asciitilde" horiz-adv-x="518" d="M326 201T307 208T269 228Q247 242 230 250T192 258Q152 258 124 222Q116 213 107 219L50 263Q42 269 46 279Q68 323 111 351T202 380Q225 380 242 374T280 354Q286 351 301 342T329 327T356
322Q374 322 388 331T416 358Q425 368 433 362L501 313Q509 306 504 297Q481 254 439 228T351 201Q326 201 307 208Z" />
<glyph unicode="&#xa0;" glyph-name="uni00A0" horiz-adv-x="194" />
<glyph unicode="&#xa1;" glyph-name="exclamdown" horiz-adv-x="333" d="M259 708T277 690T296 641Q296 602 272 577T210 551Q179 551 161 569T142 619Q142 657 168 682T230 708Q259 708 277 690ZM150 462T153 465T162 469H249Q254 469 257 466T259 457L220 21Q219
16 216 13T207 9H93Q88 9 85 12T83 21L149 457Q150 462 153 465Z" />
<glyph unicode="&#xa2;" glyph-name="cent" horiz-adv-x="521" d="M368 269T368 271Q369 272 369 274Q372 286 384 284L493 266Q504 264 502 253Q498 237 492 225Q469 171 423 136T318 88Q313 86 313 82L305 6Q304 1 301 -2T292 -6H195Q190 -6 187 -3T185 6L197
86Q197 90 193 91Q143 106 109 142T63 232Q57 261 57 293Q57 310 61 350Q71 418 92 466Q116 517 158 552T254 603Q259 605 259 608L266 685Q267 690 271 693T280 697H376Q381 697 384 694T386 685L376 612Q375 608 380 606Q437 593 474 557T522 471Q528 450 526
435Q526 430 523 427T515 422L401 405H399Q389 405 389 415L388 431Q384 457 363 474T310 491Q279 491 256 475T220 431Q205 399 199 349Q196 324 196 303Q196 281 199 267Q204 237 223 220T274 203Q305 203 329 219T366 265Q368 269 368 271Z" />
<glyph unicode="&#xa3;" glyph-name="sterling" horiz-adv-x="594" d="M279 166T238 127Q235 125 236 123T240 121H549Q554 121 557 118T559 109L548 12Q547 7 543 4T534 0H82Q77 0 74 3T72 12L85 112Q85 119 94 126Q119 142 131 165T149 222L156 282Q156 287
152 287H87Q76 287 76 299L88 389Q88 394 92 397T101 401H166Q171 401 171 406L181 490Q194 593 260 650T427 708Q505 708 551 667T613 551V548Q613 540 602 537L495 517H493Q485 517 482 526Q474 559 458 573T414 587Q375 587 350 564T319 493L308 406Q308 401
312 401H489Q494 401 497 398T499 389L488 299Q487 294 484 291T475 287H298Q293 287 293 282L285 222Q279 166 238 127Z" />
<glyph unicode="&#xa4;" glyph-name="currency" horiz-adv-x="557" d="M509 297T499 263T469 201Q467 196 469 194L525 128Q528 125 528 121Q528 116 523 111L444 48Q440 44 436 44Q431 44 428 48L376 109Q374 111 370 110Q320 84 266 84Q214 84 173 107Q169 109
166 106L102 48Q98 44 93 44Q89 44 85 48L22 111Q19 114 19 118Q19 123 24 128L92 189Q95 192 94 196Q77 233 77 277Q77 345 117 407Q118 411 117 414L62 478Q58 482 58 485Q58 491 64 495L142 559Q146 563 151 563Q156 563 159 559L211 498Q212 495 217 497Q264
523 320 523Q377 523 421 495Q424 493 428 496L497 559Q501 563 506 563Q511 563 514 559L576 495Q579 492 579 488Q579 483 574 478L498 409Q496 407 496 402Q509 366 509 331Q509 297 499 263ZM195 255T219 230T281 204Q309 204 334 219T375 261T391 317Q391
354 367 379T306 404Q277 404 252 389T211 348T195 293Q195 255 219 230Z" />
<glyph unicode="&#xa5;" glyph-name="yen" horiz-adv-x="665" d="M670 700T672 697T670 686L460 340Q458 337 459 336T463 334H549Q554 334 557 331T559 322L553 268Q552 263 549 260T540 256H420Q415 256 415 251L409 202Q409 197 413 197H532Q543 197 543 185L536
130Q535 125 532 122T523 118H403Q401 118 400 117T398 113L386 13Q385 8 382 5T373 1H259Q254 1 251 4T249 13L261 113Q263 118 257 118H137Q132 118 129 121T127 130L133 185Q134 190 137 193T146 197H267Q272 197 272 202L278 251Q280 256 274 256H154Q143 256
143 268L150 322Q151 327 154 330T163 334H251Q253 334 254 335T255 340L131 686Q130 688 130 691Q130 700 141 700H264Q274 700 277 691L365 425Q368 419 371 425L525 691Q530 700 540 700H663Q670 700 672 697Z" />
<glyph unicode="&#xa6;" glyph-name="brokenbar" horiz-adv-x="197" d="M67 402T64 405T62 414L103 748Q103 753 107 756T116 760H229Q234 760 237 757T239 748L198 414Q197 409 194 406T185 402H72Q67 402 64 405ZM7 -80T4 -77T2 -68L43 266Q44 271 47 274T56
278H170Q175 278 178 275T180 266L139 -68Q138 -73 135 -76T126 -80H12Q7 -80 4 -77Z" />
<glyph unicode="&#xa7;" glyph-name="section" horiz-adv-x="479" d="M107 -208T62 -168T17 -58Q17 -46 18 -39L20 -2Q22 10 33 10H147Q152 10 155 7T157 -2L155 -16L154 -28Q154 -55 169 -71T210 -87Q240 -87 261 -67T282 -17Q282 3 269 16T238 38T172 67Q126
86 100 104T59 150Q44 179 44 218Q44 285 85 340Q113 373 152 388Q159 391 153 394Q122 412 103 443T84 515Q84 566 113 610T194 681T307 708Q387 708 435 666T484 555Q484 540 483 533L480 510Q479 505 476 502T467 498H353Q348 498 345 501T343 510L344 518L345
529Q345 555 330 571T290 587Q261 587 240 567T219 515Q219 486 242 470T315 435Q352 423 380 408T427 369Q457 334 457 283Q457 252 447 221T417 163Q387 121 347 110Q344 109 344 108T346 104Q382 81 400 52T418 -15Q418 -73 387 -117T304 -184T189 -208Q107
-208 62 -168ZM279 182T300 208Q318 231 318 262Q318 280 310 293Q293 318 258 318Q240 318 225 310T198 288Q186 271 183 248L182 237Q182 222 189 208Q207 182 242 182Q279 182 300 208Z" />
<glyph unicode="&#xa8;" glyph-name="dieresis" horiz-adv-x="382" d="M309 578T290 597T271 647Q271 685 296 710T359 736Q390 736 408 718T427 668Q427 630 401 604T339 578Q309 578 290 597ZM116 578T97 597T78 647Q78 685 103 710T166 736Q197 736 215 718T234
668Q234 630 208 604T146 578Q116 578 97 597Z" />
<glyph unicode="&#xa9;" glyph-name="copyright" horiz-adv-x="792" d="M284 -8T214 31T106 141T67 301Q67 326 70 353Q82 453 137 534T278 661T463 708Q555 708 625 669T735 560T774 402Q774 379 771 353Q758 250 703 168T561 39T375 -8Q284 -8 214 31ZM460 86T523
120T627 216T677 353Q679 377 679 389Q679 454 651 505T571 585T452 614Q379 614 316 580T213 487T164 353Q162 340 162 314Q162 248 190 196T269 115T387 86Q460 86 523 120ZM351 174T322 201T293 273Q293 283 294 289L310 414Q316 466 352 497T443 528Q493 528
521 504T549 436Q549 426 548 420Q548 417 545 415T536 413L486 411Q475 411 475 419Q478 440 467 452T435 465Q414 465 401 453T384 419L367 283Q365 263 376 251T408 238Q428 238 442 250T459 283Q459 287 462 289T471 292L521 290Q526 290 529 288T531 282Q525
233 489 204T400 174Q351 174 322 201Z" />
<glyph unicode="&#xaa;" glyph-name="ordfeminine" horiz-adv-x="320" d="M261 567Q266 567 266 572L268 583Q271 609 256 625T213 642Q192 642 176 633T152 610Q147 598 138 600L88 604Q77 606 78 617Q88 656 127 682T220 708Q275 708 309 680T344 608Q344 599
343 595L316 376Q315 371 312 368T303 364H252Q247 364 244 367T242 376L243 385Q244 388 242 389T238 387Q206 358 151 358Q103 358 76 379T48 440Q48 497 89 532T199 567H261ZM204 419T228 437T255 479L258 503Q258 508 253 508H202Q166 508 146 495T125 454Q125
437 137 428T172 419Q204 419 228 437ZM31 303T34 306T43 310H305Q310 310 313 307T315 298L308 245Q308 240 304 237T295 233H33Q28 233 25 236T23 245L30 298Q31 303 34 306Z" />
<glyph unicode="&#xab;" glyph-name="guillemotleft" horiz-adv-x="494" d="M262 119T262 115Q262 107 252 107H154Q144 107 141 115L69 273Q68 275 68 279Q68 283 71 289L182 447Q187 455 197 455H294Q301 455 303 452T301 441L187 284Q186 282 186 278L261 121Q262
119 262 115ZM429 119T429 115Q429 107 419 107H321Q311 107 308 115L235 273Q234 275 234 279Q234 283 237 289L349 447Q353 455 363 455H461Q470 455 470 449Q470 446 467 441L354 284Q353 282 353 278L428 121Q429 119 429 115Z" />
<glyph unicode="&#xac;" glyph-name="logicalnot" horiz-adv-x="471" d="M52 354T56 357T65 361H457Q462 361 465 358T467 349L441 140Q440 135 437 132T428 128H334Q329 128 326 131T324 140L335 235Q337 240 331 240H50Q45 240 42 243T40 252L52 349Q52 354 56 357Z" />
<glyph unicode="&#xad;" glyph-name="uni00AD" horiz-adv-x="397" d="M44 235T41 238T39 247L51 344Q52 349 55 352T64 356H381Q386 356 389 353T391 344L380 247Q379 242 375 239T366 235H49Q44 235 41 238Z" />
<glyph unicode="&#xae;" glyph-name="registered" horiz-adv-x="431" d="M334 710T374 688T436 627T459 539Q459 530 457 512Q450 454 418 407T338 334T234 307Q183 307 144 329T82 391T60 482Q60 544 90 596T171 679T283 710Q334 710 374 688ZM283 366T319 387T377
447T399 531Q399 584 365 618T276 652Q233 652 197 631T140 572T119 491Q119 435 152 401T241 366Q283 366 319 387ZM333 535T325 520T303 497Q299 495 300 491L313 432V429Q313 424 310 421T302 418H277Q268 418 266 428L254 484Q254 488 250 488H248Q243 488
243 483L236 430Q235 425 232 422T223 418H202Q197 418 194 421T192 430L211 591Q212 596 215 599T224 603H282Q305 603 319 589T333 553Q333 535 325 520ZM252 563T252 558L248 528Q248 523 252 523H265Q274 523 280 529T287 543V546Q287 554 283 558T270 563H257Q252
563 252 558Z" />
<glyph unicode="&#xaf;" glyph-name="overscore" horiz-adv-x="285" d="M58 578T55 581T53 590L62 661Q63 666 66 669T75 673H337Q342 673 345 670T347 661L338 590Q337 585 334 582T325 578H63Q58 578 55 581Z" />
<glyph unicode="&#xb0;" glyph-name="degree" horiz-adv-x="365" d="M158 471T118 512T77 617Q77 668 102 712T171 782T262 808Q325 808 365 767T406 663Q406 611 381 567T313 497T221 471Q158 471 118 512ZM267 562T292 588T318 652Q318 681 299 700T251 719Q217
719 191 693T165 629Q165 600 184 581T232 562Q267 562 292 588Z" />
<glyph unicode="&#xb1;" glyph-name="plusminus" horiz-adv-x="471" d="M474 456T477 453T479 444L467 347Q466 342 463 339T454 335H321Q317 335 315 330L299 195Q298 190 295 187T286 183H193Q182 183 182 195L199 330Q199 335 195 335H62Q57 335 54 338T52
347L64 444Q64 449 68 452T77 456H210Q212 456 213 457T215 461L232 599Q233 604 236 607T245 611H338Q343 611 346 608T348 599L331 461Q331 456 336 456H469Q474 456 477 453ZM15 0T12 3T10 12L22 109Q22 114 26 117T35 121H427Q432 121 435 118T437 109L425
12Q424 7 421 4T412 0H20Q15 0 12 3Z" />
<glyph unicode="&#xb2;" glyph-name="uni00B2" horiz-adv-x="333" d="M68 416T65 419T63 428L70 484Q72 494 78 499Q130 545 219 632Q283 693 283 724Q283 742 272 752T240 763Q218 763 203 750T185 717L184 707Q183 702 180 699T171 695H105Q94 695 94 707L97
731Q107 781 149 811T250 841Q308 841 341 811T374 735Q374 705 359 677T312 614Q277 575 195 500Q193 498 193 496T197 494H340Q345 494 348 491T350 482L343 428Q343 423 339 420T330 416H73Q68 416 65 419Z" />
<glyph unicode="&#xb3;" glyph-name="uni00B3" horiz-adv-x="314" d="M344 598T344 580Q344 573 342 553Q338 516 322 487Q302 451 267 431T188 410Q143 410 113 433T71 496Q66 510 66 542Q68 554 80 554H145Q156 554 156 542Q156 527 159 518Q162 504 172 497T198
489Q224 489 239 511Q251 529 254 555Q256 569 256 575Q256 591 250 603Q241 626 214 626Q201 626 188 618Q182 616 181 616Q177 616 172 621L145 661Q143 663 143 668Q143 674 148 678L243 751Q246 753 246 755T242 757H113Q108 757 105 760T103 769L110 823Q111
828 114 831T123 835H360Q371 835 371 823L364 766Q363 759 355 751L275 685Q270 680 277 678Q322 667 339 620Q344 598 344 580Z" />
<glyph unicode="&#xb4;" glyph-name="acute" horiz-adv-x="226" d="M76 576T76 582Q76 586 79 590L143 691Q147 700 158 700H256Q265 700 265 693Q265 690 262 685L181 584Q175 576 166 576H85Q76 576 76 582Z" />
<glyph unicode="&#xb5;" glyph-name="uni00B5" horiz-adv-x="535" d="M389 507T393 510T402 514H515Q520 514 523 511T525 502L465 12Q464 7 461 4T452 0H339Q328 0 328 12L333 46Q333 49 331 49T327 47Q281 -7 200 -7Q190 -7 172 -5Q167 -3 167 -9L145 -188Q144
-193 141 -196T132 -200H18Q13 -200 10 -197T8 -188L93 502Q94 507 97 510T106 514H219Q224 514 227 511T229 502L193 203Q192 197 192 186Q192 152 209 133T259 113Q293 113 317 133T350 188L389 502Q389 507 393 510Z" />
<glyph unicode="&#xb6;" glyph-name="paragraph" horiz-adv-x="606" d="M608 700Q613 700 616 697T618 688L510 -188Q510 -193 506 -196T497 -200H421Q416 -200 413 -197T411 -188L507 595Q507 600 502 600H408Q403 600 403 595L307 -188Q306 -193 303 -196T294
-200H216Q211 -200 208 -197T206 -188L259 246Q259 251 255 251Q166 258 114 310T61 445Q61 455 63 475Q71 540 106 591T200 671T331 700H608Z" />
<glyph unicode="&#xb7;" glyph-name="middot" horiz-adv-x="228" d="M91 211T72 230T53 280Q53 318 78 343T141 369Q172 369 190 351T209 301Q209 263 183 237T121 211Q91 211 72 230Z" />
<glyph unicode="&#xb8;" glyph-name="cedilla" horiz-adv-x="164" d="M-42 -179T-39 -168L-26 -118Q-23 -106 -11 -109Q0 -112 8 -112Q24 -112 34 -103T45 -76Q45 -50 7 -15Q2 -10 2 -7Q2 0 13 0H76Q84 0 89 -5Q133 -46 133 -93Q133 -112 126 -129Q113 -163 86
-178T26 -193Q-5 -193 -32 -182Q-42 -179 -39 -168Z" />
<glyph unicode="&#xb9;" glyph-name="uni00B9" horiz-adv-x="188" d="M154 836T161 836H230Q235 836 238 833T240 824L191 428Q190 423 187 420T178 416H113Q108 416 105 419T103 428L143 751Q143 756 138 756L107 753H105Q101 753 99 756T97 765L102 808Q103
818 113 821L146 833Q154 836 161 836Z" />
<glyph unicode="&#xba;" glyph-name="ordmasculine" horiz-adv-x="346" d="M151 362T118 387T74 459Q69 475 69 503Q69 516 71 536Q77 584 92 613Q114 659 153 683T242 708Q287 708 319 684T363 614Q368 587 368 562Q368 545 367 537Q362 495 343 459Q322 413
284 388T199 362Q151 362 118 387ZM224 439T239 449T264 480Q275 504 278 536Q281 551 281 566Q281 597 267 614T230 632Q195 632 173 590Q162 569 159 536Q157 518 157 507Q157 492 160 480Q164 460 176 450T208 439Q224 439 239 449ZM41 232T38 235T36 244L43
300Q44 305 47 308T56 312H331Q336 312 339 309T341 300L335 244Q334 239 330 236T321 232H46Q41 232 38 235Z" />
<glyph unicode="&#xbb;" glyph-name="guillemotright" horiz-adv-x="494" d="M60 107T60 113Q60 117 63 121L176 278Q178 281 176 284L103 441Q101 445 101 447Q101 455 112 455H209Q219 455 222 447L294 289Q296 283 296 282Q296 278 293 273L181 115Q176 107
166 107H69Q60 107 60 113ZM227 107T227 113Q227 117 230 121L343 278Q345 281 343 284L270 441Q268 445 268 447Q268 455 279 455H376Q386 455 389 447L461 289Q463 283 463 282Q463 278 460 273L348 115Q343 107 333 107H236Q227 107 227 113Z" />
<glyph unicode="&#xbc;" glyph-name="onequarter" horiz-adv-x="802" d="M137 700T144 700H213Q218 700 221 697T223 688L174 292Q173 287 170 284T161 280H96Q91 280 88 283T86 292L126 615Q126 620 121 620L90 617H88Q84 617 82 620T80 629L85 672Q86 682 96
685L129 697Q137 700 144 700ZM82 0T82 6Q82 10 85 14L552 692Q557 700 568 700H641Q651 700 651 694Q651 691 648 686L180 8Q176 0 165 0H92Q82 0 82 6ZM768 187T771 184T773 175L766 117Q765 112 762 109T753 105H735Q730 105 730 100L719 12Q718 7 715 4T706
0H641Q636 0 633 3T631 12L641 100Q643 105 637 105H463Q452 105 452 117L458 163Q460 171 463 178L592 411Q597 420 607 420H675Q682 420 683 416T682 406L567 193Q566 191 566 189T569 187H647Q651 187 653 192L661 257Q662 262 665 265T674 269H739Q744 269
747 266T749 257L741 192Q741 187 745 187H763Q768 187 771 184Z" />
<glyph unicode="&#xbd;" glyph-name="onehalf" horiz-adv-x="778" d="M137 700T144 700H213Q218 700 221 697T223 688L174 292Q173 287 170 284T161 280H96Q91 280 88 283T86 292L126 615Q126 620 121 620L90 617H88Q84 617 82 620T80 629L85 672Q86 682 96 685L129
697Q137 700 144 700ZM82 0T82 6Q82 10 85 14L552 692Q557 700 568 700H641Q651 700 651 694Q651 691 648 686L180 8Q176 0 165 0H92Q82 0 82 6ZM457 0T454 3T452 12L459 68Q461 78 467 83Q519 129 608 216Q672 277 672 308Q672 326 661 336T629 347Q607 347 592
334T574 301L573 291Q572 286 569 283T560 279H494Q483 279 483 291L486 315Q496 365 538 395T639 425Q697 425 730 395T763 319Q763 289 748 261T701 198Q666 159 584 84Q582 82 582 80T586 78H729Q734 78 737 75T739 66L732 12Q732 7 728 4T719 0H462Q457 0 454
3Z" />
<glyph unicode="&#xbe;" glyph-name="threequarters" horiz-adv-x="889" d="M328 465T328 447Q328 440 326 420Q322 383 306 354Q286 318 251 298T172 277Q127 277 97 300T55 363Q50 377 50 409Q52 421 64 421H129Q140 421 140 409Q140 394 143 385Q146 371 156
364T182 356Q208 356 223 378Q235 396 238 422Q240 436 240 442Q240 458 234 470Q225 493 198 493Q185 493 172 485Q166 483 165 483Q161 483 156 488L129 528Q127 530 127 535Q127 541 132 545L227 618Q230 620 230 622T226 624H97Q92 624 89 627T87 636L94 690Q95
695 98 698T107 702H344Q355 702 355 690L348 633Q347 626 339 618L259 552Q254 547 261 545Q306 534 323 487Q328 465 328 447ZM170 0T170 6Q170 10 173 14L640 692Q645 700 656 700H729Q739 700 739 694Q739 691 736 686L268 8Q264 0 253 0H180Q170 0 170 6ZM857
187T860 184T862 175L855 117Q854 112 851 109T842 105H824Q819 105 819 100L808 12Q807 7 804 4T795 0H730Q725 0 722 3T720 12L730 100Q732 105 726 105H552Q541 105 541 117L547 163Q549 171 552 178L681 411Q686 420 696 420H764Q771 420 772 416T771 406L656
193Q655 191 655 189T658 187H736Q740 187 742 192L750 257Q751 262 754 265T763 269H828Q833 269 836 266T838 257L830 192Q830 187 834 187H852Q857 187 860 184Z" />
<glyph unicode="&#xbf;" glyph-name="questiondown" horiz-adv-x="506" d="M347 502T365 483T384 434Q384 396 359 371T297 345Q266 345 248 363T229 413Q229 451 255 476T317 502Q347 502 365 483ZM347 278T350 275T352 266L348 234Q342 184 313 153T233 89Q191
61 170 41T146 -10Q142 -42 163 -61T222 -81Q263 -81 290 -60T321 -6L323 10Q324 21 336 21L449 16Q454 16 457 13T459 4L458 -6Q451 -66 416 -112T326 -184T203 -210Q111 -210 58 -165T5 -42Q5 -33 7 -15Q12 29 31 60T73 112T134 156Q172 182 190 199T212 243L215
266Q216 271 219 274T228 278H342Q347 278 350 275Z" />
<glyph unicode="&#xc0;" glyph-name="Agrave" horiz-adv-x="651" d="M462 0T460 10L443 108Q443 109 442 110T439 112H200Q197 112 195 108L154 10Q151 0 141 0H17Q11 0 9 4T9 14L302 690Q307 700 316 700H468Q477 700 480 690L606 14V11Q606 6 603 3T595 0H471Q462
0 460 10ZM243 221T247 221H418Q423 221 423 227L372 524Q371 528 369 528T366 524L244 227Q243 221 247 221ZM450 774T450 771Q450 767 447 765T440 762H358Q349 762 346 770L289 871Q287 875 287 877Q287 881 290 883T299 886H397Q407 886 410 877L449 776Q450
774 450 771Z" />
<glyph unicode="&#xc1;" glyph-name="Aacute" horiz-adv-x="651" d="M462 0T460 10L443 108Q443 109 442 110T439 112H200Q197 112 195 108L154 10Q151 0 141 0H17Q11 0 9 4T9 14L302 690Q307 700 316 700H468Q477 700 480 690L606 14V11Q606 6 603 3T595 0H471Q462
0 460 10ZM243 221T247 221H418Q423 221 423 227L372 524Q371 528 369 528T366 524L244 227Q243 221 247 221ZM335 762T335 768Q335 772 338 776L402 877Q406 886 417 886H515Q524 886 524 879Q524 876 521 871L440 770Q434 762 425 762H344Q335 762 335 768Z"
/>
<glyph unicode="&#xc2;" glyph-name="Acircumflex" horiz-adv-x="651" d="M462 0T460 10L443 108Q443 109 442 110T439 112H200Q197 112 195 108L154 10Q151 0 141 0H17Q11 0 9 4T9 14L302 690Q307 700 316 700H468Q477 700 480 690L606 14V11Q606 6 603 3T595
0H471Q462 0 460 10ZM243 221T247 221H418Q423 221 423 227L372 524Q371 528 369 528T366 524L244 227Q243 221 247 221ZM246 758T246 765Q246 769 249 773L333 878Q338 886 347 886H476Q485 886 489 878L550 773Q552 769 552 767Q552 763 549 761T540 758H453Q443
758 440 766L409 827Q406 833 403 827L357 766Q351 758 342 758H255Q246 758 246 765Z" />
<glyph unicode="&#xc3;" glyph-name="Atilde" horiz-adv-x="651" d="M462 0T460 10L443 108Q443 109 442 110T439 112H200Q197 112 195 108L154 10Q151 0 141 0H17Q11 0 9 4T9 14L302 690Q307 700 316 700H468Q477 700 480 690L606 14V11Q606 6 603 3T595 0H471Q462
0 460 10ZM243 221T247 221H418Q423 221 423 227L372 524Q371 528 369 528T366 524L244 227Q243 221 247 221ZM440 759T427 763T397 777Q378 787 369 790T350 794Q319 794 295 772Q290 767 286 767Q282 767 279 771L245 815Q241 821 241 824Q241 828 244 832Q264
860 293 877T355 894Q373 894 386 889T411 879T425 871Q442 861 451 857T471 853Q500 853 521 877Q525 882 530 882Q534 882 537 878L568 833Q573 825 569 819Q553 792 524 776T460 759Q440 759 427 763Z" />
<glyph unicode="&#xc4;" glyph-name="Adieresis" horiz-adv-x="651" d="M462 0T460 10L443 108Q443 109 442 110T439 112H200Q197 112 195 108L154 10Q151 0 141 0H17Q11 0 9 4T9 14L302 690Q307 700 316 700H468Q477 700 480 690L606 14V11Q606 6 603 3T595 0H471Q462
0 460 10ZM243 221T247 221H418Q423 221 423 227L372 524Q371 528 369 528T366 524L244 227Q243 221 247 221ZM465 764T446 783T427 833Q427 871 452 896T515 922Q546 922 564 904T583 854Q583 816 557 790T495 764Q465 764 446 783ZM272 764T253 783T234 833Q234
871 259 896T322 922Q353 922 371 904T390 854Q390 816 364 790T302 764Q272 764 253 783Z" />
<glyph unicode="&#xc5;" glyph-name="Aring" horiz-adv-x="651" d="M462 0T460 10L443 108Q443 109 442 110T439 112H200Q197 112 195 108L154 10Q151 0 141 0H17Q11 0 9 4T9 14L302 690Q307 700 316 700H468Q477 700 480 690L606 14V11Q606 6 603 3T595 0H471Q462
0 460 10ZM243 221T247 221H418Q423 221 423 227L372 524Q371 528 369 528T366 524L244 227Q243 221 247 221ZM349 749T319 779T289 857Q289 895 308 927T358 978T427 997Q473 997 503 967T533 890Q533 852 515 820T464 768T396 749Q349 749 319 779ZM427 823T444
840T461 880Q461 899 449 911T418 924Q396 924 379 908T362 867Q362 848 374 836T406 823Q427 823 444 840Z" />
<glyph unicode="&#xc6;" glyph-name="AE" horiz-adv-x="931" d="M947 586T943 583T934 579H626Q622 579 620 574L601 419Q601 414 606 414H805Q810 414 813 411T816 402L804 305Q803 300 800 297T791 293H591Q587 293 585 288L565 126Q565 121 570 121H878Q883
121 886 118T888 109L876 12Q876 7 872 4T863 0H425Q420 0 417 3T415 12L426 107Q428 112 422 112H225Q221 112 219 108L159 9Q155 0 145 0H19Q13 0 11 3T12 14L428 691Q434 700 443 700H949Q954 700 957 697T959 688L948 591Q947 586 943 583ZM289 224T290 223T294
221H436Q438 221 439 222T441 226L478 527Q479 531 477 531T472 528L291 227Q289 224 290 223Z" />
<glyph unicode="&#xc7;" glyph-name="Ccedilla" horiz-adv-x="590" d="M586 467T575 466L461 459H459Q449 459 451 470Q452 476 452 487Q452 533 425 560T350 587Q298 587 263 555T221 470L191 229Q190 223 190 212Q190 167 217 140T292 113Q344 113 379 145T421
229Q423 240 434 240L547 235Q552 235 555 233T557 225Q545 129 479 67T313 -6Q306 -8 310 -13Q340 -46 340 -86Q340 -105 333 -122Q320 -156 293 -171T233 -186Q203 -186 175 -175Q166 -172 168 -161L181 -111Q184 -98 197 -103Q206 -106 215 -106Q230 -106 241
-97T252 -70Q252 -38 208 -2Q208 -1 203 1Q132 19 93 70T53 198Q53 222 55 235L83 466Q92 538 130 593T229 678T365 708Q469 708 529 654T590 510Q590 499 588 477V472Q586 467 575 466Z" />
<glyph unicode="&#xc8;" glyph-name="Egrave" horiz-adv-x="567" d="M583 586T580 583T571 579H252Q250 579 249 578T247 574L228 419Q228 414 232 414H441Q446 414 449 411T451 402L439 305Q438 300 435 297T426 293H217Q212 293 212 288L192 126Q192 121 196
121H514Q525 121 525 109L513 12Q512 7 509 4T500 0H51Q46 0 43 3T41 12L124 688Q125 693 128 696T137 700H585Q590 700 593 697T596 688L584 591Q583 586 580 583ZM419 774T419 771Q419 767 416 765T409 762H327Q318 762 315 770L258 871Q256 875 256 877Q256
881 259 883T268 886H366Q376 886 379 877L418 776Q419 774 419 771Z" />
<glyph unicode="&#xc9;" glyph-name="Eacute" horiz-adv-x="567" d="M583 586T580 583T571 579H252Q250 579 249 578T247 574L228 419Q228 414 232 414H441Q446 414 449 411T451 402L439 305Q438 300 435 297T426 293H217Q212 293 212 288L192 126Q192 121 196
121H514Q525 121 525 109L513 12Q512 7 509 4T500 0H51Q46 0 43 3T41 12L124 688Q125 693 128 696T137 700H585Q590 700 593 697T596 688L584 591Q583 586 580 583ZM303 762T303 768Q303 772 306 776L370 877Q374 886 385 886H483Q492 886 492 879Q492 876 489
871L408 770Q402 762 393 762H312Q303 762 303 768Z" />
<glyph unicode="&#xca;" glyph-name="Ecircumflex" horiz-adv-x="567" d="M583 586T580 583T571 579H252Q250 579 249 578T247 574L228 419Q228 414 232 414H441Q446 414 449 411T451 402L439 305Q438 300 435 297T426 293H217Q212 293 212 288L192 126Q192 121
196 121H514Q525 121 525 109L513 12Q512 7 509 4T500 0H51Q46 0 43 3T41 12L124 688Q125 693 128 696T137 700H585Q590 700 593 697T596 688L584 591Q583 586 580 583ZM215 758T215 765Q215 769 218 773L302 878Q307 886 316 886H445Q454 886 458 878L519 773Q521
769 521 767Q521 763 518 761T509 758H422Q412 758 409 766L378 827Q375 833 372 827L326 766Q320 758 311 758H224Q215 758 215 765Z" />
<glyph unicode="&#xcb;" glyph-name="Edieresis" horiz-adv-x="567" d="M583 586T580 583T571 579H252Q250 579 249 578T247 574L228 419Q228 414 232 414H441Q446 414 449 411T451 402L439 305Q438 300 435 297T426 293H217Q212 293 212 288L192 126Q192 121
196 121H514Q525 121 525 109L513 12Q512 7 509 4T500 0H51Q46 0 43 3T41 12L124 688Q125 693 128 696T137 700H585Q590 700 593 697T596 688L584 591Q583 586 580 583ZM433 764T414 783T395 833Q395 871 420 896T483 922Q514 922 532 904T551 854Q551 816 525
790T463 764Q433 764 414 783ZM240 764T221 783T202 833Q202 871 227 896T290 922Q321 922 339 904T358 854Q358 816 332 790T270 764Q240 764 221 783Z" />
<glyph unicode="&#xcc;" glyph-name="Igrave" horiz-adv-x="255" d="M46 0T43 3T41 12L124 688Q125 693 128 696T137 700H251Q256 700 259 697T261 688L178 12Q177 7 174 4T165 0H51Q46 0 43 3ZM254 774T254 771Q254 767 251 765T244 762H162Q153 762 150 770L93
871Q91 875 91 877Q91 881 94 883T103 886H201Q211 886 214 877L253 776Q254 774 254 771Z" />
<glyph unicode="&#xcd;" glyph-name="Iacute" horiz-adv-x="255" d="M46 0T43 3T41 12L124 688Q125 693 128 696T137 700H251Q256 700 259 697T261 688L178 12Q177 7 174 4T165 0H51Q46 0 43 3ZM139 762T139 768Q139 772 142 776L206 877Q210 886 221 886H319Q328
886 328 879Q328 876 325 871L244 770Q238 762 229 762H148Q139 762 139 768Z" />
<glyph unicode="&#xce;" glyph-name="Icircumflex" horiz-adv-x="255" d="M46 0T43 3T41 12L124 688Q125 693 128 696T137 700H251Q256 700 259 697T261 688L178 12Q177 7 174 4T165 0H51Q46 0 43 3ZM50 758T50 765Q50 769 53 773L137 878Q142 886 151 886H280Q289
886 293 878L354 773Q356 769 356 767Q356 763 353 761T344 758H257Q247 758 244 766L213 827Q210 833 207 827L161 766Q155 758 146 758H59Q50 758 50 765Z" />
<glyph unicode="&#xcf;" glyph-name="Idieresis" horiz-adv-x="255" d="M46 0T43 3T41 12L124 688Q125 693 128 696T137 700H251Q256 700 259 697T261 688L178 12Q177 7 174 4T165 0H51Q46 0 43 3ZM268 764T249 783T230 833Q230 871 255 896T318 922Q349 922 367
904T386 854Q386 816 360 790T298 764Q268 764 249 783ZM75 764T56 783T37 833Q37 871 62 896T125 922Q156 922 174 904T193 854Q193 816 167 790T105 764Q75 764 56 783Z" />
<glyph unicode="&#xd0;" glyph-name="Eth" horiz-adv-x="649" d="M531 700T590 650T649 516Q649 508 647 488L613 212Q605 149 569 101T475 27T343 0H101Q96 0 93 3T91 12L127 308Q127 313 123 313H90Q85 313 82 316T80 325L89 397Q89 402 93 405T102 409H135Q140
409 140 414L174 688Q175 693 178 696T187 700H429Q531 700 590 650ZM507 465Q508 472 508 486Q508 529 485 554T419 579H302Q298 579 296 574L277 414Q275 409 281 409H359Q364 409 367 406T369 397L360 325Q359 320 356 317T347 313H269Q264 313 264 308L241
126Q241 121 246 121H364Q408 121 440 152T479 235L507 465Z" />
<glyph unicode="&#xd1;" glyph-name="Ntilde" horiz-adv-x="645" d="M515 693T518 696T527 700H641Q646 700 649 697T651 688L568 12Q567 7 564 4T555 0H445Q436 0 433 8L234 436Q233 439 231 439T228 434L178 12Q177 7 174 4T165 0H51Q46 0 43 3T41 12L124 688Q125
693 128 696T137 700H247Q256 700 260 692L458 266Q459 263 461 263T464 268L514 688Q515 693 518 696ZM432 759T419 763T389 777Q370 787 361 790T342 794Q311 794 287 772Q282 767 278 767Q274 767 271 771L237 815Q233 821 233 824Q233 828 236 832Q256 860
285 877T347 894Q365 894 378 889T403 879T417 871Q434 861 443 857T463 853Q492 853 513 877Q517 882 522 882Q526 882 529 878L560 833Q565 825 561 819Q545 792 516 776T452 759Q432 759 419 763Z" />
<glyph unicode="&#xd2;" glyph-name="Ograve" horiz-adv-x="603" d="M176 -11T115 47T53 204Q53 222 56 243L82 457Q91 531 130 588T230 676T368 708Q473 708 534 650T596 496Q596 477 593 457L567 243Q558 168 519 111T418 21T280 -11Q176 -11 115 47ZM349 110T385
145T430 238L457 458Q458 465 458 479Q458 529 430 558T353 587Q300 587 263 552T219 458L192 238Q191 231 191 217Q191 168 219 139T295 110Q349 110 385 145ZM427 774T427 771Q427 767 424 765T417 762H335Q326 762 323 770L266 871Q264 875 264 877Q264 881
267 883T276 886H374Q384 886 387 877L426 776Q427 774 427 771Z" />
<glyph unicode="&#xd3;" glyph-name="Oacute" horiz-adv-x="603" d="M176 -11T115 47T53 204Q53 222 56 243L82 457Q91 531 130 588T230 676T368 708Q473 708 534 650T596 496Q596 477 593 457L567 243Q558 168 519 111T418 21T280 -11Q176 -11 115 47ZM349 110T385
145T430 238L457 458Q458 465 458 479Q458 529 430 558T353 587Q300 587 263 552T219 458L192 238Q191 231 191 217Q191 168 219 139T295 110Q349 110 385 145ZM312 762T312 768Q312 772 315 776L379 877Q383 886 394 886H492Q501 886 501 879Q501 876 498 871L417
770Q411 762 402 762H321Q312 762 312 768Z" />
<glyph unicode="&#xd4;" glyph-name="Ocircumflex" horiz-adv-x="603" d="M176 -11T115 47T53 204Q53 222 56 243L82 457Q91 531 130 588T230 676T368 708Q473 708 534 650T596 496Q596 477 593 457L567 243Q558 168 519 111T418 21T280 -11Q176 -11 115 47ZM349
110T385 145T430 238L457 458Q458 465 458 479Q458 529 430 558T353 587Q300 587 263 552T219 458L192 238Q191 231 191 217Q191 168 219 139T295 110Q349 110 385 145ZM223 758T223 765Q223 769 226 773L310 878Q315 886 324 886H453Q462 886 466 878L527 773Q529
769 529 767Q529 763 526 761T517 758H430Q420 758 417 766L386 827Q383 833 380 827L334 766Q328 758 319 758H232Q223 758 223 765Z" />
<glyph unicode="&#xd5;" glyph-name="Otilde" horiz-adv-x="603" d="M176 -11T115 47T53 204Q53 222 56 243L82 457Q91 531 130 588T230 676T368 708Q473 708 534 650T596 496Q596 477 593 457L567 243Q558 168 519 111T418 21T280 -11Q176 -11 115 47ZM349 110T385
145T430 238L457 458Q458 465 458 479Q458 529 430 558T353 587Q300 587 263 552T219 458L192 238Q191 231 191 217Q191 168 219 139T295 110Q349 110 385 145ZM417 759T404 763T374 777Q355 787 346 790T327 794Q296 794 272 772Q267 767 263 767Q259 767 256
771L222 815Q218 821 218 824Q218 828 221 832Q241 860 270 877T332 894Q350 894 363 889T388 879T402 871Q419 861 428 857T448 853Q477 853 498 877Q502 882 507 882Q511 882 514 878L545 833Q550 825 546 819Q530 792 501 776T437 759Q417 759 404 763Z" />
<glyph unicode="&#xd6;" glyph-name="Odieresis" horiz-adv-x="603" d="M176 -11T115 47T53 204Q53 222 56 243L82 457Q91 531 130 588T230 676T368 708Q473 708 534 650T596 496Q596 477 593 457L567 243Q558 168 519 111T418 21T280 -11Q176 -11 115 47ZM349
110T385 145T430 238L457 458Q458 465 458 479Q458 529 430 558T353 587Q300 587 263 552T219 458L192 238Q191 231 191 217Q191 168 219 139T295 110Q349 110 385 145ZM441 764T422 783T403 833Q403 871 428 896T491 922Q522 922 540 904T559 854Q559 816 533
790T471 764Q441 764 422 783ZM248 764T229 783T210 833Q210 871 235 896T298 922Q329 922 347 904T366 854Q366 816 340 790T278 764Q248 764 229 783Z" />
<glyph unicode="&#xd7;" glyph-name="multiply" horiz-adv-x="432" d="M433 428T433 424Q433 420 428 415L322 318Q319 315 321 310L403 214Q405 212 405 207Q405 202 401 198L325 129Q321 125 317 125Q314 125 310 129L228 225Q227 227 225 227T221 225L116 129Q112
125 107 125Q102 125 99 129L42 197Q39 200 39 204Q39 208 44 213L150 310Q153 313 151 318L68 416Q65 419 65 423Q65 427 70 432L144 500Q148 504 153 504Q157 504 160 500L243 403Q244 401 246 401T250 403L356 500Q360 504 365 504Q369 504 372 500L430 431Q433
428 433 424Z" />
<glyph unicode="&#xd8;" glyph-name="Oslash" horiz-adv-x="596" d="M638 673T638 669Q638 664 634 659L576 584Q575 582 575 577Q589 538 589 494Q589 483 587 457L560 243Q551 168 512 111T411 21T273 -11Q196 -11 142 22Q140 23 135 20L93 -36Q89 -41 85 -42T76
-39L3 24Q-1 28 -1 32Q-1 35 3 41L60 114Q61 116 61 121Q47 160 47 206Q47 217 49 243L76 457Q85 531 123 588T223 676T361 708Q439 708 492 676Q496 675 499 678L543 736Q547 741 551 742T560 739L634 676Q638 673 638 669ZM450 458Q451 466 451 480Q451 529 423
558T347 587Q294 587 257 552T212 458L185 238Q184 231 184 217Q184 168 212 139T288 110Q342 110 379 145T423 238L450 458Z" />
<glyph unicode="&#xd9;" glyph-name="Ugrave" horiz-adv-x="611" d="M182 -8T122 48T61 198Q61 208 63 232L119 688Q120 693 124 696T133 700H246Q251 700 254 697T256 688L200 231Q199 224 199 212Q199 167 226 140T300 113Q351 113 386 145T429 231L485 688Q486
693 489 696T498 700H612Q617 700 620 697T622 688L566 232Q557 161 519 107T421 22T285 -8Q182 -8 122 48ZM432 774T432 771Q432 767 429 765T422 762H340Q331 762 328 770L271 871Q269 875 269 877Q269 881 272 883T281 886H379Q389 886 392 877L431 776Q432
774 432 771Z" />
<glyph unicode="&#xda;" glyph-name="Uacute" horiz-adv-x="611" d="M182 -8T122 48T61 198Q61 208 63 232L119 688Q120 693 124 696T133 700H246Q251 700 254 697T256 688L200 231Q199 224 199 212Q199 167 226 140T300 113Q351 113 386 145T429 231L485 688Q486
693 489 696T498 700H612Q617 700 620 697T622 688L566 232Q557 161 519 107T421 22T285 -8Q182 -8 122 48ZM317 762T317 768Q317 772 320 776L384 877Q388 886 399 886H497Q506 886 506 879Q506 876 503 871L422 770Q416 762 407 762H326Q317 762 317 768Z" />
<glyph unicode="&#xdb;" glyph-name="Ucircumflex" horiz-adv-x="611" d="M182 -8T122 48T61 198Q61 208 63 232L119 688Q120 693 124 696T133 700H246Q251 700 254 697T256 688L200 231Q199 224 199 212Q199 167 226 140T300 113Q351 113 386 145T429 231L485
688Q486 693 489 696T498 700H612Q617 700 620 697T622 688L566 232Q557 161 519 107T421 22T285 -8Q182 -8 122 48ZM228 758T228 765Q228 769 231 773L315 878Q320 886 329 886H458Q467 886 471 878L532 773Q534 769 534 767Q534 763 531 761T522 758H435Q425
758 422 766L391 827Q388 833 385 827L339 766Q333 758 324 758H237Q228 758 228 765Z" />
<glyph unicode="&#xdc;" glyph-name="Udieresis" horiz-adv-x="611" d="M182 -8T122 48T61 198Q61 208 63 232L119 688Q120 693 124 696T133 700H246Q251 700 254 697T256 688L200 231Q199 224 199 212Q199 167 226 140T300 113Q351 113 386 145T429 231L485 688Q486
693 489 696T498 700H612Q617 700 620 697T622 688L566 232Q557 161 519 107T421 22T285 -8Q182 -8 122 48ZM446 764T427 783T408 833Q408 871 433 896T496 922Q527 922 545 904T564 854Q564 816 538 790T476 764Q446 764 427 783ZM253 764T234 783T215 833Q215
871 240 896T303 922Q334 922 352 904T371 854Q371 816 345 790T283 764Q253 764 234 783Z" />
<glyph unicode="&#xdd;" glyph-name="Yacute" horiz-adv-x="599" d="M218 1T215 4T213 13L244 266Q244 267 244 268T244 272L95 686Q94 688 94 691Q94 700 105 700H228Q237 700 240 691L329 425Q331 418 334 425L488 691Q493 700 503 700H627Q634 700 636 697T634
686L382 272Q380 270 380 266L349 13Q348 8 345 5T336 1H223Q218 1 215 4ZM310 761T310 767Q310 771 313 775L377 876Q381 885 392 885H490Q499 885 499 878Q499 875 496 870L415 769Q409 761 400 761H319Q310 761 310 767Z" />
<glyph unicode="&#xde;" glyph-name="Thorn" horiz-adv-x="564" d="M461 561T513 511T565 379Q565 370 563 348Q555 286 520 239T432 165T316 139H194Q190 139 188 134L173 12Q172 7 169 4T160 0H47Q36 0 36 12L119 688Q120 693 124 696T133 700H246Q251 700 254
697T256 688L241 566Q241 561 245 561H374Q461 561 513 511ZM359 253T389 277T426 345Q427 350 427 359Q427 397 403 418T338 440H231Q225 440 225 435L203 258Q203 253 208 253H315Q359 253 389 277Z" />
<glyph unicode="&#xdf;" glyph-name="germandbls" horiz-adv-x="557" d="M40 1T37 4T35 13L92 484Q106 590 172 649T345 708Q440 708 497 663T554 540Q554 532 552 514Q542 424 466 383Q462 380 465 377Q495 358 511 322T528 239Q528 230 526 206Q514 108 443
54T254 0H222Q217 0 214 3T212 12L224 108Q225 113 228 116T237 120H282Q329 120 360 152T392 238Q392 277 370 299T313 321H270Q265 321 262 324T260 333L271 420Q272 425 275 428T284 432H325Q363 432 389 457T415 520Q415 550 397 569T340 588Q298 588 267 564T231
497L171 12Q170 7 167 4T158 0L45 1Q40 1 37 4Z" />
<glyph unicode="&#xe0;" glyph-name="agrave" horiz-adv-x="512" d="M403 507T406 510T415 514H529Q534 514 537 511T539 502L479 12Q478 7 475 4T466 0H352Q347 0 344 3T342 12L347 55Q348 59 346 59T342 57Q294 -8 212 -8Q148 -8 103 32T48 142Q45 163 45 185Q45
215 50 258Q60 336 82 386Q109 446 162 484T283 522Q363 522 392 464Q394 461 395 461T398 465L402 502Q403 507 406 510ZM358 187T363 205T372 256Q376 283 376 303Q376 320 370 344Q365 370 347 385T301 401Q272 401 250 385T215 343Q199 313 193 257Q189 229
189 208Q189 189 194 172Q199 145 218 129T266 113Q295 113 316 129T350 172Q358 187 363 205ZM360 588T360 585Q360 581 357 579T350 576H268Q259 576 256 584L199 685Q197 689 197 691Q197 695 200 697T209 700H307Q317 700 320 691L359 590Q360 588 360 585Z"
/>
<glyph unicode="&#xe1;" glyph-name="aacute" horiz-adv-x="512" d="M403 507T406 510T415 514H529Q534 514 537 511T539 502L479 12Q478 7 475 4T466 0H352Q347 0 344 3T342 12L347 55Q348 59 346 59T342 57Q294 -8 212 -8Q148 -8 103 32T48 142Q45 163 45 185Q45
215 50 258Q60 336 82 386Q109 446 162 484T283 522Q363 522 392 464Q394 461 395 461T398 465L402 502Q403 507 406 510ZM358 187T363 205T372 256Q376 283 376 303Q376 320 370 344Q365 370 347 385T301 401Q272 401 250 385T215 343Q199 313 193 257Q189 229
189 208Q189 189 194 172Q199 145 218 129T266 113Q295 113 316 129T350 172Q358 187 363 205ZM245 576T245 582Q245 586 248 590L312 691Q316 700 327 700H425Q434 700 434 693Q434 690 431 685L350 584Q344 576 335 576H254Q245 576 245 582Z" />
<glyph unicode="&#xe2;" glyph-name="acircumflex" horiz-adv-x="512" d="M403 507T406 510T415 514H529Q534 514 537 511T539 502L479 12Q478 7 475 4T466 0H352Q347 0 344 3T342 12L347 55Q348 59 346 59T342 57Q294 -8 212 -8Q148 -8 103 32T48 142Q45 163
45 185Q45 215 50 258Q60 336 82 386Q109 446 162 484T283 522Q363 522 392 464Q394 461 395 461T398 465L402 502Q403 507 406 510ZM358 187T363 205T372 256Q376 283 376 303Q376 320 370 344Q365 370 347 385T301 401Q272 401 250 385T215 343Q199 313 193 257Q189
229 189 208Q189 189 194 172Q199 145 218 129T266 113Q295 113 316 129T350 172Q358 187 363 205ZM156 572T156 579Q156 583 159 587L243 692Q248 700 257 700H386Q395 700 399 692L460 587Q462 583 462 581Q462 577 459 575T450 572H363Q353 572 350 580L319
641Q316 647 313 641L267 580Q261 572 252 572H165Q156 572 156 579Z" />
<glyph unicode="&#xe3;" glyph-name="atilde" horiz-adv-x="512" d="M403 507T406 510T415 514H529Q534 514 537 511T539 502L479 12Q478 7 475 4T466 0H352Q347 0 344 3T342 12L347 55Q348 59 346 59T342 57Q294 -8 212 -8Q148 -8 103 32T48 142Q45 163 45 185Q45
215 50 258Q60 336 82 386Q109 446 162 484T283 522Q363 522 392 464Q394 461 395 461T398 465L402 502Q403 507 406 510ZM358 187T363 205T372 256Q376 283 376 303Q376 320 370 344Q365 370 347 385T301 401Q272 401 250 385T215 343Q199 313 193 257Q189 229
189 208Q189 189 194 172Q199 145 218 129T266 113Q295 113 316 129T350 172Q358 187 363 205ZM349 573T336 577T306 591Q287 601 278 604T259 608Q228 608 204 586Q199 581 195 581Q191 581 188 585L154 629Q150 635 150 638Q150 642 153 646Q173 674 202 691T264
708Q282 708 295 703T320 693T334 685Q351 675 360 671T380 667Q409 667 430 691Q434 696 439 696Q443 696 446 692L477 647Q482 639 478 633Q462 606 433 590T369 573Q349 573 336 577Z" />
<glyph unicode="&#xe4;" glyph-name="adieresis" horiz-adv-x="512" d="M403 507T406 510T415 514H529Q534 514 537 511T539 502L479 12Q478 7 475 4T466 0H352Q347 0 344 3T342 12L347 55Q348 59 346 59T342 57Q294 -8 212 -8Q148 -8 103 32T48 142Q45 163 45
185Q45 215 50 258Q60 336 82 386Q109 446 162 484T283 522Q363 522 392 464Q394 461 395 461T398 465L402 502Q403 507 406 510ZM358 187T363 205T372 256Q376 283 376 303Q376 320 370 344Q365 370 347 385T301 401Q272 401 250 385T215 343Q199 313 193 257Q189
229 189 208Q189 189 194 172Q199 145 218 129T266 113Q295 113 316 129T350 172Q358 187 363 205ZM374 578T355 597T336 647Q336 685 361 710T424 736Q455 736 473 718T492 668Q492 630 466 604T404 578Q374 578 355 597ZM181 578T162 597T143 647Q143 685 168
710T231 736Q262 736 280 718T299 668Q299 630 273 604T211 578Q181 578 162 597Z" />
<glyph unicode="&#xe5;" glyph-name="aring" horiz-adv-x="512" d="M403 507T406 510T415 514H529Q534 514 537 511T539 502L479 12Q478 7 475 4T466 0H352Q347 0 344 3T342 12L347 55Q348 59 346 59T342 57Q294 -8 212 -8Q148 -8 103 32T48 142Q45 163 45 185Q45
215 50 258Q60 336 82 386Q109 446 162 484T283 522Q363 522 392 464Q394 461 395 461T398 465L402 502Q403 507 406 510ZM358 187T363 205T372 256Q376 283 376 303Q376 320 370 344Q365 370 347 385T301 401Q272 401 250 385T215 343Q199 313 193 257Q189 229
189 208Q189 189 194 172Q199 145 218 129T266 113Q295 113 316 129T350 172Q358 187 363 205ZM259 563T229 593T199 671Q199 709 218 741T268 792T337 811Q383 811 413 781T443 704Q443 666 425 634T374 582T306 563Q259 563 229 593ZM337 637T354 654T371 694Q371
713 359 725T328 738Q306 738 289 722T272 681Q272 662 284 650T316 637Q337 637 354 654Z" />
<glyph unicode="&#xe6;" glyph-name="ae" horiz-adv-x="813" d="M114 -8T68 24T21 121Q21 135 22 142Q31 215 89 258T244 302H343Q348 302 348 307L351 327L352 338Q352 367 334 384T279 401Q250 401 228 390T198 359Q197 354 193 351T184 349L72 364Q60 366 63
378Q72 419 105 452T185 503T285 522Q339 522 380 500T439 444Q441 440 445 444Q468 475 511 498T604 522Q672 522 725 482T792 374Q796 350 796 328Q796 286 788 225Q787 212 775 212H482Q477 212 477 207L476 197L477 184Q478 149 505 132T576 115Q644 115 683
159Q691 169 699 161L751 105Q754 101 754 96Q754 93 751 88Q715 44 663 18T548 -8Q492 -8 450 14T392 72Q390 79 387 74Q361 38 308 15T191 -8Q114 -8 68 24ZM485 302T491 302H654Q659 302 659 307L660 321Q660 356 640 378T585 401Q555 401 532 384T496 338L487
307Q485 302 491 302ZM265 94T296 116T332 177L336 207Q336 212 332 212H261Q214 212 187 195T160 146Q160 123 177 109T226 94Q265 94 296 116Z" />
<glyph unicode="&#xe7;" glyph-name="ccedilla" horiz-adv-x="521" d="M357 179T357 181Q358 182 358 184Q361 196 373 194L482 176Q493 174 491 163Q487 147 481 135Q457 80 409 44T299 -4Q293 -4 297 -10Q330 -48 330 -87Q330 -101 323 -122Q309 -156 282 -171T223
-186Q193 -186 165 -175Q155 -172 158 -160L171 -111Q174 -99 186 -102Q195 -105 205 -105Q217 -105 226 -100T239 -83Q242 -76 242 -69Q242 -40 201 -5L195 -2Q139 10 102 47T52 142Q46 171 46 203Q46 220 50 260Q58 324 81 376Q113 444 175 483T314 522Q392 522
445 482T511 381Q515 366 515 345Q515 340 512 337T503 332L390 315H388Q378 315 378 325L377 341Q373 367 352 384T299 401Q268 401 245 385T209 341Q194 309 188 259Q185 234 185 213Q185 191 188 177Q193 147 212 130T263 113Q294 113 318 129T355 175Q357 179
357 181Z" />
<glyph unicode="&#xe8;" glyph-name="egrave" horiz-adv-x="528" d="M511 279T504 225Q501 213 490 213H190Q185 213 185 208Q186 186 191 168Q211 112 287 112Q348 113 392 164Q400 175 407 166L469 95Q472 91 472 87Q472 82 468 78Q431 37 378 15T264 -8Q181
-8 128 31T58 140Q50 168 50 211Q50 235 53 262Q57 318 80 368Q111 439 172 481T310 523Q407 523 458 465T510 310Q511 279 504 225ZM234 401T208 342Q200 322 197 310Q197 305 201 305H369Q374 305 374 310Q374 322 372 338Q367 368 348 384T296 401Q234 401 208
342ZM367 588T367 585Q367 581 364 579T357 576H275Q266 576 263 584L206 685Q204 689 204 691Q204 695 207 697T216 700H314Q324 700 327 691L366 590Q367 588 367 585Z" />
<glyph unicode="&#xe9;" glyph-name="eacute" horiz-adv-x="528" d="M511 279T504 225Q501 213 490 213H190Q185 213 185 208Q186 186 191 168Q211 112 287 112Q348 113 392 164Q400 175 407 166L469 95Q472 91 472 87Q472 82 468 78Q431 37 378 15T264 -8Q181
-8 128 31T58 140Q50 168 50 211Q50 235 53 262Q57 318 80 368Q111 439 172 481T310 523Q407 523 458 465T510 310Q511 279 504 225ZM234 401T208 342Q200 322 197 310Q197 305 201 305H369Q374 305 374 310Q374 322 372 338Q367 368 348 384T296 401Q234 401 208
342ZM252 576T252 582Q252 586 255 590L319 691Q323 700 334 700H432Q441 700 441 693Q441 690 438 685L357 584Q351 576 342 576H261Q252 576 252 582Z" />
<glyph unicode="&#xea;" glyph-name="ecircumflex" horiz-adv-x="528" d="M511 279T504 225Q501 213 490 213H190Q185 213 185 208Q186 186 191 168Q211 112 287 112Q348 113 392 164Q400 175 407 166L469 95Q472 91 472 87Q472 82 468 78Q431 37 378 15T264 -8Q181
-8 128 31T58 140Q50 168 50 211Q50 235 53 262Q57 318 80 368Q111 439 172 481T310 523Q407 523 458 465T510 310Q511 279 504 225ZM234 401T208 342Q200 322 197 310Q197 305 201 305H369Q374 305 374 310Q374 322 372 338Q367 368 348 384T296 401Q234 401 208
342ZM163 572T163 579Q163 583 166 587L250 692Q255 700 264 700H393Q402 700 406 692L467 587Q469 583 469 581Q469 577 466 575T457 572H370Q360 572 357 580L326 641Q323 647 320 641L274 580Q268 572 259 572H172Q163 572 163 579Z" />
<glyph unicode="&#xeb;" glyph-name="edieresis" horiz-adv-x="528" d="M511 279T504 225Q501 213 490 213H190Q185 213 185 208Q186 186 191 168Q211 112 287 112Q348 113 392 164Q400 175 407 166L469 95Q472 91 472 87Q472 82 468 78Q431 37 378 15T264 -8Q181
-8 128 31T58 140Q50 168 50 211Q50 235 53 262Q57 318 80 368Q111 439 172 481T310 523Q407 523 458 465T510 310Q511 279 504 225ZM234 401T208 342Q200 322 197 310Q197 305 201 305H369Q374 305 374 310Q374 322 372 338Q367 368 348 384T296 401Q234 401 208
342ZM381 578T362 597T343 647Q343 685 368 710T431 736Q462 736 480 718T499 668Q499 630 473 604T411 578Q381 578 362 597ZM188 578T169 597T150 647Q150 685 175 710T238 736Q269 736 287 718T306 668Q306 630 280 604T218 578Q188 578 169 597Z" />
<glyph unicode="&#xec;" glyph-name="igrave" horiz-adv-x="230" d="M34 0T31 3T29 12L89 502Q90 507 93 510T102 514H215Q226 514 226 502L165 12Q165 7 161 4T152 0H39Q34 0 31 3ZM219 588T219 585Q219 581 216 579T209 576H127Q118 576 115 584L58 685Q56 689
56 691Q56 695 59 697T68 700H166Q176 700 179 691L218 590Q219 588 219 585Z" />
<glyph unicode="&#xed;" glyph-name="iacute" horiz-adv-x="230" d="M34 0T31 3T29 12L89 502Q90 507 93 510T102 514H215Q226 514 226 502L165 12Q165 7 161 4T152 0H39Q34 0 31 3ZM103 576T103 582Q103 586 106 590L170 691Q174 700 185 700H283Q292 700 292
693Q292 690 289 685L208 584Q202 576 193 576H112Q103 576 103 582Z" />
<glyph unicode="&#xee;" glyph-name="icircumflex" horiz-adv-x="230" d="M34 0T31 3T29 12L89 502Q90 507 93 510T102 514H215Q226 514 226 502L165 12Q165 7 161 4T152 0H39Q34 0 31 3ZM15 572T15 579Q15 583 18 587L102 692Q107 700 116 700H245Q254 700 258
692L319 587Q321 583 321 581Q321 577 318 575T309 572H222Q212 572 209 580L178 641Q175 647 172 641L126 580Q120 572 111 572H24Q15 572 15 579Z" />
<glyph unicode="&#xef;" glyph-name="idieresis" horiz-adv-x="230" d="M34 0T31 3T29 12L89 502Q90 507 93 510T102 514H215Q226 514 226 502L165 12Q165 7 161 4T152 0H39Q34 0 31 3ZM233 578T214 597T195 647Q195 685 220 710T283 736Q314 736 332 718T351
668Q351 630 325 604T263 578Q233 578 214 597ZM40 578T21 597T2 647Q2 685 27 710T90 736Q121 736 139 718T158 668Q158 630 132 604T70 578Q40 578 21 597Z" />
<glyph unicode="&#xf0;" glyph-name="eth" horiz-adv-x="533" d="M503 338T503 322Q503 281 497 234Q490 169 470 127Q439 66 378 29T242 -8Q168 -8 117 28T50 127Q44 154 44 183Q44 207 47 234Q55 300 76 340Q93 376 123 403T190 441Q230 457 286 457Q330 457
352 446Q354 444 355 445T356 449Q345 491 325 529Q323 534 319 532L219 505L216 504Q208 504 206 514L199 565V567Q199 577 209 580L277 598Q282 600 280 605Q257 638 217 685Q214 690 214 692Q214 700 225 700H344Q353 700 357 693L397 633Q398 629 403 631L489
654L492 655Q500 655 502 645L508 594V591Q508 582 498 579L447 566Q445 565 444 563T444 559Q470 511 484 465T501 366Q503 338 503 322ZM353 182T359 230Q362 253 362 268Q362 288 358 300Q353 327 334 342T287 358Q259 358 237 343T203 300Q190 274 184 230Q182
217 182 197Q182 180 186 158Q191 131 209 115T256 98Q283 98 305 114T340 158Q353 182 359 230Z" />
<glyph unicode="&#xf1;" glyph-name="ntilde" horiz-adv-x="530" d="M425 522T466 482T507 371Q507 362 505 340L465 12Q464 7 461 4T452 0H339Q328 0 328 12L365 311Q366 316 366 327Q366 360 347 380T297 401Q261 401 236 377T206 311L169 12Q168 7 165 4T156
0H43Q38 0 35 3T33 12L93 502Q94 507 97 510T106 514H219Q224 514 227 511T229 502L225 467Q225 464 226 463T230 464Q275 522 355 522Q425 522 466 482ZM364 573T351 577T321 591Q302 601 293 604T274 608Q243 608 219 586Q214 581 210 581Q206 581 203 585L169
629Q165 635 165 638Q165 642 168 646Q188 674 217 691T279 708Q297 708 310 703T335 693T349 685Q366 675 375 671T395 667Q424 667 445 691Q449 696 454 696Q458 696 461 692L492 647Q497 639 493 633Q477 606 448 590T384 573Q364 573 351 577Z" />
<glyph unicode="&#xf2;" glyph-name="ograve" horiz-adv-x="533" d="M169 -8T116 36T51 156Q47 177 47 208Q47 233 50 258Q58 321 77 364Q109 438 172 480T316 522Q396 522 447 481T512 365Q518 337 518 303Q518 281 515 260Q509 210 489 159Q458 81 395 37T250
-8Q169 -8 116 36ZM297 113T321 133T361 188Q373 221 377 258Q380 282 380 303Q380 349 359 375T299 401Q267 401 243 382T204 329Q193 305 188 258Q185 233 185 209Q185 165 206 139T265 113Q297 113 321 133ZM370 588T370 585Q370 581 367 579T360 576H278Q269
576 266 584L209 685Q207 689 207 691Q207 695 210 697T219 700H317Q327 700 330 691L369 590Q370 588 370 585Z" />
<glyph unicode="&#xf3;" glyph-name="oacute" horiz-adv-x="533" d="M169 -8T116 36T51 156Q47 177 47 208Q47 233 50 258Q58 321 77 364Q109 438 172 480T316 522Q396 522 447 481T512 365Q518 337 518 303Q518 281 515 260Q509 210 489 159Q458 81 395 37T250
-8Q169 -8 116 36ZM297 113T321 133T361 188Q373 221 377 258Q380 282 380 303Q380 349 359 375T299 401Q267 401 243 382T204 329Q193 305 188 258Q185 233 185 209Q185 165 206 139T265 113Q297 113 321 133ZM255 576T255 582Q255 586 258 590L322 691Q326 700
337 700H435Q444 700 444 693Q444 690 441 685L360 584Q354 576 345 576H264Q255 576 255 582Z" />
<glyph unicode="&#xf4;" glyph-name="ocircumflex" horiz-adv-x="533" d="M169 -8T116 36T51 156Q47 177 47 208Q47 233 50 258Q58 321 77 364Q109 438 172 480T316 522Q396 522 447 481T512 365Q518 337 518 303Q518 281 515 260Q509 210 489 159Q458 81 395
37T250 -8Q169 -8 116 36ZM297 113T321 133T361 188Q373 221 377 258Q380 282 380 303Q380 349 359 375T299 401Q267 401 243 382T204 329Q193 305 188 258Q185 233 185 209Q185 165 206 139T265 113Q297 113 321 133ZM166 572T166 579Q166 583 169 587L253 692Q258
700 267 700H396Q405 700 409 692L470 587Q472 583 472 581Q472 577 469 575T460 572H373Q363 572 360 580L329 641Q326 647 323 641L277 580Q271 572 262 572H175Q166 572 166 579Z" />
<glyph unicode="&#xf5;" glyph-name="otilde" horiz-adv-x="533" d="M169 -8T116 36T51 156Q47 177 47 208Q47 233 50 258Q58 321 77 364Q109 438 172 480T316 522Q396 522 447 481T512 365Q518 337 518 303Q518 281 515 260Q509 210 489 159Q458 81 395 37T250
-8Q169 -8 116 36ZM297 113T321 133T361 188Q373 221 377 258Q380 282 380 303Q380 349 359 375T299 401Q267 401 243 382T204 329Q193 305 188 258Q185 233 185 209Q185 165 206 139T265 113Q297 113 321 133ZM359 573T346 577T316 591Q297 601 288 604T269 608Q238
608 214 586Q209 581 205 581Q201 581 198 585L164 629Q160 635 160 638Q160 642 163 646Q183 674 212 691T274 708Q292 708 305 703T330 693T344 685Q361 675 370 671T390 667Q419 667 440 691Q444 696 449 696Q453 696 456 692L487 647Q492 639 488 633Q472 606
443 590T379 573Q359 573 346 577Z" />
<glyph unicode="&#xf6;" glyph-name="odieresis" horiz-adv-x="533" d="M169 -8T116 36T51 156Q47 177 47 208Q47 233 50 258Q58 321 77 364Q109 438 172 480T316 522Q396 522 447 481T512 365Q518 337 518 303Q518 281 515 260Q509 210 489 159Q458 81 395 37T250
-8Q169 -8 116 36ZM297 113T321 133T361 188Q373 221 377 258Q380 282 380 303Q380 349 359 375T299 401Q267 401 243 382T204 329Q193 305 188 258Q185 233 185 209Q185 165 206 139T265 113Q297 113 321 133ZM384 578T365 597T346 647Q346 685 371 710T434 736Q465
736 483 718T502 668Q502 630 476 604T414 578Q384 578 365 597ZM191 578T172 597T153 647Q153 685 178 710T241 736Q272 736 290 718T309 668Q309 630 283 604T221 578Q191 578 172 597Z" />
<glyph unicode="&#xf7;" glyph-name="divide" horiz-adv-x="471" d="M242 417T225 434T208 477Q208 508 231 531T284 554Q309 554 325 537T342 493Q342 463 319 440T268 417Q242 417 225 434ZM46 251T43 254T41 263L53 360Q54 365 57 368T66 372H458Q463 372 466
369T468 360L456 263Q455 258 452 255T443 251H51Q46 251 43 254ZM200 78T184 95T167 139Q167 169 190 192T243 215Q268 215 284 198T301 156Q301 125 278 102T226 78Q200 78 184 95Z" />
<glyph unicode="&#xf8;" glyph-name="oslash" horiz-adv-x="534" d="M498 421T499 417Q509 396 515 365Q520 341 520 304Q520 275 518 260Q510 205 492 159Q461 81 398 37T253 -8Q205 -8 166 7Q161 9 159 5L116 -49Q113 -54 107 -54Q104 -54 99 -51L29 14Q25 18
25 22Q25 25 29 31L73 87Q75 90 73 93Q60 120 54 156Q50 177 50 208Q50 233 53 258Q61 321 80 364Q112 438 175 480T319 522Q371 522 407 506Q412 504 414 508L460 565Q464 570 468 570T477 567L548 502Q551 499 551 495Q551 489 547 485L499 424Q498 421 499 417ZM376
221T380 258Q383 282 383 303Q383 349 362 375T302 401Q270 401 246 382T207 329Q196 305 191 258Q188 233 188 209Q188 165 209 139T268 113Q300 113 324 133T364 188Q376 221 380 258Z" />
<glyph unicode="&#xf9;" glyph-name="ugrave" horiz-adv-x="530" d="M385 507T388 510T397 514H510Q515 514 518 511T520 502L460 12Q459 7 456 4T447 0H334Q329 0 326 3T324 12L328 46Q328 49 326 49T322 47Q276 -7 195 -7Q128 -7 87 31T46 139Q46 148 48 168L89
502Q90 507 93 510T102 514H214Q225 514 225 502L188 203Q187 197 187 186Q187 152 205 133T255 113Q288 113 312 133T345 187L384 502Q385 507 388 510ZM368 588T368 585Q368 581 365 579T358 576H276Q267 576 264 584L207 685Q205 689 205 691Q205 695 208 697T217
700H315Q325 700 328 691L367 590Q368 588 368 585Z" />
<glyph unicode="&#xfa;" glyph-name="uacute" horiz-adv-x="530" d="M385 507T388 510T397 514H510Q515 514 518 511T520 502L460 12Q459 7 456 4T447 0H334Q329 0 326 3T324 12L328 46Q328 49 326 49T322 47Q276 -7 195 -7Q128 -7 87 31T46 139Q46 148 48 168L89
502Q90 507 93 510T102 514H214Q225 514 225 502L188 203Q187 197 187 186Q187 152 205 133T255 113Q288 113 312 133T345 187L384 502Q385 507 388 510ZM252 576T252 582Q252 586 255 590L319 691Q323 700 334 700H432Q441 700 441 693Q441 690 438 685L357 584Q351
576 342 576H261Q252 576 252 582Z" />
<glyph unicode="&#xfb;" glyph-name="ucircumflex" horiz-adv-x="530" d="M385 507T388 510T397 514H510Q515 514 518 511T520 502L460 12Q459 7 456 4T447 0H334Q329 0 326 3T324 12L328 46Q328 49 326 49T322 47Q276 -7 195 -7Q128 -7 87 31T46 139Q46 148 48
168L89 502Q90 507 93 510T102 514H214Q225 514 225 502L188 203Q187 197 187 186Q187 152 205 133T255 113Q288 113 312 133T345 187L384 502Q385 507 388 510ZM164 572T164 579Q164 583 167 587L251 692Q256 700 265 700H394Q403 700 407 692L468 587Q470 583
470 581Q470 577 467 575T458 572H371Q361 572 358 580L327 641Q324 647 321 641L275 580Q269 572 260 572H173Q164 572 164 579Z" />
<glyph unicode="&#xfc;" glyph-name="udieresis" horiz-adv-x="530" d="M385 507T388 510T397 514H510Q515 514 518 511T520 502L460 12Q459 7 456 4T447 0H334Q329 0 326 3T324 12L328 46Q328 49 326 49T322 47Q276 -7 195 -7Q128 -7 87 31T46 139Q46 148 48
168L89 502Q90 507 93 510T102 514H214Q225 514 225 502L188 203Q187 197 187 186Q187 152 205 133T255 113Q288 113 312 133T345 187L384 502Q385 507 388 510ZM382 578T363 597T344 647Q344 685 369 710T432 736Q463 736 481 718T500 668Q500 630 474 604T412
578Q382 578 363 597ZM189 578T170 597T151 647Q151 685 176 710T239 736Q270 736 288 718T307 668Q307 630 281 604T219 578Q189 578 170 597Z" />
<glyph unicode="&#xfd;" glyph-name="yacute" horiz-adv-x="489" d="M-2 -199T-2 -187L10 -95Q11 -90 14 -87T23 -83Q83 -82 111 -67T157 -3Q158 -1 158 3L60 501V505Q60 515 71 515H192Q204 515 205 505L246 181Q247 178 249 178T252 181L373 505Q377 515 388
515H507Q513 515 515 511T514 501L282 -19Q249 -92 219 -128T142 -182T10 -199H4Q-2 -199 -2 -187ZM234 585T234 591Q234 595 237 599L301 700Q305 709 316 709H414Q423 709 423 702Q423 699 420 694L339 593Q333 585 324 585H243Q234 585 234 591Z" />
<glyph unicode="&#xfe;" glyph-name="thorn" horiz-adv-x="534" d="M514 358T514 324Q514 296 509 258Q501 192 482 142Q455 73 400 33T280 -8Q212 -8 178 39Q177 41 175 40T172 36L145 -188Q144 -193 141 -196T132 -200H18Q13 -200 10 -197T8 -188L116 688Q116
693 120 696T129 700H242Q247 700 250 697T252 688L227 483Q227 477 233 481Q274 522 341 522Q408 522 451 485T507 386Q514 358 514 324ZM352 187T356 205T365 257Q370 295 370 310Q370 328 365 343Q360 369 341 385T293 401Q266 401 246 387T212 350Q210 346
210 344L189 172Q189 171 189 170T189 166Q196 142 213 128T257 113Q286 113 309 129T344 172Q352 187 356 205Z" />
<glyph unicode="&#xff;" glyph-name="ydieresis" horiz-adv-x="489" d="M-2 -199T-2 -187L10 -95Q11 -90 14 -87T23 -83Q83 -82 111 -67T157 -3Q158 -1 158 3L60 501V505Q60 515 71 515H192Q204 515 205 505L246 181Q247 178 249 178T252 181L373 505Q377 515
388 515H507Q513 515 515 511T514 501L282 -19Q249 -92 219 -128T142 -182T10 -199H4Q-2 -199 -2 -187ZM363 587T344 606T325 656Q325 694 350 719T413 745Q444 745 462 727T481 677Q481 639 455 613T393 587Q363 587 344 606ZM170 587T151 606T132 656Q132 694
157 719T220 745Q251 745 269 727T288 677Q288 639 262 613T200 587Q170 587 151 606Z" />
<glyph unicode="&#x2013;" glyph-name="endash" horiz-adv-x="462" d="M43 223T40 226T38 235L49 332Q50 337 54 340T63 344H446Q451 344 454 341T456 332L444 235Q443 230 440 227T431 223H48Q43 223 40 226Z" />
<glyph unicode="&#x2014;" glyph-name="emdash" horiz-adv-x="639" d="M43 224T40 227T38 236L49 332Q50 337 54 340T63 344H622Q627 344 630 341T632 332L621 236Q620 231 617 228T608 224H48Q43 224 40 227Z" />
<glyph unicode="&#x2018;" glyph-name="quoteleft" horiz-adv-x="197" d="M47 474T45 478T46 488L151 691Q152 695 156 697T165 700H251Q263 700 259 687L182 484Q178 474 167 474H53Q47 474 45 478Z" />
<glyph unicode="&#x2019;" glyph-name="quoteright" horiz-adv-x="197" d="M257 700T258 696T257 686L152 483Q149 474 138 474H52Q40 474 44 487L122 690Q125 700 136 700H250Q257 700 258 696Z" />
<glyph unicode="&#x201a;" glyph-name="quotesinglbase" horiz-adv-x="582" d="M7 -98T10 -85L70 147Q73 158 84 158H183Q195 158 191 145L103 -88Q99 -98 88 -98H19Q7 -98 10 -85Z" />
<glyph unicode="&#x201c;" glyph-name="quotedblleft" horiz-adv-x="352" d="M47 474T45 478T45 488L140 690Q145 700 154 700H235Q248 700 244 687L175 485Q170 474 161 474H53Q47 474 45 478ZM219 474T217 477T217 488L311 690Q314 700 325 700H406Q418 700
414 687L347 485Q344 474 333 474H225Q219 474 217 477Z" />
<glyph unicode="&#x201d;" glyph-name="quotedblright" horiz-adv-x="352" d="M238 700T240 697T240 686L147 484Q142 474 133 474H51Q39 474 43 487L111 689Q114 700 125 700H232Q238 700 240 697ZM410 700T412 697T412 686L317 484Q314 474 304 474H222Q209
474 213 487L282 689Q287 700 296 700H404Q410 700 412 697Z" />
<glyph unicode="&#x201e;" glyph-name="quotedblbase" horiz-adv-x="371" d="M168 128T170 125T170 114L77 -88Q72 -98 63 -98H-19Q-31 -98 -27 -85L41 117Q44 128 55 128H162Q168 128 170 125ZM340 128T342 125T342 114L247 -88Q244 -98 234 -98H152Q139 -98
143 -85L212 117Q217 128 226 128H334Q340 128 342 125Z" />
<glyph unicode="&#x2022;" glyph-name="bullet" horiz-adv-x="307" d="M105 146T74 179T42 260Q42 299 62 332T115 386T185 406Q233 406 264 374T295 294Q295 255 275 221T222 167T153 146Q105 146 74 179Z" />
<glyph unicode="&#x2039;" glyph-name="guilsinglleft" horiz-adv-x="325" d="M254 119T254 116Q254 107 243 107H146Q137 107 133 115L61 273Q60 275 60 280Q60 283 63 289L174 447Q179 455 189 455H286Q295 455 295 449Q295 446 292 441L179 284Q178 281 179
278L253 121Q254 119 254 116Z" />
<glyph unicode="&#x203a;" glyph-name="guilsinglright" horiz-adv-x="336" d="M60 107T60 113Q60 117 63 121L176 278Q178 281 176 284L103 441Q101 445 101 447Q101 455 112 455H209Q219 455 222 447L294 289Q296 283 296 282Q296 278 293 273L181 115Q176 107
166 107H69Q60 107 60 113Z" />
</font>
</defs>
</svg>
