<?xml version="1.0" standalone="no"?>
<!DOCTYPE svg PUBLIC "-//W3C//DTD SVG 20010904//EN"
 "http://www.w3.org/TR/2001/REC-SVG-20010904/DTD/svg10.dtd">
<svg version="1.0" xmlns="http://www.w3.org/2000/svg"
 width="1592.000000pt" height="1592.000000pt" viewBox="0 0 1592.000000 1592.000000"
 preserveAspectRatio="xMidYMid meet">
<metadata>
Created by potrace 1.14, written by Peter Selinger 2001-2017
</metadata>
<g transform="translate(0.000000,1592.000000) scale(0.100000,-0.100000)"
fill="#000000" stroke="none">
<path d="M8711 12629 c-11 -5 -21 -10 -21 -12 0 -2 18 -48 40 -103 37 -89 70
-211 86 -312 3 -20 9 -56 14 -80 l8 -43 -42 26 c-71 44 -298 153 -386 185
-150 54 -376 106 -545 126 -33 3 -68 8 -78 10 -42 7 -241 18 -342 18 -219 0
-396 -27 -585 -91 -124 -42 -177 -68 -245 -120 -65 -50 -66 -73 -5 -91 57 -17
108 -44 107 -57 0 -5 -50 -22 -111 -38 -113 -28 -247 -69 -301 -92 -324 -139
-548 -252 -935 -470 -342 -193 -500 -264 -668 -300 -43 -9 -50 -29 -26 -72 43
-81 181 -188 311 -243 l64 -27 -58 -47 c-220 -180 -408 -414 -540 -671 -176
-343 -280 -714 -310 -1102 -15 -200 -5 -593 17 -660 5 -15 11 -41 14 -58 9
-61 29 -125 43 -136 20 -18 36 2 72 91 16 41 31 71 31 65 1 -5 3 -32 5 -60 2
-27 6 -90 10 -140 7 -106 37 -319 60 -435 3 -14 8 -38 10 -55 18 -99 60 -296
85 -394 35 -135 36 -141 10 -141 -41 0 -131 -43 -179 -86 -82 -73 -146 -189
-185 -334 -52 -189 -30 -494 58 -812 56 -203 128 -327 308 -529 13 -14 48 -55
78 -90 118 -138 195 -208 269 -243 68 -32 154 -59 233 -71 34 -5 38 -10 59
-63 44 -118 93 -262 140 -422 87 -290 203 -557 314 -725 146 -221 354 -439
630 -660 83 -66 152 -122 155 -125 48 -56 545 -380 582 -380 22 0 -22 -345
-53 -401 -15 -28 -46 -42 -68 -29 -25 13 -75 13 -115 0 -17 -5 -148 -37 -291
-71 -143 -34 -307 -73 -364 -86 -57 -14 -109 -26 -115 -28 -6 -1 -22 -5 -36
-8 -41 -11 -273 -66 -300 -71 -14 -3 -74 -17 -135 -32 -60 -14 -117 -27 -125
-29 -304 -69 -358 -88 -472 -162 -62 -41 -218 -185 -218 -202 0 -23 561 -260
841 -356 526 -180 1089 -301 1659 -355 365 -35 982 -35 1345 0 854 83 1639
299 2412 665 l122 57 -17 26 c-9 14 -50 54 -92 90 -106 90 -251 159 -395 186
-27 5 -159 37 -419 102 -120 30 -228 56 -240 58 -11 2 -106 25 -211 50 -104
24 -201 47 -215 49 -14 3 -44 10 -66 16 -143 39 -453 101 -476 95 -36 -7 -96
12 -102 34 -5 19 -23 101 -32 147 -3 17 -8 82 -11 145 l-5 115 49 25 c178 91
483 305 704 494 19 17 60 51 90 76 90 74 211 191 329 319 38 40 133 165 186
242 61 89 114 196 199 399 48 116 66 170 156 460 29 94 116 341 123 347 1 1
36 9 77 17 168 32 267 90 389 227 46 52 113 127 149 168 138 154 245 323 281
441 168 551 144 969 -69 1202 -72 78 -158 119 -256 121 -61 2 -74 5 -71 17 3
8 7 35 11 60 4 25 8 56 10 70 2 14 6 45 10 70 3 25 8 56 10 70 9 52 42 317 50
400 7 77 15 123 21 117 9 -9 34 -120 34 -152 0 -46 9 -65 30 -65 20 0 16 -10
98 255 77 247 100 341 118 485 3 30 8 64 11 75 11 50 9 389 -3 485 -44 363
-169 720 -355 1013 -37 59 -66 107 -63 107 5 0 29 -25 127 -129 92 -98 110
-84 72 56 -110 416 -287 698 -590 944 -114 92 -248 171 -375 219 -19 7 -38 16
-42 19 -4 3 -14 51 -23 106 -24 154 -111 397 -187 522 -50 82 -67 78 -87 -17
-13 -63 -41 -140 -50 -140 -4 0 -19 29 -35 64 -60 140 -173 307 -291 435 -148
159 -441 344 -658 415 -77 25 -200 38 -236 25z"/>
</g>
</svg>
